SplineFontDB: 3.2
FontName: honchokomono-regular-normal
FullName: honchokomono greater
FamilyName: honchokomono-normal
Weight: regular
Copyright: Copyright (c) 2024, honchokomodo
UComments: "2024-6-9: Created with FontForge (http://fontforge.org)"
Version: 001.000
ItalicAngle: 0
UnderlinePosition: 0
UnderlineWidth: 0
Ascent: 800
Descent: 200
InvalidEm: 0
LayerCount: 2
Layer: 0 0 "Back" 1
Layer: 1 0 "Fore" 0
XUID: [1021 669 1385941162 1060273]
FSType: 0
OS2Version: 4
OS2_WeightWidthSlopeOnly: 0
OS2_UseTypoMetrics: 1
CreationTime: 1717993120
ModificationTime: 1734655506
PfmFamily: 49
TTFWeight: 400
TTFWidth: 5
LineGap: 68
VLineGap: 0
OS2TypoAscent: 977
OS2TypoAOffset: 0
OS2TypoDescent: -273
OS2TypoDOffset: 0
OS2TypoLinegap: 0
OS2WinAscent: 977
OS2WinAOffset: 0
OS2WinDescent: 273
OS2WinDOffset: 0
HheadAscent: 977
HheadAOffset: 0
HheadDescent: -205
HheadDOffset: 0
OS2CapHeight: 735
OS2XHeight: 530
OS2Vendor: 'PfEd'
Lookup: 1 0 0 "rightarrowhead" { "rightarrowhead-1"  } ['aalt' ('DFLT' <'dflt' > 'latn' <'dflt' > ) ]
Lookup: 1 0 0 "leftarrowhead" { "leftarrowhead-1"  } ['aalt' ('DFLT' <'dflt' > 'latn' <'dflt' > ) ]
Lookup: 1 0 0 "longequal" { "longequal-1"  } ['aalt' ('DFLT' <'dflt' > 'latn' <'dflt' > ) ]
Lookup: 1 0 0 "rightequal" { "rightequal-1"  } ['aalt' ('DFLT' <'dflt' > 'latn' <'dflt' > ) ]
Lookup: 1 0 0 "leftequal" { "leftequal-1"  } ['aalt' ('DFLT' <'dflt' > 'latn' <'dflt' > ) ]
Lookup: 1 0 0 "longhyphen" { "longhyphen-1"  } ['aalt' ('DFLT' <'dflt' > 'latn' <'dflt' > ) ]
Lookup: 1 0 0 "righthyphen" { "righthyphen-1"  } ['aalt' ('DFLT' <'dflt' > 'latn' <'dflt' > ) ]
Lookup: 1 0 0 "lefthyphen" { "lefthyphen-1"  } ['aalt' ('DFLT' <'dflt' > 'latn' <'dflt' > ) ]
Lookup: 6 0 0 "caltrules" { "rightarrowhead"  "leftarrowhead"  "longequal"  "rightequal"  "leftequal"  "longhyphen"  "righthyphen"  "lefthyphen"  } ['calt' ('DFLT' <'dflt' > 'latn' <'dflt' > ) ]
Lookup: 4 0 1 "ligatures" { "ligatures-1"  } ['liga' ('DFLT' <'dflt' > 'latn' <'dflt' > ) ]
MarkAttachClasses: 1

StartChar: exclam
Encoding: 33 33 1
Width: 500
Flags: HW
LayerCount: 2
Fore
SplineSet
188.403320312 54.9697265625 m 0
 188.403320312 21.5546875 217.471679688 -8.34765625 251.596679688 -8.34765625 c 0
 287.682353516 -8.34765625 310.912741733 20.8037710378 310.912741733 51.6904036106 c 0
 310.912741733 66.729500092 305.405186831 82.1799860983 293.192382812 94.876953125 c 0
 280.318460294 108.26142059 264.168492925 114.289751349 248.430322847 114.289751349 c 0
 217.628127919 114.289751349 188.403320312 91.1982625683 188.403320312 54.9697265625 c 0
284.51953125 252.490234375 m 0
 284.51953125 252.795898438 284.241210938 265.760742188 284.241210938 283.078125 c 0
 284.241210938 324.678710938 285.674804688 368.946289062 287.135742188 413.801757812 c 0
 288.624439134 459.497322579 290.117373114 505.323293805 290.117373114 549.565927845 c 0
 290.117373114 595.438135799 288.512436293 639.608221499 283.633789062 680.166015625 c 0
 281.250976562 699.974609375 264.368164062 715.34765625 243.921875 715.34765625 c 0
 221.845703125 715.34765625 203.921875 697.423828125 203.921875 675.34765625 c 0
 203.921875 674.087890625 210.11328125 629.249023438 210.11328125 549.51171875 c 0
 210.11328125 464.190793094 204.243985592 369.148216212 204.243985592 282.864422033 c 0
 204.243985592 272.338392159 204.331334346 261.942713318 204.52734375 251.7109375 c 0
 204.943359375 229.993164062 222.703125 212.490234375 244.51953125 212.490234375 c 0
 266.595703125 212.490234375 284.51953125 230.4140625 284.51953125 252.490234375 c 0
EndSplineSet
EndChar

StartChar: quotedbl
Encoding: 34 34 2
Width: 500
Flags: HW
LayerCount: 2
Fore
SplineSet
165.75 743.141601562 m 0
 143.672275614 743.141601562 125.749699721 725.217603112 125.749699721 703.140912304 c 0
 125.749699721 703.08875632 125.749799754 703.036577158 125.75 702.984375 c 0
 125.756835938 701.375976562 125.9765625 562.478515625 126.25390625 542.086914062 c 0
 126.55078125 520.265625 144.358398438 502.641601562 166.25 502.641601562 c 0
 188.331611713 502.641601562 206.24987453 520.571373314 206.24987453 542.640763192 c 0
 206.24987453 542.825650653 206.248616966 543.010828646 206.24609375 543.196289062 c 0
 205.982421875 562.555664062 205.755859375 701.698242188 205.75 703.298828125 c 0
 205.665039062 725.303710938 187.774414062 743.141601562 165.75 743.141601562 c 0
333.75 743.141601562 m 0
 311.672275614 743.141601562 293.749699721 725.217603112 293.749699721 703.140912304 c 0
 293.749699721 703.08875632 293.749799754 703.036577158 293.75 702.984375 c 0
 293.756835938 701.375976562 293.9765625 562.478515625 294.25390625 542.086914062 c 0
 294.55078125 520.265625 312.358398438 502.641601562 334.25 502.641601562 c 0
 356.331611713 502.641601562 374.24987453 520.571373314 374.24987453 542.640763192 c 0
 374.24987453 542.825650653 374.248616966 543.010828646 374.24609375 543.196289062 c 0
 373.982421875 562.555664062 373.755859375 701.698242188 373.75 703.298828125 c 0
 373.665039062 725.303710938 355.774414062 743.141601562 333.75 743.141601562 c 0
EndSplineSet
EndChar

StartChar: numbersign
Encoding: 35 35 3
Width: 500
Flags: HW
LayerCount: 2
Fore
SplineSet
256.833984375 675.180664062 m 0
 256.943636833 676.40403151 256.997353218 677.61825551 256.997353218 678.82097029 c 0
 256.997353218 700.71193202 239.201813401 718.790039062 216.995117188 718.790039062 c 0
 196.134765625 718.790039062 178.982421875 702.787109375 177.15625 682.399414062 c 0
 172.940780538 635.353189078 165.670217948 581.338878437 156.842239562 524.018571834 c 1
 103.848718026 525.041804373 77.6856437228 526.940429687 76.58984375 526.940429688 c 0
 54.513671875 526.940429688 36.58984375 509.016601562 36.58984375 486.940429688 c 0
 36.58984375 465.696289062 53.1875 448.297851562 74.111328125 447.016601562 c 0
 92.3163079355 445.901431018 115.815254393 444.94939998 144.004530878 444.299966742 c 1
 136.122011573 397.029457162 127.686611315 348.723300408 119.446820103 301.211688772 c 1
 101.692257343 301.184911468 87.1414273224 301.100222181 78.2880859375 300.931640625 c 0
 56.568359375 300.518554688 39.0625 282.7578125 39.0625 260.939453125 c 0
 39.0625 238.86328125 56.986328125 220.939453125 79.0625 220.939453125 c 0
 80.4652479378 220.939453125 88.4022913345 221.147635328 105.719046815 221.275494372 c 1
 95.7147980882 162.068101418 86.7389226 105.898807554 80.3857421875 56.666015625 c 0
 80.1597910143 54.9148762077 80.0500117251 53.1787085746 80.0500117251 51.4646613031 c 0
 80.0500117251 29.7023639038 97.7463864689 11.505859375 120.055664062 11.505859375 c 0
 140.383789062 11.505859375 157.190429688 26.7021484375 159.725585938 46.345703125 c 0
 166.481180603 98.6975215232 176.124283419 158.30778699 186.808063179 221.005164669 c 1
 211.157883348 220.85358643 241.690849731 220.693938136 273.261513202 220.609531342 c 1
 256.246559242 115.372331814 247.837890625 60.4551164628 247.837890625 54.6689453125 c 0
 247.837890625 32.5927734375 265.76171875 14.6689453125 287.837890625 14.6689453125 c 0
 307.9296875 14.6689453125 324.58203125 29.5146484375 327.413085938 48.8251953125 c 0
 335.187066439 101.839383088 344.470204936 160.081570915 354.296557485 220.613712806 c 1
 381.171158033 220.712498321 405.209239348 220.933561466 422.5234375 221.33984375 c 0
 444.159179688 221.848632812 461.568359375 239.571289062 461.568359375 261.329101562 c 0
 461.568359375 283.405273438 443.64453125 301.329101562 421.568359375 301.329101562 c 0
 419.207066582 301.329101562 402.831347504 300.796908159 367.328484378 300.542099456 c 1
 375.208859132 348.814763456 383.163919861 397.696337787 390.740383618 445.863210016 c 1
 406.643305419 446.330767152 422.951127024 446.871495277 439.638671875 447.491210938 c 0
 461.017578125 448.28515625 478.130859375 465.891601562 478.130859375 487.462890625 c 0
 478.130859375 509.5390625 460.20703125 527.462890625 438.130859375 527.462890625 c 0
 437.379580589 527.462890625 424.432022495 526.948666059 403.093755656 526.285327984 c 1
 411.065742028 579.69590902 418.217322806 631.21679332 423.880859375 678.8984375 c 0
 424.072636682 680.513146918 424.166008133 682.114283885 424.166008133 683.696291066 c 0
 424.166008133 705.492355522 406.442349683 723.657226562 384.161132812 723.657226562 c 0
 363.694335938 723.657226562 346.797851562 708.252929688 344.44140625 688.416015625 c 0
 338.425423194 637.762939612 330.617269875 582.17725032 321.877714489 524.286934877 c 1
 296.021722247 523.819545121 267.413973607 523.46892719 237.737805275 523.39658245 c 1
 245.928706633 577.554118478 252.702543613 629.071341958 256.833984375 675.180664062 c 0
225.015473774 443.386126886 m 1
 226.679117098 443.384284818 228.351852884 443.383356713 230.033619915 443.383356713 c 0
 254.634299009 443.383356713 281.167436458 443.581947797 309.441420824 444.023397996 c 1
 301.918533472 396.496747812 294.050804979 348.261823601 286.278150833 300.661718937 c 1
 262.68612193 300.797592035 231.746989704 300.960358719 200.639454007 301.075230327 c 1
 208.863075135 348.339284105 217.230064229 396.322049158 225.015473774 443.386126886 c 1
EndSplineSet
EndChar

StartChar: dollar
Encoding: 36 36 4
Width: 500
Flags: HW
LayerCount: 2
Fore
SplineSet
45.1171875 196.356445312 m 0
 45.1171875 163.622579185 109.857920622 112.866135818 140.958950658 95.7451902447 c 1
 137.337935613 80.5312748099 133.617537633 65.0066580552 129.788085938 49.134765625 c 0
 129.022545882 45.9618669054 128.658224025 42.8016720761 128.658224025 39.7016762248 c 0
 128.658224025 18.2797240191 146.05549362 -0.267578125 168.674804688 -0.267578125 c 0
 187.513671875 -0.267578125 203.328125 12.7841796875 207.561523438 30.330078125 c 0
 210.824445779 43.8537044158 214.009186799 57.1293438261 217.121572271 70.1789222183 c 1
 226.60293575 68.8821330017 236.023931139 68.2576142688 245.338379758 68.2576142688 c 0
 357.868063069 68.2576142688 454.846679688 159.40943764 454.846679688 257.51171875 c 0
 454.846679688 274.756188839 453.436938159 380.15589534 295.098553134 418.09417517 c 1
 305.337438387 466.967312401 315.292040306 515.731942561 325.514398907 566.46572164 c 1
 344.167829517 558.217655827 364.32114096 547.144411153 385.82421875 532.653320312 c 0
 392.802575787 527.950593016 400.443790195 525.8200005 407.9103567 525.8200005 c 0
 428.701614637 525.8200005 448.138671875 542.340381326 448.138671875 565.84765625 c 0
 448.138671875 579.6640625 441.118164062 591.854492188 430.453125 599.041992188 c 0
 399.351279307 620.001568206 369.622331822 635.551391088 341.546851451 646.451871627 c 1
 343.743759551 657.454859528 345.964154116 668.587206795 348.212890625 679.8671875 c 0
 348.742744116 682.525378581 348.996742082 685.165060414 348.996742082 687.759491914 c 0
 348.996742082 709.298529639 331.490278901 727.71875 308.984375 727.71875 c 0
 289.594726562 727.71875 273.409179688 713.892578125 269.755859375 695.5703125 c 0
 267.757135533 685.544433517 265.781550476 675.638828095 263.82565602 665.840455388 c 1
 255.710635705 666.665397104 247.806333569 667.064143332 240.12287757 667.064143332 c 0
 137.744815732 667.064143332 74.576171875 596.270024966 74.576171875 519.6171875 c 0
 74.576171875 460.810212554 112.336912878 394.810553601 201.031069517 360.308296218 c 1
 188.533217837 302.302677561 175.262582473 242.727136684 160.30441957 178.122163371 c 1
 145.515552908 189.037774297 130.780667018 203.245747423 116.403320312 221.270507812 c 0
 108.109773408 231.667827357 96.8027389031 236.304763922 85.6381993618 236.304763922 c 0
 65.1374636858 236.304763922 45.1171875 220.670104883 45.1171875 196.356445312 c 0
235.535088352 148.350637225 m 1
 251.382578559 216.519677512 265.349584425 279.05335369 278.450151619 339.768124706 c 1
 319.514476297 329.539892386 374.846679688 306.642508778 374.846679688 257.51171875 c 0
 374.846679688 208.962440503 317.654837221 147.933315874 245.821114465 147.933315874 c 0
 242.423690703 147.933315874 238.993514811 148.069830703 235.535088352 148.350637225 c 1
247.98958357 586.793160565 m 1
 237.861150625 536.484541615 228.02975178 488.256966541 217.950476831 440.049615345 c 1
 174.04144946 460.685250815 154.409496251 491.607163689 154.409496251 519.770195174 c 0
 154.409496251 555.620906265 186.222176277 587.000976562 240.265625 587.000976562 c 0
 242.772446704 587.000976562 245.347478104 586.93319909 247.98958357 586.793160565 c 1
EndSplineSet
EndChar

StartChar: percent
Encoding: 37 37 5
Width: 500
Flags: HW
LayerCount: 2
Fore
SplineSet
424.89453125 659.608398438 m 0
 427.388715283 665.051540739 428.540663973 670.667372692 428.540663973 676.151238242 c 0
 428.540663973 697.162957331 411.629141373 716.237304688 388.509765625 716.237304688 c 0
 372.365234375 716.237304688 358.44140625 706.65234375 352.125 692.866210938 c 0
 324.0390625 631.575195312 293.470703125 568.227539062 262.338867188 503.719726562 c 0
 194.05078125 362.223632812 123.040039062 215.251953125 69.595703125 71.0107421875 c 0
 67.88733675 66.4005122138 67.0898387923 61.7279737744 67.0898387923 57.1607384508 c 0
 67.0898387923 36.0168856219 84.1817668552 17.1298828125 107.1171875 17.1298828125 c 0
 124.314453125 17.1298828125 138.991210938 28.005859375 144.638671875 43.2490234375 c 0
 196.240234375 182.51171875 266.162109375 327.563476562 334.431640625 469.022460938 c 0
 365.564453125 533.533203125 396.3515625 597.319335938 424.89453125 659.608398438 c 0
370.473632812 145.994140625 m 1
 357.97226816 158.052384377 351.551773447 187.972742537 351.551773447 217.66480872 c 0
 351.551773447 243.200915333 356.30071712 268.568164904 366.014648438 282.258789062 c 1
 377.8509864 272.436702284 384.369314983 242.68832515 384.369314983 212.174882286 c 0
 384.369314983 187.07870177 379.960020717 161.464995956 370.473632812 145.994140625 c 1
464.541992188 213.08984375 m 0
 464.541992188 307.938476562 420.556640625 363.067382812 362.951171875 363.067382812 c 0
 302.395180379 363.067382812 270.969925536 290.905938016 270.969925536 217.523658899 c 0
 270.969925536 141.615672596 304.595627348 64.4013671875 374.38671875 64.4013671875 c 0
 430.385742188 64.4013671875 464.541992188 129.548828125 464.541992188 213.08984375 c 0
127.751953125 475.465820312 m 1
 119.476307296 486.983395937 115.643097354 507.529632324 115.643097354 529.863419662 c 0
 115.643097354 563.900017755 124.545969693 602.088315901 140.1953125 618.797851562 c 1
 144.682209749 607.70592744 146.962215796 590.187073909 146.962215796 570.579835703 c 0
 146.962215796 538.008734138 140.670515278 499.674713233 127.751953125 475.465820312 c 1
133.421875 391.625 m 0
 195.412228261 391.625 227.243862757 483.749236354 227.243862757 566.245294891 c 0
 227.243862757 609.882068141 218.337552946 650.824932143 200.27734375 674.014648438 c 0
 188.1953125 689.530273438 168.008789062 702.41015625 144.068359375 702.41015625 c 0
 74.5641773348 702.41015625 35.2435959863 614.723850874 35.2435959863 532.504384539 c 0
 35.2435959863 459.935276037 65.875514555 391.625 133.421875 391.625 c 0
EndSplineSet
EndChar

StartChar: ampersand
Encoding: 38 38 6
Width: 500
Flags: HW
LayerCount: 2
Fore
SplineSet
292.565429688 183.834960938 m 1
 267.1875 156.236328125 214.838867188 105.911132812 170.541992188 105.911132812 c 0
 127.713867188 105.911132812 113.719726562 160.06640625 113.719726562 199.341796875 c 0
 113.719726562 244.180664062 129.84765625 296.98828125 165.60546875 341.516601562 c 1
 196.541992188 286.610351562 238.67578125 234.587890625 292.565429688 183.834960938 c 1
225.395507812 399.356445312 m 1
 344.571289062 509.46875 361.06640625 568.982421875 361.06640625 605.365234375 c 0
 361.06640625 669.95852229 306.335901187 703.300451047 247.052152022 703.300451047 c 0
 177.009211297 703.300451047 100.610351562 656.758119024 100.610351562 560.225585938 c 0
 100.610351562 532.456054688 109.939453125 474.953125 129.47265625 420.46875 c 1
 63.2958984375 356.208007812 33.7197265625 272.724609375 33.7197265625 199.341796875 c 0
 33.7197265625 95.6201171875 91.8447265625 25.9111328125 170.541992188 25.9111328125 c 0
 200.818359375 25.9111328125 265.404296875 35.2099609375 353.059570312 131.293945312 c 1
 368.787109375 118.622070312 385.396484375 105.905273438 402.92578125 93.1240234375 c 0
 410.185222032 87.830776697 418.279237102 85.4409699797 426.193530698 85.4409699797 c 0
 446.94295262 85.4409699797 466.45703125 101.86767531 466.45703125 125.46484375 c 0
 466.45703125 138.749023438 459.966796875 150.529296875 449.98828125 157.805664062 c 0
 433.556640625 169.787109375 418.098632812 181.62109375 403.559570312 193.323242188 c 1
 410.729492188 203.0625 417.961914062 213.275390625 425.258789062 223.975585938 c 0
 430.046683399 230.997017006 432.214709652 238.705184788 432.214709652 246.237893235 c 0
 432.214709652 267.022726141 415.708198297 286.471679688 392.1875 286.471679688 c 0
 378.44921875 286.471679688 366.319335938 279.53125 359.116210938 268.967773438 c 0
 353.704101562 261.03125 348.35546875 253.430664062 343.07421875 246.159179688 c 1
 289.697265625 297.15625 251.553710938 347.431640625 225.395507812 399.356445312 c 1
194.377929688 480.374023438 m 1
 194.166015625 481.15625 180.610351562 532.451171875 180.610351562 560.225585938 c 0
 180.610351562 611.948570079 221.188470135 622.988677388 248.440374441 622.988677388 c 0
 259.392441101 622.988677388 268.192195706 621.205593642 271.340820312 619.563476562 c 0
 281.061523438 613.44921875 281.06640625 608.961914062 281.06640625 605.365234375 c 0
 281.06640625 569.091317962 216.674940892 502.377755275 194.377929688 480.374023438 c 1
EndSplineSet
EndChar

StartChar: quotesingle
Encoding: 39 39 7
Width: 500
Flags: HW
LayerCount: 2
Fore
SplineSet
289.286132812 582.0625 m 0
 289.286132812 604.592563085 290.162683311 646.666761526 290.162683311 677.455642445 c 0
 290.162683311 689.026390218 290.038885779 699.003282921 289.698242188 705.75 c 0
 288.631835938 726.877929688 271.140625 743.705078125 249.75 743.705078125 c 0
 227.673828125 743.705078125 209.75 725.78125 209.75 703.705078125 c 0
 209.75 703.44921875 210.20703125 694.61328125 210.20703125 678.143554688 c 0
 210.20703125 677.182617188 209.286132812 586.661132812 209.286132812 582.0625 c 0
 209.286132812 565.9921875 209.482421875 551.8046875 210.365234375 540.146484375 c 0
 211.9296875 519.497070312 229.202148438 503.205078125 250.25 503.205078125 c 0
 272.326171875 503.205078125 290.25 521.12890625 290.25 543.205078125 c 0
 290.25 546.514648438 289.286132812 553.008789062 289.286132812 582.0625 c 0
EndSplineSet
EndChar

StartChar: parenleft
Encoding: 40 40 8
Width: 500
Flags: HW
LayerCount: 2
Fore
SplineSet
405.315429688 718.809570312 m 0
 405.315429688 741.341312159 386.865612438 758.82315203 365.355263005 758.82315203 c 0
 362.643690227 758.82315203 359.883482939 758.545350434 357.10546875 757.96484375 c 0
 203.814646596 725.934076119 94.8881939609 531.193583953 94.8881939609 341.443092281 c 0
 94.8881939609 184.92498975 169.001585758 31.8020759251 353.462890625 -23.806640625 c 0
 357.334793651 -24.9739980024 361.216990732 -25.5242727318 365.017442124 -25.5242727318 c 0
 386.295302395 -25.5242727318 405.010742188 -8.27522557758 405.010742188 14.498046875 c 0
 405.010742188 32.560546875 393.012695312 47.8427734375 376.55859375 52.802734375 c 0
 230.534804942 96.8262923312 174.522295908 216.478402247 174.522295908 339.810140493 c 0
 174.522295908 495.319901033 263.575720923 656.679845956 373.525390625 679.654296875 c 0
 391.669921875 683.4453125 405.315429688 699.546875 405.315429688 718.809570312 c 0
EndSplineSet
EndChar

StartChar: parenright
Encoding: 41 41 9
Width: 500
Flags: HW
LayerCount: 2
Fore
SplineSet
208.385742188 756.58203125 m 0
 201.007270588 762.156216857 192.706672774 764.669178565 184.587373476 764.669178565 c 0
 163.856531307 764.669178565 144.307617188 748.2865849 144.307617188 724.647460938 c 0
 144.307617188 711.607421875 150.560546875 700.016601562 160.229492188 692.712890625 c 0
 265.077367634 613.504971044 308.666154155 502.017765515 308.666154155 392.102488445 c 0
 308.666154155 251.080701102 236.914636712 112.646465772 130.73046875 48.2919921875 c 0
 117.48027923 40.2617109032 111.54738916 27.4244751688 111.54738916 14.6669393394 c 0
 111.54738916 -5.73919008896 126.726767361 -25.94140625 151.419921875 -25.94140625 c 0
 158.989257812 -25.94140625 166.071289062 -23.833984375 172.109375 -20.1748046875 c 0
 305.596802754 60.7275990966 388.600577086 224.559611154 388.600577086 390.834538418 c 0
 388.600577086 525.359169149 334.269548751 661.482836749 208.385742188 756.58203125 c 0
EndSplineSet
EndChar

StartChar: asterisk
Encoding: 42 42 10
Width: 500
Flags: HW
LayerCount: 2
Fore
SplineSet
370.999023438 495.338867188 m 0
 342.274496468 495.338867188 343.034973015 474.550928865 289.587215545 435.763254684 c 1
 289.2636877 471.320477192 289.170576521 491.008388826 289.170576521 505.599930772 c 0
 289.170576521 513.168008527 289.195624381 519.365110703 289.2265625 525.694335938 c 0
 289.2265625 548.608398438 270.76953125 565.892578125 249.2265625 565.892578125 c 0
 227.216796875 565.892578125 209.334960938 548.077148438 209.227539062 526.090820312 c 0
 209.194677839 519.341542812 209.179440173 512.640443761 209.179440173 505.898037812 c 0
 209.179440173 486.181931906 209.309736127 466.112614315 209.510669906 443.452545827 c 1
 194.571737141 453.565355841 179.271076444 465.317121176 163.23046875 480.166015625 c 0
 155.286125733 487.520188334 145.778339274 490.812816145 136.450797687 490.812816145 c 0
 115.820159876 490.812816145 96.0712890625 474.705114993 96.0712890625 450.809570312 c 0
 96.0712890625 439.212890625 101.017578125 428.762695312 108.913085938 421.454101562 c 0
 134.112113367 398.126755977 157.545729995 381.317302798 179.169039466 367.728545052 c 1
 155.517736093 351.944578927 130.653078001 332.521943719 103.891601562 305.122070312 c 0
 96.0256068714 297.068537847 92.508435134 287.239342839 92.508435134 277.586903337 c 0
 92.508435134 256.9810191 108.537268328 237.180664062 132.50390625 237.180664062 c 0
 143.712890625 237.180664062 153.8515625 241.801757812 161.1171875 249.240234375 c 0
 177.893225396 266.416567757 194.18529472 280.120051505 210.211616573 291.834819131 c 1
 209.809056302 220.389886493 208.060546875 206.008919332 208.060546875 204.53125 c 0
 208.060546875 182.455078125 225.984375 164.53125 248.060546875 164.53125 c 0
 269.483398438 164.53125 286.995117188 181.408203125 288.013671875 202.580078125 c 0
 289.50720909 233.607254679 290.152177214 265.786446967 290.343734824 298.523429399 c 1
 304.950710825 286.617045895 320.287108466 271.961723135 337.48046875 252.453125 c 0
 345.733296977 243.088599288 356.455938962 238.910930261 367.018990939 238.910930261 c 0
 387.559266012 238.910930261 407.49609375 254.707678891 407.49609375 278.880859375 c 0
 407.49609375 289.006835938 403.725585938 298.259765625 397.512695312 305.309570312 c 0
 373.84407537 332.166031142 352.149514204 351.826080363 331.594010576 367.508955288 c 1
 353.852530515 383.066183888 376.670111425 402.078735738 400.624023438 428.47265625 c 0
 407.79328783 436.372193235 411.00486942 445.761472549 411.00486942 454.969522229 c 0
 411.00486942 475.609477695 394.868673286 495.338867188 370.999023438 495.338867188 c 0
EndSplineSet
EndChar

StartChar: plus
Encoding: 43 43 11
Width: 500
Flags: HW
LayerCount: 2
Fore
SplineSet
247.3671875 567.296875 m 0
 225.229237859 567.296875 207.366726472 549.300156951 207.366726472 527.31575278 c 0
 207.366726472 526.531445874 207.389460961 525.742063644 207.435546875 524.948242188 c 0
 209.70500604 485.831301446 210.790632779 452.152572518 211.347039856 419.694965964 c 1
 183.674487315 419.391093126 153.655297393 418.758129016 118.551757812 417.381835938 c 0
 97.2109375 416.545898438 80.142578125 398.95703125 80.142578125 377.413085938 c 0
 80.142578125 355.305409587 98.1040384819 337.412949982 120.134233617 337.412949982 c 0
 120.66531443 337.412949982 121.198759769 337.423348096 121.734375 337.444335938 c 0
 156.245705109 338.79700862 185.270925371 339.415908834 212.010264455 339.709229332 c 1
 212.138049284 306.500720676 212.274493478 271.128818758 213.0859375 229.788085938 c 0
 213.512695312 208.080078125 231.268554688 190.586914062 253.078125 190.586914062 c 0
 275.163658287 190.586914062 293.078191895 208.521735999 293.078191895 230.583791091 c 0
 293.078191895 230.850513024 293.075573525 231.117838189 293.0703125 231.385742188 c 0
 292.273464954 271.995707042 292.137061434 306.815584438 292.009272061 340.0277873 c 1
 319.306945705 340.090609258 347.732018867 340.271766825 380.860351562 341.088867188 c 0
 402.474609375 341.622070312 419.857421875 359.334960938 419.857421875 381.076171875 c 0
 419.857421875 403.165405192 401.919276249 421.075925171 379.862528846 421.075925171 c 0
 379.527450989 421.075925171 379.191422619 421.071791683 378.854492188 421.063476562 c 0
 346.94610749 420.276790039 318.897877071 420.103946728 291.350261226 420.036621484 c 1
 290.783371915 453.662496268 289.664983521 488.885214523 287.299804688 529.646484375 c 0
 286.08203125 550.630859375 268.655273438 567.296875 247.3671875 567.296875 c 0
EndSplineSet
EndChar

StartChar: comma
Encoding: 44 44 12
Width: 500
Flags: HW
LayerCount: 2
Fore
SplineSet
255.397460938 122.794921875 m 0
 255.397460938 115.852539062 257.672851562 110.1875 257.672851562 94.986328125 c 0
 257.672851562 40.1611328125 223.498046875 -10.8857421875 186.729492188 -26.2685546875 c 0
 172.293945312 -32.3076171875 162.140625 -46.5712890625 162.140625 -63.1875 c 0
 162.140625 -86.2257318643 181.133990854 -103.217391335 202.201963866 -103.217391335 c 0
 207.27700876 -103.217391335 212.472438035 -102.231406884 217.551757812 -100.106445312 c 0
 285.066456047 -71.8608347507 337.67964948 8.31165099404 337.67964948 94.9323178906 c 0
 337.67964948 106.335076132 336.767908554 117.849575749 334.858398438 129.372070312 c 0
 331.717773438 148.32421875 315.234375 162.794921875 295.397460938 162.794921875 c 0
 273.321289062 162.794921875 255.397460938 144.87109375 255.397460938 122.794921875 c 0
EndSplineSet
EndChar

StartChar: hyphen
Encoding: 45 45 13
Width: 500
Flags: HW
LayerCount: 2
Fore
SplineSet
80.142578125 358.326171875 m 0
 80.142578125 336.218103327 98.1031263464 318.325968545 120.131646327 318.325968545 c 0
 120.663259599 318.325968545 121.197242056 318.336388915 121.733398438 318.357421875 c 0
 179.163725674 320.60836999 378.269613663 321.938053354 380.860351562 322.001953125 c 0
 402.474609375 322.53515625 419.857421875 340.248046875 419.857421875 361.989257812 c 0
 419.857421875 384.07849113 401.919276249 401.989011109 379.862528846 401.989011109 c 0
 379.527450989 401.989011109 379.191422619 401.98487762 378.854492188 401.9765625 c 0
 286.840820312 399.70703125 226.92578125 402.543945312 118.551757812 398.294921875 c 0
 97.2109375 397.458007812 80.142578125 379.870117188 80.142578125 358.326171875 c 0
EndSplineSet
Substitution2: "longhyphen-1" longhyphen
Substitution2: "righthyphen-1" righthyphen
Substitution2: "lefthyphen-1" lefthyphen
EndChar

StartChar: period
Encoding: 46 46 14
Width: 500
Flags: HW
LayerCount: 2
Fore
SplineSet
188.403320312 54.9697265625 m 0
 188.403320312 21.5546875 217.471679688 -8.34765625 251.596679688 -8.34765625 c 0
 287.682353516 -8.34765625 310.912741733 20.8037710378 310.912741733 51.6904036106 c 0
 310.912741733 66.729500092 305.405186831 82.1799860983 293.192382812 94.876953125 c 0
 280.318460294 108.26142059 264.168492925 114.289751349 248.430322847 114.289751349 c 0
 217.628127919 114.289751349 188.403320312 91.1982625683 188.403320312 54.9697265625 c 0
EndSplineSet
EndChar

StartChar: slash
Encoding: 47 47 15
Width: 500
Flags: HW
LayerCount: 2
Fore
SplineSet
432.50390625 670.330078125 m 0
 434.902468192 675.683012472 436.011519336 681.193207201 436.011519336 686.57428859 c 0
 436.011519336 707.599888395 419.079481109 726.654296875 395.98046875 726.654296875 c 0
 379.716796875 726.654296875 365.708007812 716.927734375 359.45703125 702.978515625 c 0
 304.282226562 579.845703125 139.659179688 277.243164062 66.1640625 62.525390625 c 0
 64.6864707877 58.2086139528 63.9940476306 53.8543636995 63.9940476306 49.5960008154 c 0
 63.9940476306 28.4007869424 81.1479073628 9.5810546875 104.01953125 9.5810546875 c 0
 121.56640625 9.5810546875 136.490234375 20.904296875 141.875 36.63671875 c 0
 190.829101562 179.65625 286.880859375 373.55078125 358.713867188 518.16015625 c 0
 389.4140625 579.965820312 415.669921875 632.762695312 432.50390625 670.330078125 c 0
EndSplineSet
EndChar

StartChar: zero
Encoding: 48 48 16
Width: 500
Flags: HW
LayerCount: 2
Fore
SplineSet
254.145507812 -9.970703125 m 0
 417.732617075 -9.970703125 477.772460938 219.782080774 477.772460938 346.956054688 c 0
 477.772460938 429.953388944 466.186242403 557.531039077 419.687711797 646.090331077 c 1
 426.661390299 660.332164165 432.982376459 672.48360443 438.516601562 682.145507812 c 0
 442.152683771 688.493843732 443.812998453 695.237422958 443.812998453 701.821875198 c 0
 443.812998453 722.70279089 427.115547195 741.983398438 403.78125 741.983398438 c 0
 380.094894554 741.983398438 370.670352957 724.895291196 365.125838936 714.842255808 c 1
 341.411351592 733.630207957 312.527362917 745.7421875 278.619140625 745.7421875 c 0
 118.846679688 745.7421875 22.2275390625 501.870117188 22.2275390625 275.33984375 c 0
 22.2275390625 180.195259244 51.4712222653 111.719280604 92.5860863111 65.7409829859 c 1
 87.6393293823 53.5760578687 82.8995497625 41.9972219578 78.3974609375 31.099609375 c 0
 76.3193031313 26.0696445629 75.3544264185 20.9301915067 75.3544264185 15.9095592883 c 0
 75.3544264185 -5.16583119601 92.3566713168 -24.1474609375 115.383789062 -24.1474609375 c 0
 142.238286457 -24.1474609375 150.034767621 -5.13792933322 158.127609266 14.5941941433 c 1
 190.269978845 -2.18681369225 223.96036946 -9.970703125 254.145507812 -9.970703125 c 0
102.227539062 275.33984375 m 0
 102.227539062 473.278320312 184.4296875 665.7421875 278.619140625 665.7421875 c 0
 296.829184585 665.7421875 312.709406246 658.398250743 328.218611127 640.194611238 c 1
 288.979418532 554.869152459 279.989601848 534.022809239 127.967577178 153.663178994 c 1
 112.524160589 183.241883757 102.227539063 222.773602331 102.227539062 275.33984375 c 0
397.772460938 346.956054688 m 0
 397.772460938 258.674186114 356.083585123 70.029296875 254.145507812 70.029296875 c 0
 239.530064439 70.029296875 214.232565592 74.4587485915 188.426299298 89.4050569495 c 1
 338.963458481 464.43270203 338.963458481 464.43270203 373.458220275 544.246267101 c 1
 389.611753138 486.465863466 397.772460937 415.348602736 397.772460938 346.956054688 c 0
EndSplineSet
EndChar

StartChar: one
Encoding: 49 49 17
Width: 500
Flags: HW
LayerCount: 2
Fore
SplineSet
141.602539062 508.80078125 m 0
 155.561221009 508.80078125 170.719073801 508.80078125 224.579101562 595.549804688 c 1
 228.460945701 479.029030838 229.841171438 383.849027645 229.841171438 307.269667239 c 0
 229.841171438 184.485067709 226.292919504 109.518564127 223.818673823 71.075648429 c 1
 189.907847698 71.5851255453 158.645461268 72.0576171875 157.94921875 72.0576171875 c 0
 130.1015625 72.0576171875 104.46484375 71.3623046875 82.0009765625 68.623046875 c 0
 62.2236328125 66.212890625 46.8828125 49.3427734375 46.8828125 28.9189453125 c 0
 46.8828125 6.8427734375 64.806640625 -11.0810546875 86.8828125 -11.0810546875 c 0
 87.59375 -11.0810546875 111.4453125 -7.9423828125 157.94921875 -7.9423828125 c 0
 203.754882812 -7.9423828125 258.021484375 -10.1669921875 309.0078125 -10.1669921875 c 0
 348.662109375 -10.1669921875 386.62109375 -8.97265625 419.477539062 -3.712890625 c 0
 438.536132812 -0.662109375 453.1171875 15.87109375 453.1171875 35.783203125 c 0
 453.1171875 57.859375 435.193359375 75.783203125 413.1171875 75.783203125 c 0
 404.275390625 75.783203125 386.459960938 69.8330078125 309.0078125 69.8330078125 c 0
 308.603566952 69.8330078125 306.841665217 69.8543826098 303.990729253 69.8929417982 c 1
 307.276208387 121.86169978 309.793056621 202.590441187 309.793056621 309.149473171 c 0
 309.793056621 419.019993768 307.117347741 556.351183992 299.849609375 717.931640625 c 0
 298.802578071 741.212952032 279.399196735 756.073988063 259.450472529 756.073988063 c 0
 248.829363717 756.073988063 238.053665722 751.861307285 229.811523438 742.463867188 c 0
 174.467773438 679.36328125 155.366210938 624.188476562 111.779296875 575.446289062 c 0
 104.746923368 567.582213082 101.595318206 558.281660736 101.595318206 549.16283575 c 0
 101.595318206 528.515986347 117.752351582 508.80078125 141.602539062 508.80078125 c 0
EndSplineSet
EndChar

StartChar: two
Encoding: 50 50 18
Width: 500
Flags: HW
LayerCount: 2
Fore
SplineSet
385.44921875 455.952148438 m 0
 398.211250983 493.729114976 403.907121117 528.416781331 403.907121117 559.650270687 c 0
 403.907121117 677.410345653 322.938785034 746.068359375 234.444335938 746.068359375 c 0
 151.006835938 746.068359375 68.283203125 685.536132812 35.626953125 573.356445312 c 0
 34.5338743462 569.6015506 34.0178012526 565.841692672 34.0178012526 562.159888394 c 0
 34.0178012526 540.859125909 51.2912923452 522.170898438 74.0390625 522.170898438 c 0
 92.2333984375 522.170898438 107.607421875 534.344726562 112.451171875 550.985351562 c 0
 137.198242188 635.994140625 191.470703125 666.068359375 234.444335938 666.068359375 c 0
 282.780008732 666.068359375 323.922183026 629.02823015 323.922183026 559.592380466 c 0
 323.922183026 536.962377102 319.552107246 510.89133651 309.63671875 481.540039062 c 0
 258.649414062 330.616210938 112.471679688 171.576171875 47.662109375 49.03515625 c 0
 44.475123125 43.0089884916 43.0139917436 36.6833554792 43.0139917436 30.5076239455 c 0
 43.0139917436 9.58069457409 59.7913457615 -9.625 83.0458984375 -9.625 c 0
 84.2158203125 -9.625 116.896484375 -5.9677734375 200.014648438 -5.9677734375 c 0
 229.690429688 -5.9677734375 260.084960938 -6.2958984375 289.686523438 -6.2958984375 c 0
 341.1640625 -6.2958984375 390.396484375 -5.4736328125 431.67578125 0.4423828125 c 0
 451.048828125 3.21875 465.9609375 19.8994140625 465.9609375 40.0361328125 c 0
 465.9609375 62.1123046875 448.037109375 80.0361328125 425.9609375 80.0361328125 c 0
 414.137695312 80.0361328125 401.848632812 73.7041015625 289.686523438 73.7041015625 c 0
 288.788399106 73.7041015625 245.190621285 73.9804718758 205.618532431 73.9804718758 c 0
 186.242071726 73.9804718758 167.830797368 73.914210211 155.870117188 73.716796875 c 1
 173.083007812 99.8759765625 192.764648438 127.89453125 213.375 157.13671875 c 0
 276.657226562 246.922851562 349.138671875 348.467773438 385.44921875 455.952148438 c 0
EndSplineSet
EndChar

StartChar: three
Encoding: 51 51 19
Width: 500
Flags: HW
LayerCount: 2
Fore
SplineSet
446.334960938 560.681640625 m 0
 446.334960938 662.770318661 359.569339599 748.787559324 258.562016611 748.787559324 c 0
 195.221379229 748.787559324 126.280316407 714.962026756 69.623046875 630.0625 c 0
 64.9901911694 623.120529451 62.8903177593 615.534879752 62.8903177593 608.123086443 c 0
 62.8903177593 587.326894885 79.4218890011 567.899414062 102.91796875 567.899414062 c 0
 116.799804688 567.899414062 129.0390625 574.986328125 136.212890625 585.736328125 c 0
 179.466796875 650.55078125 223.865234375 668.956054688 258.830078125 668.956054688 c 0
 317.888671875 668.956054688 366.334960938 615.263671875 366.334960938 560.681640625 c 0
 366.334960938 531.276411109 350.645958034 461.10451299 209.344726562 425.426757812 c 0
 192.002929688 421.048828125 179.153320312 405.333007812 179.153320312 386.640625 c 0
 179.153320312 364.564453125 197.077148438 346.640625 219.153320312 346.640625 c 0
 224.870117188 346.640625 233 348.620117188 249.001953125 348.620117188 c 0
 351.536843373 348.620117188 391.221581886 257.478327048 391.221581886 184.985983256 c 0
 391.221581886 181.695889726 391.139837915 178.444210958 390.978515625 175.241210938 c 0
 388.036837213 116.847128141 310.721873999 68.4120191898 232.613683231 68.4120191898 c 0
 183.328103276 68.4120191898 133.726699869 87.696451873 102.294921875 135.931640625 c 0
 94.145124531 148.43871529 81.6982951129 154.029231684 69.3490362567 154.029231684 c 0
 48.9199166757 154.029231684 28.7578125 138.730006452 28.7578125 114.134765625 c 0
 28.7578125 106.096679688 31.1337890625 98.6103515625 35.220703125 92.337890625 c 0
 82.7456867478 19.4058986745 158.18841037 -11.4143522243 233.043260057 -11.4143522243 c 0
 349.972342952 -11.4143522243 465.466962664 63.7897223613 470.875 171.159179688 c 0
 471.114704178 175.917005898 471.234259148 180.682808 471.234259148 185.449182643 c 0
 471.234259148 272.473409852 431.380284847 359.68849533 355.2890625 402.03515625 c 1
 388.08984375 424.712890625 446.334960938 476.793945312 446.334960938 560.681640625 c 0
EndSplineSet
EndChar

StartChar: four
Encoding: 52 52 20
Width: 500
Flags: HW
LayerCount: 2
Fore
SplineSet
445.54296875 703.96875 m 0
 445.652426562 705.191028898 445.706048446 706.404174566 445.706048446 707.605827935 c 0
 445.706048446 729.497059355 427.909981212 747.57421875 405.704101562 747.57421875 c 0
 384.842773438 747.57421875 367.690429688 731.5703125 365.865234375 711.1796875 c 0
 358.185349501 625.398421239 352.034555732 529.313793617 346.403680809 430.296090377 c 1
 297.154420735 422.389352895 242.093598718 420.450758778 190.576171875 418.827148438 c 0
 172.091796875 418.245117188 154.069335938 417.697265625 136.768554688 416.826171875 c 1
 142.415763602 493.530812719 146.851611064 513.570968109 179.491210938 661.029296875 c 0
 180.140164317 663.960554179 180.450048405 666.875457615 180.450048405 669.737318437 c 0
 180.450048405 691.21208324 163.001508553 709.700195313 140.435546875 709.700195312 c 0
 121.3359375 709.700195312 105.344726562 696.28515625 101.379882812 678.37109375 c 0
 68.2107284508 528.546374944 58.6304109249 485.272182187 54.3271484375 375.018554688 c 0
 54.3062320816 374.482647768 54.2958723142 373.949089503 54.2958723142 373.418062474 c 0
 54.2958723142 351.21052027 72.4141845193 333.429882491 94.2554113005 333.429882491 c 0
 95.788359502 333.429882491 97.339647055 333.517471223 98.904296875 333.697265625 c 0
 161.314150465 340.869706997 253.500238265 336.709356078 341.888514477 348.709631099 c 1
 340.729313458 327.316062198 339.581285625 305.88038316 338.434570312 284.474609375 c 0
 326.330078125 58.5302734375 323.705078125 28.32421875 323.705078125 25.732421875 c 0
 323.705078125 3.65625 341.62890625 -14.267578125 363.705078125 -14.267578125 c 0
 384.899414062 -14.267578125 402.266601562 2.2529296875 403.620117188 23.107421875 c 0
 404.061949649 29.9146056861 432.443254413 557.626845944 445.54296875 703.96875 c 0
EndSplineSet
EndChar

StartChar: five
Encoding: 53 53 21
Width: 500
Flags: HW
LayerCount: 2
Fore
SplineSet
449.897460938 258.1796875 m 0
 449.897460938 379.344325042 375.773921059 484.418500173 236.927116136 484.418500173 c 0
 208.206658842 484.418500173 176.716893051 479.922700933 142.541015625 470.143554688 c 1
 144.915039062 505.547851562 150.325195312 626.1875 151.93359375 650.735351562 c 1
 280.623046875 655.217773438 341.038085938 657.322265625 427.126953125 665.908203125 c 0
 447.323242188 667.921875 463.116210938 684.985351562 463.116210938 705.708984375 c 0
 463.116210938 727.940773954 445.009229789 745.71173751 423.150074668 745.71173751 c 0
 421.814783297 745.71173751 420.465490627 745.64542487 419.10546875 745.509765625 c 0
 352.296220324 738.846465746 352.296220324 738.846465746 113.50390625 729.373046875 c 0
 93.798828125 728.592773438 77.740234375 713.529296875 75.404296875 694.259765625 c 0
 68.27734375 635.458007812 66.9375 494.204101562 57.439453125 416.296875 c 0
 57.2322076482 414.597169738 57.131794579 412.920899533 57.131794579 411.272735915 c 0
 57.131794579 388.681767795 75.9969019233 371.371325226 97.1963180844 371.371325226 c 0
 102.348468437 371.371325226 107.638494438 372.393764274 112.829101562 374.611328125 c 0
 163.0546875 396.068359375 204.483398438 404.444335938 237.037109375 404.444335938 c 0
 342.153320312 404.444335938 369.897460938 319.263671875 369.897460938 258.1796875 c 0
 369.897460938 175.48659787 318.974989924 69.7898941998 209.7571771 69.7898941998 c 0
 176.926105934 69.7898941998 138.827383598 79.340800798 95.2607421875 101.938476562 c 0
 89.3138119814 105.023119774 83.0877698717 106.438727192 77.0092564379 106.438727192 c 0
 56.0712963215 106.438727192 36.8837890625 89.6423041455 36.8837890625 66.4072265625 c 0
 36.8837890625 50.9541015625 45.666015625 37.5361328125 58.5068359375 30.8759765625 c 0
 113.779654746 2.2060924933 164.691903487 -10.271642816 210.239878211 -10.271642816 c 0
 358.478172477 -10.271642816 449.897460938 121.893961116 449.897460938 258.1796875 c 0
EndSplineSet
EndChar

StartChar: six
Encoding: 54 54 22
Width: 500
Flags: HW
LayerCount: 2
Fore
SplineSet
354.578125 21.2490234375 m 0
 428.042626952 66.5193667372 458.749143886 140.344665616 458.749143886 214.812078931 c 0
 458.749143886 338.169079203 374.488335849 463.288085938 260.748046875 463.288085938 c 0
 214.315429688 463.288085938 168.825195312 442.90234375 126.051757812 401.96484375 c 1
 139.938476562 495.916015625 187.145507812 576.015625 328.686523438 676.125 c 0
 340.341528917 684.368373166 345.54402359 696.361667923 345.54402359 708.237911525 c 0
 345.54402359 728.694452078 330.108625587 748.803710938 305.625976562 748.803710938 c 0
 297.041015625 748.803710938 289.084960938 746.09375 282.565429688 741.482421875 c 0
 87.4609375 603.489257812 41.0654296875 485.952148438 41.0654296875 324.9375 c 0
 41.0654296875 78.3327259526 146.889466787 -9.23202676839 249.884339118 -9.23202676839 c 0
 286.815835452 -9.23202676839 323.383566844 2.0267686203 354.578125 21.2490234375 c 0
260.748046875 383.288085938 m 0
 325.031003832 383.288085938 378.687240742 296.937949197 378.687240742 214.177589813 c 0
 378.687240742 193.419840172 375.311757049 172.887921407 367.881835938 154.000976562 c 0
 349.916916103 108.332746472 300.981620506 70.6177223708 251.365267767 70.6177223708 c 0
 193.885649114 70.6177223708 135.491997969 121.2342645 123.27734375 268.740234375 c 1
 178.13671875 359.985351562 228.095703125 383.288085938 260.748046875 383.288085938 c 0
EndSplineSet
EndChar

StartChar: seven
Encoding: 55 55 23
Width: 500
Flags: HW
LayerCount: 2
Fore
SplineSet
160.174804688 734.594726562 m 0
 114.026367188 734.594726562 79.2236328125 737.494140625 78.4052734375 737.494140625 c 0
 56.3291015625 737.494140625 38.4052734375 719.5703125 38.4052734375 697.494140625 c 0
 38.4052734375 676.43359375 54.7177734375 659.15234375 75.3857421875 657.606445312 c 0
 100.048059531 655.762134805 113.937726084 654.723430388 140.743684926 654.723430388 c 0
 175.305821693 654.723430388 231.340148403 656.450184323 359.622070312 660.403320312 c 1
 289.755859375 496.241210938 173.97265625 191.002929688 137.073242188 40.8095703125 c 0
 136.280824563 37.5840057361 135.903986667 34.3700851118 135.903986667 31.2179410434 c 0
 135.903986667 9.80743863618 153.289846333 -8.7529296875 175.920898438 -8.7529296875 c 0
 194.702148438 -8.7529296875 210.477539062 4.21875 214.768554688 21.6845703125 c 0
 253.763671875 180.407226562 398.376953125 555.171875 457.990234375 685.450195312 c 0
 460.478327488 690.887775206 461.627537436 696.49699501 461.627537436 701.974400025 c 0
 461.627537436 722.987453421 444.714251355 742.060546875 421.596679688 742.060546875 c 0
 383.139648438 742.060546875 223.909179688 734.594726562 160.174804688 734.594726562 c 0
EndSplineSet
EndChar

StartChar: eight
Encoding: 56 56 24
Width: 500
Flags: HW
LayerCount: 2
Fore
SplineSet
195.935546875 468.3515625 m 1
 168.66796875 491.84765625 124.109375 536.77734375 124.109375 579.48046875 c 0
 124.109375 597.373046875 131.159179688 617.192382812 159.256835938 641.03125 c 0
 176.145647053 655.358846469 197.649259028 665.39893803 224.751342627 665.39893803 c 0
 252.304311345 665.39893803 285.643579688 655.022002692 325.802734375 628.223632812 c 1
 274.672851562 570.306640625 231.708984375 517.146484375 195.935546875 468.3515625 c 1
416.810546875 708.928710938 m 0
 399.350954578 708.928710938 391.64240612 700.621878102 380.00390625 688.080078125 c 1
 329.529296875 724.08203125 277.030273438 745.451171875 224.22265625 745.451171875 c 0
 181.986328125 745.451171875 141.463867188 730.829101562 107.547851562 702.0546875 c 0
 68.4249759771 668.862959313 44.1156878599 626.764444929 44.1156878599 579.144668879 c 0
 44.1156878599 525.550284784 74.9075612568 464.962277947 150.028320312 402.20703125 c 1
 78.5400390625 292.654296875 43.302734375 202.78515625 43.302734375 131.432617188 c 0
 43.302734375 44.8828125 99.13671875 -14.7421875 190.0390625 -14.7421875 c 0
 230.868164062 -14.7421875 272.86328125 -2.86328125 311.428710938 17.955078125 c 0
 391.129682448 60.9780044022 433.499614267 124.791740227 433.499614267 193.105918393 c 0
 433.499614267 267.641336555 383.061196594 347.534214141 275.639648438 411.625976562 c 0
 270.528320312 414.674804688 265.465820312 417.7890625 260.46484375 420.9609375 c 1
 307.501953125 485.112304688 368.498046875 558.537109375 446.056640625 641.651367188 c 0
 453.486404679 649.613376406 456.812221301 659.169468296 456.812221301 668.545712055 c 0
 456.812221301 689.172399727 440.716905367 708.928710938 416.810546875 708.928710938 c 0
234.735351562 342.874023438 m 0
 305.664166311 300.555525937 353.257629359 245.522195411 353.257629359 192.507584903 c 0
 353.257629359 155.06953817 329.522996367 118.63821748 273.510742188 88.40234375 c 0
 252.498135131 77.0595935224 218.359879569 64.9549916489 187.934545711 64.9549916489 c 0
 153.198918565 64.9549916489 123.302734375 80.7321975648 123.302734375 131.432617188 c 0
 123.302734375 201.616210938 177.276367188 297.138671875 214.879882812 355.120117188 c 1
 221.438476562 350.936523438 228.064453125 346.854492188 234.735351562 342.874023438 c 0
EndSplineSet
EndChar

StartChar: nine
Encoding: 57 57 25
Width: 500
Flags: HW
LayerCount: 2
Fore
SplineSet
135.966796875 550.00390625 m 0
 135.966796875 618.917571902 177.358745676 667.936552681 240.794272531 667.936552681 c 0
 274.7491288 667.936552681 315.019674704 653.892159883 358.638671875 621.336914062 c 1
 347.185546875 568.028320312 317.623046875 463.005859375 258.516601562 435.967773438 c 0
 249.909130735 432.030454354 241.204420141 430.225673843 232.614099903 430.225673843 c 0
 182.330750588 430.225673843 135.966796875 492.063480898 135.966796875 550.00390625 c 0
55.966796875 550.00390625 m 0
 55.966796875 442.980712745 140.499374918 350.114360988 233.035659493 350.114360988 c 0
 259.60912445 350.114360988 286.842619006 357.772630415 312.923828125 374.953125 c 1
 292.473632812 255.583984375 272.14453125 124.866210938 261.420898438 36.1796875 c 0
 261.222142847 34.5361575017 261.125416574 32.9065017152 261.125416574 31.2965916273 c 0
 261.125416574 9.50840766051 278.842134934 -8.6630859375 301.129882812 -8.6630859375 c 0
 321.567382812 -8.6630859375 338.4453125 6.697265625 340.838867188 26.494140625 c 0
 361.638671875 198.502929688 423.036132812 550.466796875 442.745117188 626.0703125 c 0
 443.110427132 627.472410294 443.950618734 631.236664801 443.950618734 636.21121898 c 0
 443.950618734 644.707736849 441.499569946 656.735001205 430.044921875 666.553710938 c 0
 363.351057257 723.722409772 297.692949851 747.997211533 240.454807208 747.997211533 c 0
 133.515246683 747.997211533 55.966796875 663.262488019 55.966796875 550.00390625 c 0
EndSplineSet
EndChar

StartChar: colon
Encoding: 58 58 26
Width: 500
Flags: HW
LayerCount: 2
Fore
SplineSet
188.403320312 581.01171875 m 0
 188.403320312 547.596679688 217.471679688 517.694335938 251.596679688 517.694335938 c 0
 287.682353516 517.694335938 310.912741733 546.845763225 310.912741733 577.732395798 c 0
 310.912741733 592.771492279 305.405186831 608.221978286 293.192382812 620.918945312 c 0
 280.318460294 634.303412778 264.168492925 640.331743537 248.430322847 640.331743537 c 0
 217.628127919 640.331743537 188.403320312 617.240254756 188.403320312 581.01171875 c 0
188.403320312 161.01171875 m 0
 188.403320312 127.596679688 217.471679688 97.6943359375 251.596679688 97.6943359375 c 0
 287.682353516 97.6943359375 310.912741733 126.845763225 310.912741733 157.732395798 c 0
 310.912741733 172.771492279 305.405186831 188.221978286 293.192382812 200.918945312 c 0
 280.318460294 214.303412778 264.168492925 220.331743537 248.430322847 220.331743537 c 0
 217.628127919 220.331743537 188.403320312 197.240254756 188.403320312 161.01171875 c 0
EndSplineSet
EndChar

StartChar: semicolon
Encoding: 59 59 27
Width: 500
Flags: HW
LayerCount: 2
Fore
SplineSet
219.818359375 137.749023438 m 0
 219.818359375 130.806640625 222.09375 125.141601562 222.09375 109.939453125 c 0
 222.09375 55.1142578125 187.918945312 4.068359375 151.149414062 -11.314453125 c 0
 136.713867188 -17.353515625 126.560546875 -31.6171875 126.560546875 -48.2333984375 c 0
 126.560546875 -71.2716303018 145.553278518 -88.2632897721 166.62151639 -88.2632897721 c 0
 171.696625086 -88.2632897721 176.892170333 -87.2773053217 181.971679688 -85.15234375 c 0
 249.488004995 -56.9067745427 302.100581413 23.2655177949 302.100581413 109.886038988 c 0
 302.100581413 121.288921565 301.188828229 132.803549159 299.279296875 144.326171875 c 0
 296.138671875 163.278320312 279.655273438 177.749023438 259.818359375 177.749023438 c 0
 237.7421875 177.749023438 219.818359375 159.825195312 219.818359375 137.749023438 c 0
188.403320312 581.01171875 m 0
 188.403320312 547.596679688 217.471679688 517.694335938 251.596679688 517.694335938 c 0
 287.682353516 517.694335938 310.912741733 546.845763225 310.912741733 577.732395798 c 0
 310.912741733 592.771492279 305.405186831 608.221978286 293.192382812 620.918945312 c 0
 280.318460294 634.303412778 264.168492925 640.331743537 248.430322847 640.331743537 c 0
 217.628127919 640.331743537 188.403320312 617.240254756 188.403320312 581.01171875 c 0
EndSplineSet
EndChar

StartChar: less
Encoding: 60 60 28
Width: 500
Flags: HW
LayerCount: 2
Fore
SplineSet
346.095703125 175.002929688 m 0
 351.159986777 172.892212795 356.338362923 171.912647764 361.39683609 171.912647764 c 0
 382.466553542 171.912647764 401.456054688 188.907280949 401.456054688 211.942382812 c 0
 401.456054688 228.578125 391.279296875 242.854492188 376.81640625 248.881835938 c 0
 327.497070312 269.436523438 271.557617188 310.669921875 199.344726562 371.98828125 c 1
 261.00390625 417.584960938 336.764648438 472.116210938 383.834960938 497.815429688 c 0
 396.267578125 504.602539062 404.708984375 517.797851562 404.708984375 532.948242188 c 0
 404.708984375 556.233687652 385.4735153 572.980016828 364.565409441 572.980016828 c 0
 358.22860302 572.980016828 351.73815347 571.441751951 345.583007812 568.081054688 c 0
 286.876953125 536.029296875 211.99609375 481.341796875 111.401367188 406.276367188 c 0
 100.717087498 398.303531992 95.302290567 386.255774509 95.302290567 374.177993023 c 0
 95.302290567 363.031272318 99.9144262697 351.858978211 109.252929688 343.840820312 c 0
 190.631835938 273.96875 267.978515625 207.55859375 346.095703125 175.002929688 c 0
EndSplineSet
Substitution2: "leftarrowhead-1" leftarrowhead
EndChar

StartChar: equal
Encoding: 61 61 29
Width: 500
Flags: HW
LayerCount: 2
Fore
SplineSet
80.142578125 295.286132812 m 0
 80.142578125 273.178456462 98.1040384819 255.285996857 120.133324407 255.285996857 c 0
 120.664383302 255.285996857 121.197806194 255.296394971 121.733398438 255.317382812 c 0
 179.17851696 257.569813803 378.269613663 258.898014291 380.860351562 258.961914062 c 0
 402.474609375 259.495117188 419.857421875 277.208007812 419.857421875 298.94921875 c 0
 419.857421875 321.039027662 401.918341383 338.949905457 379.860804593 338.949905457 c 0
 379.52629823 338.949905457 379.190844694 338.945786269 378.854492188 338.9375 c 0
 286.840820312 336.66796875 226.92578125 339.50390625 118.551757812 335.255859375 c 0
 97.2109375 334.418945312 80.142578125 316.830078125 80.142578125 295.286132812 c 0
80.142578125 437.286132812 m 0
 80.142578125 415.178456462 98.1040384819 397.285996857 120.133324407 397.285996857 c 0
 120.664383302 397.285996857 121.197806194 397.296394971 121.733398438 397.317382812 c 0
 179.17851696 399.569813803 378.269613663 400.898014291 380.860351562 400.961914062 c 0
 402.474609375 401.495117188 419.857421875 419.208007812 419.857421875 440.94921875 c 0
 419.857421875 463.039027662 401.918341383 480.949905457 379.860804593 480.949905457 c 0
 379.52629823 480.949905457 379.190844694 480.945786269 378.854492188 480.9375 c 0
 286.840820312 478.66796875 226.92578125 481.50390625 118.551757812 477.255859375 c 0
 97.2109375 476.418945312 80.142578125 458.830078125 80.142578125 437.286132812 c 0
EndSplineSet
Substitution2: "longequal-1" longequal
Substitution2: "rightequal-1" rightequal
Substitution2: "leftequal-1" leftequal
EndChar

StartChar: greater
Encoding: 62 62 30
Width: 500
Flags: HW
LayerCount: 2
Fore
SplineSet
96.5439453125 194.87109375 m 0
 96.5439453125 171.53990906 115.82212422 154.839536368 136.704629828 154.839536368 c 0
 143.274018204 154.839536368 150.00217988 156.492300294 156.338867188 160.111328125 c 0
 223.1015625 198.2421875 300.051757812 276.124023438 385.1171875 326.72265625 c 0
 398.068906068 334.426810168 404.676118666 347.775981135 404.676118666 361.165575087 c 0
 404.676118666 373.388985211 399.169712607 385.646083575 387.95703125 393.672851562 c 0
 218.206546524 515.193253755 208.031813345 522.477107289 156.022460938 554.083984375 c 0
 149.439050081 558.084922786 142.3751012 559.906476366 135.476541729 559.906476366 c 0
 114.629056066 559.906476366 95.2919921875 543.271105295 95.2919921875 519.875976562 c 0
 95.2919921875 505.38671875 103.012695312 492.686523438 114.561523438 485.66796875 c 0
 165.396484375 454.7734375 236.087890625 404.395507812 294.073242188 362.670898438 c 1
 227.141601562 315.265625 162.182617188 255.580078125 116.749023438 229.630859375 c 0
 104.68359375 222.739257812 96.5439453125 209.748046875 96.5439453125 194.87109375 c 0
EndSplineSet
Substitution2: "rightarrowhead-1" rightarrowhead
EndChar

StartChar: question
Encoding: 63 63 31
Width: 500
Flags: HW
LayerCount: 2
Fore
SplineSet
287.641601562 92.9580078125 m 0
 275.287712384 106.702248387 259.378551889 112.8349415 243.713007529 112.8349415 c 0
 212.88982319 112.8349415 183.009765625 89.0930531495 183.009765625 52.8740234375 c 0
 183.009765625 36.7744140625 189.086914062 18.4384765625 209.392578125 2.0986328125 c 0
 220.758293249 -7.04733812323 233.766765812 -11.1605314292 246.500903621 -11.1605314292 c 0
 277.548770549 -11.1605314292 306.965820312 13.2908593186 306.965820312 48.865234375 c 0
 306.965820312 66.291015625 299.520507812 81.9921875 287.641601562 92.9580078125 c 0
406.243164062 414.967773438 m 0
 440.548606001 456.534884798 455.234924183 499.146804796 455.234924183 538.894818168 c 0
 455.234924183 639.826649053 360.537453104 722.291992188 251.909179688 722.291992188 c 0
 214.612279536 722.291992188 92.8317518107 709.430107415 46.5810546875 546.504882812 c 0
 45.5383771001 542.832237203 45.0455527907 539.157961675 45.0455527907 535.559149364 c 0
 45.0455527907 514.242372534 62.3364211329 495.573242188 85.06640625 495.573242188 c 0
 103.353515625 495.573242188 118.791015625 507.872070312 123.551757812 524.641601562 c 0
 135.405273438 566.396484375 168.432617188 642.291992188 251.909179688 642.291992188 c 0
 308.561246997 642.291992188 375.212526824 600.342865134 375.212526824 539.418496883 c 0
 375.212526824 517.067673291 366.242092195 492.163017857 344.516601562 465.838867188 c 0
 329.692382812 447.875976562 289.084960938 416.411132812 256.881835938 374.234375 c 0
 233.001529704 342.958015728 208.491090886 298.9908798 208.491090886 243.551874445 c 0
 208.491090886 236.953254802 208.838328224 230.192114145 209.575195312 223.270507812 c 0
 211.7109375 203.201171875 228.715820312 187.545898438 249.348632812 187.545898438 c 0
 271.424804688 187.545898438 289.348632812 205.469726562 289.348632812 227.545898438 c 0
 289.348632812 231.948242188 288.493164062 235.09375 288.493164062 243.536132812 c 0
 288.493164062 300.326171875 333.965820312 344.341796875 373.428710938 381.634765625 c 0
 385.336914062 392.888671875 396.508789062 403.172851562 406.243164062 414.967773438 c 0
EndSplineSet
EndChar

StartChar: at
Encoding: 64 64 32
Width: 500
Flags: HW
LayerCount: 2
Fore
SplineSet
300.59765625 261.829101562 m 1
 312.082782319 246.236893667 332.243418589 233.367031602 354.375415227 233.367031602 c 0
 380.205502145 233.367031602 408.720788609 250.897133331 429.263671875 302.088867188 c 0
 438.517578125 325.149414062 455.08984375 377.118164062 455.08984375 444.092773438 c 0
 455.08984375 569.665039062 403.873046875 711.453125 300.174804688 711.453125 c 0
 141.3984375 711.453125 44.880859375 478.123046875 44.880859375 313.424804688 c 0
 44.880859375 133.798026332 112.048430278 27.1314399734 208.070014814 27.1314399734 c 0
 237.959057914 27.1314399734 270.643813579 37.4665399575 304.96875 59.1533203125 c 0
 317.793900134 67.2562875911 323.530517839 79.8708192272 323.530517839 92.3953179699 c 0
 323.530517839 112.814381904 308.282729319 132.994140625 283.645507812 132.994140625 c 0
 263.406688613 132.994140625 236.781176383 106.854898758 208.633434472 106.854898758 c 0
 195.870551896 106.854898758 182.794708037 112.228969932 169.859375 127.850585938 c 0
 143.237304688 160 124.880859375 228.0078125 124.880859375 313.424804688 c 0
 124.880859375 448.04296875 203.861328125 631.453125 300.174804688 631.453125 c 0
 338.819307043 631.453125 374.814336168 540.08798704 374.814336168 444.484848536 c 0
 374.814336168 406.994049681 369.278953892 368.85152325 356.197265625 335.311523438 c 1
 345.492798153 385.172348067 350.110000553 441.205483784 343.591796875 457.9609375 c 0
 336.633789062 475.849609375 323.319335938 510.083007812 276.251953125 510.083007812 c 0
 214.360351562 510.083007812 157.235351562 428.490234375 157.235351562 331.44140625 c 0
 157.235351562 260.416992188 196.892578125 221.984375 231.795898438 221.984375 c 0
 264.389648438 221.984375 286.337890625 241.509765625 300.59765625 261.829101562 c 1
238.818359375 314.076171875 m 1
 237.744049137 319.357307042 237.203142303 325.5315464 237.203142303 332.253484765 c 0
 237.203142303 359.944939932 246.382767993 396.931289448 265.266601562 419.064453125 c 1
 263.358398438 397.688476562 257.134765625 347.993164062 238.818359375 314.076171875 c 1
EndSplineSet
EndChar

StartChar: A
Encoding: 65 65 33
Width: 500
Flags: HW
LayerCount: 2
Fore
SplineSet
19.796875 34.1650390625 m 0
 19.495651594 32.1474443637 19.3498913698 30.147090207 19.3498913698 28.175110393 c 0
 19.3498913698 6.479708893 36.9927714053 -11.78125 59.357421875 -11.78125 c 0
 79.4130859375 -11.78125 96.0419921875 3.01171875 98.91796875 22.2724609375 c 0
 104.883414349 62.2297828754 127.525076854 148.458636251 157.633458914 251.64402637 c 1
 194.376334985 249.715403843 243.942904009 248.766690608 289.946484137 248.766690608 c 0
 310.77936362 248.766690608 330.881558745 248.961249149 348.731246899 249.347469069 c 1
 371.754749563 153.055613772 391.436479337 67.987227472 403.329101562 24.7607421875 c 0
 407.986328125 7.83203125 423.500976562 -4.6181640625 441.901367188 -4.6181640625 c 0
 464.609244115 -4.6181640625 481.921258778 14.0269370211 481.921258778 35.3645210079 c 0
 481.921258778 38.8617411983 481.456205106 42.431289716 480.473632812 46.0029296875 c 0
 469.463867188 86.0205078125 454.982421875 147.366210938 438.413085938 217.666992188 c 0
 399.470703125 382.890625 349.547851562 596.73046875 298.227539062 721.372070312 c 0
 291.432300868 737.876089341 276.346454872 746.02536656 261.271893572 746.02536656 c 0
 245.555312852 746.02536656 229.850998521 737.167158796 223.567382812 719.68359375 c 0
 200.091970407 654.365227485 146.446079607 494.948522041 91.7696081517 311.365953965 c 0
 90.5167441324 308.790614394 31.1574765896 110.249818774 19.796875 34.1650390625 c 0
329.481242855 329.022770878 m 1
 318.613848846 328.873413241 306.010790599 328.7734375 291.717773438 328.7734375 c 0
 244.052610781 328.7734375 207.524451108 329.706507517 181.174861661 330.776918956 c 1
 206.307594697 413.788436375 234.409151497 502.355283595 261.497070312 583.80078125 c 1
 283.739455241 511.265283399 307.474952617 418.944410823 329.481242855 329.022770878 c 1
EndSplineSet
EndChar

StartChar: B
Encoding: 66 66 34
Width: 500
Flags: HW
LayerCount: 2
Fore
SplineSet
227.717773438 353.390625 m 0
 324.220703125 353.390625 367.76171875 300.178710938 367.76171875 237.776367188 c 0
 367.76171875 161.418306427 300.134679268 69.3513953333 160.172705731 69.3513953333 c 0
 152.491158227 69.3513953333 144.591726685 69.6287151463 136.473632812 70.201171875 c 1
 141.405434538 124.934189051 143.431877341 196.312291954 143.431877341 304.421171394 c 0
 143.431877341 315.827570744 143.409318916 327.642858242 143.365234375 339.890625 c 1
 156.052734375 342.788085938 168.208007812 345.979492188 179.846679688 349.450195312 c 0
 197.228515625 352.158203125 213.190429688 353.390625 227.717773438 353.390625 c 0
140.028320312 655.912109375 m 1
 159.792859025 663.593734692 178.587599848 667.007718964 195.963357822 667.007718964 c 0
 262.283430749 667.007718964 307.931640625 617.272505204 307.931640625 565.268554688 c 0
 307.931640625 504.539326723 245.363601729 445.537303019 142.8046875 423.993164062 c 1
 142.229492188 487.009765625 141.438476562 547.729492188 140.028320312 655.912109375 c 1
85.5107421875 -4.1142578125 m 0
 111.90571309 -8.6045744767 136.949833419 -10.7053824024 160.612237318 -10.7053824024 c 0
 346.853210538 -10.7053824024 447.498540378 119.437099802 447.498540378 238.956276651 c 0
 447.498540378 316.582948006 405.042413887 389.728294727 316.006835938 419.825195312 c 1
 366.252129185 463.5664506 387.904278009 515.565679613 387.904278009 565.089120954 c 0
 387.904278009 660.653039887 307.279733456 746.998046875 195.904296875 746.998046875 c 0
 158.90625 746.998046875 119.85546875 737.330078125 80.966796875 716.66796875 c 0
 77.3158219316 714.727238303 59.6925404542 704.182624823 59.6925404542 681.368483922 c 0
 59.6925404542 681.17686081 59.6937837495 680.984372102 59.6962890625 680.791015625 c 0
 61.7888906327 520.278751991 63.3899411159 397.470250178 63.3899411159 301.73467595 c 0
 63.3899411159 176.317654032 60.6422285429 97.3630168381 52.65234375 40.9697265625 c 0
 52.3813444598 39.0563855421 52.2498983405 37.1580283167 52.2498983405 35.2844184688 c 0
 52.2498983405 15.8902754956 66.3340480793 -0.852242835334 85.5107421875 -4.1142578125 c 0
EndSplineSet
EndChar

StartChar: C
Encoding: 67 67 35
Width: 500
Flags: HW
LayerCount: 2
Fore
SplineSet
109.26953125 297.094726562 m 0
 109.26953125 500.159179688 222.083007812 664.991210938 311.075195312 664.991210938 c 0
 332.029296875 664.991210938 354.465820312 656.485351562 378.89453125 628.830078125 c 0
 387.145155152 619.489642897 397.854019304 615.322586362 408.403083917 615.322586362 c 0
 428.944436676 615.322586362 448.879882812 631.12267668 448.879882812 655.29296875 c 0
 448.879882812 665.435546875 445.096679688 674.701171875 438.865234375 681.755859375 c 0
 402.586914062 722.826171875 357.875976562 744.991210938 311.075195312 744.991210938 c 0
 163.497070312 744.991210938 29.26953125 532.958984375 29.26953125 297.094726562 c 0
 29.26953125 104.113806615 135.056000988 -9.0125434456 247.969673179 -9.0125434456 c 0
 330.274628349 -9.0125434456 416.366432599 51.0941277817 468.03515625 184.193359375 c 0
 469.893481851 188.98083704 470.758992034 193.848664254 470.758992034 198.605461345 c 0
 470.758992034 219.720855296 453.704401126 238.6484375 430.73046875 238.6484375 c 0
 413.75 238.6484375 399.2265625 228.044921875 393.42578125 213.103515625 c 0
 351.6640625 105.521484375 292.432617188 71.09375 248.127929688 71.09375 c 0
 177.7734375 71.09375 109.26953125 155.529296875 109.26953125 297.094726562 c 0
EndSplineSet
EndChar

StartChar: D
Encoding: 68 68 36
Width: 500
Flags: HW
LayerCount: 2
Fore
SplineSet
298.284179688 638.303710938 m 0
 343.366753192 593.720603359 366.126243362 508.124931784 366.126243362 416.640961792 c 0
 366.126243362 252.866660566 293.186533073 70.2215156882 144.803346128 70.2215156882 c 0
 141.246884297 70.2215156882 137.647082496 70.3264397386 134.00390625 70.5390625 c 1
 133.760722452 81.2601098413 133.571738002 91.4757820751 133.571738002 103.499381943 c 0
 133.571738002 143.573819851 135.671122184 203.7321042 144.860351562 369.625 c 0
 149.270507812 449.240234375 154.428710938 542.35546875 159.23828125 652.3125 c 1
 185.908759022 664.139745568 208.1498757 668.598578946 226.648226721 668.598578946 c 0
 263.71015071 668.598578946 285.748180195 650.700305738 298.284179688 638.303710938 c 0
446.342773438 416.356445312 m 0
 446.342773438 607.470306797 361.777268209 748.646991954 226.805528432 748.646991954 c 0
 188.727746593 748.646991954 146.638140991 737.41076323 101.303710938 712.889648438 c 0
 89.2685546875 706.379882812 80.94140625 693.879882812 80.328125 679.3984375 c 0
 75.2607421875 559.649414062 69.70703125 459.3671875 64.984375 374.112304688 c 0
 58.5033288892 257.110137039 53.6862103189 169.938447036 53.6862103189 99.2887574247 c 0
 53.6862103189 75.4917611253 54.2327366694 53.5692689397 55.4462890625 33.0126953125 c 0
 56.5244140625 14.74609375 69.884765625 -0.240234375 87.3779296875 -3.796875 c 0
 107.477882625 -7.88274822319 126.817004064 -9.83419625626 145.37381529 -9.83419625626 c 0
 338.010498516 -9.83419625626 446.342773438 200.460478394 446.342773438 416.356445312 c 0
EndSplineSet
EndChar

StartChar: E
Encoding: 69 69 37
Width: 500
Flags: HW
LayerCount: 2
Fore
SplineSet
235.809570312 345.625976562 m 1
 257.385742188 345.625976562 272.975585938 344.615234375 273.3515625 344.615234375 c 0
 295.427734375 344.615234375 313.3515625 362.5390625 313.3515625 384.615234375 c 0
 313.3515625 405.833984375 296.79296875 423.216796875 275.904296875 424.53515625 c 0
 263.852302743 425.295652846 250.488482889 425.649435172 235.671264655 425.649435172 c 0
 207.506126834 425.649435172 174.089589272 424.371153565 134.44931903 422.178131392 c 1
 134.045634618 446.125781629 133.804511248 469.898639126 133.804511248 493.184951141 c 0
 133.804511248 555.911393969 135.554112974 615.107441469 140.588867188 664.6796875 c 1
 149.649040784 665.147827085 158.429684276 665.348439811 166.99238975 665.348439811 c 0
 218.33543351 665.348439811 261.842842114 658.135709598 310.792740116 658.135709598 c 0
 336.136844144 658.135709598 362.939923322 660.069235484 393.044921875 665.938476562 c 0
 411.450195312 669.526367188 425.359375 685.750976562 425.359375 705.19921875 c 0
 425.359375 727.275390625 407.435546875 745.19921875 385.359375 745.19921875 c 0
 375.41796875 745.19921875 355.506835938 738.135742188 310.495117188 738.135742188 c 0
 265.840193031 738.135742188 222.168209479 745.357768935 167.246905793 745.357768935 c 0
 146.710429773 745.357768935 124.601070655 744.347983129 100.279296875 741.573242188 c 0
 82.2861328125 739.521484375 67.90234375 725.509765625 65.28125 707.694335938 c 0
 56.8086088547 650.092646907 53.7732999149 580.736855614 53.7732999149 497.938781256 c 0
 53.7732999149 427.861715264 55.9475737958 348.155578377 58.83984375 257.796875 c 0
 60.9453125 192.0234375 62.8916015625 130.846679688 62.8916015625 81.79296875 c 0
 62.8916015625 48.595703125 61.8623046875 28.787109375 61.8623046875 28.251953125 c 0
 61.8623046875 6.17578125 79.7861328125 -11.748046875 101.862304688 -11.748046875 c 0
 109.013671875 -11.748046875 141.203125 -6.2021484375 193.780273438 -6.2021484375 c 0
 230.858398438 -6.2021484375 260.9765625 -8.9140625 294.12890625 -8.9140625 c 0
 329.495117188 -8.9140625 368.302734375 -5.5615234375 417.366210938 6.9755859375 c 0
 434.651367188 11.392578125 447.447265625 27.0810546875 447.447265625 45.734375 c 0
 447.447265625 67.810546875 429.5234375 85.734375 407.447265625 85.734375 c 0
 392.31640625 85.734375 362.864257812 71.0859375 294.12890625 71.0859375 c 0
 263.476965565 71.0859375 232.85652127 73.7986266444 193.869272353 73.7986266444 c 0
 178.367062707 73.7986266444 161.542030305 73.3697404573 142.866210938 72.1708984375 c 1
 142.882235267 75.2235623673 142.890019578 78.3241069902 142.890019578 81.47072396 c 0
 142.890019578 152.006448833 138.978453298 245.693231639 136.288440779 342.161713086 c 1
 164.727143508 343.766793789 203.517037497 345.625976562 235.809570312 345.625976562 c 1
EndSplineSet
EndChar

StartChar: F
Encoding: 70 70 38
Width: 500
Flags: HW
LayerCount: 2
Fore
SplineSet
235.809570312 345.625976562 m 1
 257.385742188 345.625976562 272.975585938 344.615234375 273.3515625 344.615234375 c 0
 295.427734375 344.615234375 313.3515625 362.5390625 313.3515625 384.615234375 c 0
 313.3515625 405.833984375 296.79296875 423.216796875 275.904296875 424.53515625 c 0
 263.852302743 425.295652846 250.488482889 425.649435172 235.671264655 425.649435172 c 0
 207.499207386 425.649435172 174.073169791 424.370525406 134.420102124 422.176514919 c 1
 134.006152537 446.207007137 133.758385356 470.064042889 133.758385356 493.447123904 c 0
 133.758385356 555.79254936 135.519750898 614.768652295 140.588867188 664.6796875 c 1
 149.649040784 665.147827085 158.429684276 665.348439811 166.99238975 665.348439811 c 0
 218.33543351 665.348439811 261.842842114 658.135709598 310.792740116 658.135709598 c 0
 336.136844144 658.135709598 362.939923322 660.069235484 393.044921875 665.938476562 c 0
 411.450195312 669.526367188 425.359375 685.750976562 425.359375 705.19921875 c 0
 425.359375 727.275390625 407.435546875 745.19921875 385.359375 745.19921875 c 0
 375.41796875 745.19921875 355.506835938 738.135742188 310.495117188 738.135742188 c 0
 265.840193031 738.135742188 222.168209479 745.357768935 167.246905793 745.357768935 c 0
 146.710429773 745.357768935 124.601070655 744.347983129 100.279296875 741.573242188 c 0
 82.2861328125 739.521484375 67.90234375 725.509765625 65.28125 707.694335938 c 0
 56.8086088547 650.092646907 53.7732999149 580.736855614 53.7732999149 497.938781256 c 0
 53.7732999149 427.861715264 55.9475737958 348.155578377 58.83984375 257.796875 c 0
 60.9453125 192.0234375 62.8916015625 130.846679688 62.8916015625 81.79296875 c 0
 62.8916015625 48.595703125 61.8623046875 28.787109375 61.8623046875 28.251953125 c 0
 61.8623046875 6.17578125 79.7861328125 -11.748046875 101.862304688 -11.748046875 c 0
 123.31640625 -11.748046875 140.848632812 5.1796875 141.8203125 26.3955078125 c 0
 142.579263085 42.9765057767 142.898951723 61.7413856757 142.898951723 82.2497274286 c 0
 142.898951723 153.87514486 138.999527888 246.766556431 136.294506214 342.162055414 c 1
 164.732658764 343.767058125 203.519333232 345.625976562 235.809570312 345.625976562 c 1
EndSplineSet
EndChar

StartChar: G
Encoding: 71 71 39
Width: 500
Flags: HW
LayerCount: 2
Fore
SplineSet
208.176757812 361.359375 m 0
 208.176757812 320.688476562 249.211447749 320.688476562 268.975585938 320.688476562 c 0
 304.198242188 320.688476562 333.704101562 324.5234375 380.624023438 326.985351562 c 1
 382.200809706 313.656761374 382.991249222 299.758810001 382.991249222 285.625301021 c 0
 382.991249222 183.145897426 341.434475502 68.2822265625 256.760742188 68.2822265625 c 0
 185.7890625 68.2822265625 116.727539062 153.103515625 116.727539062 295.439453125 c 0
 116.727539062 499.38671875 230.284179688 665.111328125 320.12109375 665.111328125 c 0
 341.329101562 665.111328125 363.994140625 656.5078125 388.610351562 628.701171875 c 0
 396.859612616 619.382556036 407.555878813 615.225188318 418.091907267 615.225188318 c 0
 438.63420947 615.225188318 458.567382812 631.029034631 458.567382812 655.196289062 c 0
 458.567382812 665.354492188 454.772460938 674.633789062 448.524414062 681.69140625 c 0
 412.036132812 722.909179688 367.112304688 745.111328125 320.12109375 745.111328125 c 0
 171.797851562 745.111328125 36.7275390625 532.283203125 36.7275390625 295.439453125 c 0
 36.7275390625 103.05078125 141.829101562 -11.7177734375 256.760742188 -11.7177734375 c 0
 394.087782342 -11.7177734375 463.173769227 140.735936114 463.173769227 284.734197461 c 0
 463.173769227 316.559300467 459.799225152 347.971392326 453.041015625 377.233398438 c 0
 448.9453125 394.969726562 433.0390625 408.208984375 414.065429688 408.208984375 c 0
 374.19921875 408.208984375 303.767578125 400.688476562 268.975585938 400.688476562 c 0
 259.399414062 400.688476562 248.384765625 401.359375 248.176757812 401.359375 c 0
 226.100585938 401.359375 208.176757812 383.435546875 208.176757812 361.359375 c 0
EndSplineSet
EndChar

StartChar: H
Encoding: 72 72 40
Width: 500
Flags: HW
LayerCount: 2
Fore
SplineSet
374.423828125 674.54296875 m 0
 374.423828125 655.719063875 374.423828125 655.719063875 368.668128166 420.993533694 c 1
 351.664348102 422.202396488 335.687361066 422.688299174 320.436534711 422.688299174 c 0
 257.916514071 422.688299174 207.599987729 414.522460938 148.775390625 414.522460938 c 0
 142.713875105 414.522460938 136.69676884 414.624879257 130.961016776 414.787248901 c 1
 132.98514372 521.555118839 135.753214437 626.113303759 139.784179688 701.168945312 c 0
 139.823636687 701.903488558 139.843120245 702.634166234 139.843120245 703.360474932 c 0
 139.843120245 725.356048346 121.974280797 743.344726562 99.8427734375 743.344726562 c 0
 78.49609375 743.344726562 61.0322265625 726.586914062 59.9013671875 705.520507812 c 0
 59.5426016084 698.840525062 45.53125 306.387560495 45.53125 36.7138671875 c 0
 45.53125 14.6376953125 63.455078125 -3.2861328125 85.53125 -3.2861328125 c 0
 107.396484375 -3.2861328125 125.1875 14.2958984375 125.526367188 36.0810546875 c 0
 125.572813036 39.0677203827 128.631674746 275.320735403 129.574823175 334.756299601 c 1
 136.175873008 334.585299496 142.602383325 334.50738264 148.878177927 334.50738264 c 0
 213.361556334 334.50738264 261.93323194 342.733398438 320.436523438 342.733398438 c 0
 338.706332999 342.733398438 354.2008666 341.933431566 366.834596588 340.930466638 c 1
 365.362665678 270.696366254 364.516444591 209.956135339 364.516444591 157.079364813 c 0
 364.516444591 107.456113065 365.261733121 64.7584117728 366.934570312 27.638671875 c 0
 367.891601562 6.4091796875 385.4296875 -10.533203125 406.893554688 -10.533203125 c 0
 428.969726562 -10.533203125 446.893554688 7.390625 446.893554688 29.466796875 c 0
 446.893554688 30.76171875 444.5703125 72.91015625 444.5703125 158.969726562 c 0
 444.5703125 207.062363285 454.088472181 681.065301264 454.088472181 696.621245041 c 0
 454.088472181 696.793113484 454.087310324 696.909020513 454.084960938 696.967773438 c 0
 453.232421875 718.293945312 435.650390625 735.345703125 414.1171875 735.345703125 c 0
 392.041015625 735.345703125 374.1171875 717.421875 374.1171875 695.345703125 c 0
 374.1171875 695.137695312 374.423828125 687.614257812 374.423828125 674.54296875 c 0
EndSplineSet
EndChar

StartChar: I
Encoding: 73 73 41
Width: 500
Flags: HW
LayerCount: 2
Fore
SplineSet
214.391601562 643.973632812 m 0
 214.391601562 539.841796875 204.576171875 371.653320312 204.576171875 232.081054688 c 0
 204.576171875 176.174960515 205.934160747 124.867725636 210.608579079 82.1078812328 c 1
 163.301374307 78.8793198921 122.237108614 74.19921875 85.939453125 74.19921875 c 0
 63.8515625 74.19921875 45.927734375 56.275390625 45.927734375 34.19921875 c 0
 45.927734375 12.4931640625 63.40625 -5.80078125 86.0693359375 -5.80078125 c 0
 148.098470291 -5.80078125 212.283627096 5.14626097159 290.939924238 5.14626097159 c 0
 325.79551929 5.14626097159 363.492830933 2.99657609648 405.103515625 -3.2080078125 c 0
 407.11867897 -3.50848610908 409.116613467 -3.65389125274 411.086228465 -3.65389125274 c 0
 432.78222481 -3.65389125274 451.041992188 13.9892651022 451.041992188 36.353515625 c 0
 451.041992188 56.412109375 436.245117188 73.0419921875 416.98046875 75.9150390625 c 0
 371.056261199 82.7627784811 329.162746797 85.1040028088 290.778250025 85.1053884751 c 1
 286.254985618 122.687284554 284.646571546 173.144242279 284.646571546 229.402923342 c 0
 284.646571546 367.928249021 294.398199674 541.628750955 294.398199674 644.909434814 c 0
 294.398199674 650.258093933 294.372046237 655.417890207 294.317030517 660.374157328 c 1
 313.059785999 661.133769708 331.449361188 661.654296875 349.000976562 661.654296875 c 0
 386.874023438 661.654296875 413.420898438 658.551757812 414.072265625 658.551757812 c 0
 436.1484375 658.551757812 454.072265625 676.475585938 454.072265625 698.551757812 c 0
 454.072265625 719.094726562 438.552734375 736.041015625 418.609375 738.296875 c 0
 396.938907768 740.747930472 373.336865704 741.651842928 348.844271334 741.651842928 c 0
 280.00686683 741.651842928 204.134871738 734.51171875 144.33984375 734.51171875 c 0
 111.779296875 734.51171875 100.826171875 736.642578125 95.576171875 736.642578125 c 0
 73.5 736.642578125 55.576171875 718.71875 55.576171875 696.642578125 c 0
 55.576171875 675.990234375 71.26171875 658.97265625 91.3583984375 656.862304688 c 0
 107.394288765 655.178910467 125.28858431 654.532123867 144.369824242 654.532123867 c 0
 166.450439046 654.532123867 190.120476909 655.398228081 214.339456267 656.526378059 c 1
 214.372647078 652.683327172 214.391601562 648.507556754 214.391601562 643.973632812 c 0
EndSplineSet
EndChar

StartChar: J
Encoding: 74 74 42
Width: 500
Flags: HW
LayerCount: 2
Fore
SplineSet
130.838867188 183.78125 m 0
 130.838867188 196.361328125 133.206054688 217.750976562 133.206054688 218.094726562 c 0
 133.206054688 240.170898438 115.282226562 258.094726562 93.2060546875 258.094726562 c 0
 72.9287109375 258.094726562 56.1552734375 242.974609375 53.5556640625 223.403320312 c 0
 51.7203286883 209.587321221 50.8472612419 196.416945222 50.8472612419 183.880000564 c 0
 50.8472612419 45.0103565601 157.969347469 -16.1396484375 250.982421875 -16.1396484375 c 0
 361.254882812 -16.1396484375 449.015625 113.856445312 449.015625 376.07421875 c 0
 449.015625 545.15625 434.012695312 628.388671875 412.786132812 716.5859375 c 0
 408.559570312 734.143554688 392.740234375 747.206054688 373.893554688 747.206054688 c 0
 351.275049286 747.206054688 333.876540092 728.660153875 333.876540092 707.23705281 c 0
 333.876540092 704.144341748 334.239138639 700.99166758 335.000976562 697.826171875 c 0
 355.508789062 612.62109375 369.015625 541.166015625 369.015625 376.07421875 c 0
 369.015625 297.818359375 360.295898438 231.8984375 345.685546875 181.431640625 c 0
 334.944335938 144.333007812 305.376953125 63.8603515625 250.982421875 63.8603515625 c 0
 237.997070312 63.8603515625 130.838867188 67.38671875 130.838867188 183.78125 c 0
EndSplineSet
EndChar

StartChar: K
Encoding: 75 75 43
Width: 500
Flags: HW
LayerCount: 2
Fore
SplineSet
171.21861578 330.612718063 m 1
 181.294632056 334.65693425 193.398427994 337.586022542 206.407740375 337.586022542 c 0
 262.424222706 337.586022542 335.229492188 283.279068566 335.229492188 29.8505859375 c 0
 335.229492188 7.7734375 353.153320312 -10.1494140625 375.229492188 -10.1494140625 c 0
 397.223632812 -10.1494140625 415.094726562 7.6396484375 415.228515625 29.6015625 c 0
 415.242995251 31.9765268862 415.250421201 34.3647517841 415.250421201 36.7653490662 c 0
 415.250421201 183.222577344 387.610613755 375.730523055 247.795898438 412.615234375 c 1
 301.52734375 486.799804688 345.830078125 573.430664062 401.01171875 685.125 c 0
 403.851534 690.873344285 405.158049976 696.854422323 405.158049976 702.69404773 c 0
 405.158049976 723.661142372 388.314979851 742.8046875 365.125976562 742.8046875 c 0
 340.196880586 742.8046875 332.125399205 726.376454085 322.767578125 707.330078125 c 0
 295.185368283 651.188177098 231.409724795 521.376750428 172.239970027 445.113776809 c 1
 173.256037771 531.61482265 175.06499052 619.719885108 179.147460938 700.5859375 c 0
 179.182344604 701.27658115 179.199582429 701.963764554 179.199582429 702.647069637 c 0
 179.199582429 724.650774408 161.324634057 742.6328125 139.19921875 742.6328125 c 0
 117.80859375 742.6328125 100.317382812 725.805664062 99.2509765625 704.678710938 c 0
 99.094881761 701.586944646 90.8270764997 457.828231638 90.8270764997 375.494306107 c 0
 90.8270764997 363.839291424 90.9927519823 355.419008174 91.3705654999 351.374040037 c 0
 90.199997447 218.899714379 89.5770753373 97.8900610421 84.8525390625 32.5576171875 c 0
 84.781053227 31.5691034159 84.7459010317 30.5870714287 84.7459010317 29.6127564581 c 0
 84.7459010317 7.66717932986 102.579858004 -10.36328125 124.747070312 -10.36328125 c 0
 145.841796875 -10.36328125 163.143554688 6 164.641601562 26.71484375 c 0
 169.7218644 96.9671706724 170.329263735 207.732453171 171.21861578 330.612718063 c 1
EndSplineSet
EndChar

StartChar: L
Encoding: 76 76 44
Width: 500
Flags: HW
LayerCount: 2
Fore
SplineSet
365.244140625 5.3837890625 m 0
 391.014648438 5.3837890625 404.37109375 4.3603515625 407.318359375 4.3603515625 c 0
 429.395507812 4.3603515625 447.318359375 22.283203125 447.318359375 44.3603515625 c 0
 447.318359375 65.72265625 430.536132812 83.1962890625 409.447265625 84.3037109375 c 0
 394.855074906 85.0705643337 380.015530074 85.4171787636 364.744180378 85.4171787636 c 0
 315.546868657 85.4171787636 261.868139173 81.8198963102 197.541015625 77.0869140625 c 0
 176.408203125 75.5322265625 156.151367188 74.048828125 137.489257812 72.9169921875 c 1
 134.844726562 132.331054688 133.176757812 221.091796875 133.176757812 314 c 0
 133.176757812 610.5078125 148.404296875 699.590820312 148.404296875 703.489257812 c 0
 148.404296875 725.565429688 130.481445312 743.489257812 108.404296875 743.489257812 c 0
 88.30859375 743.489257812 71.654296875 728.637695312 68.8271484375 709.321289062 c 0
 57.1015625 629.198242188 53.1767578125 466.506835938 53.1767578125 314 c 0
 53.1767578125 196.208984375 55.6904296875 86.3564453125 59.87109375 28.1943359375 c 0
 61.3603515625 7.4716796875 78.6669921875 -8.9013671875 99.7666015625 -8.9013671875 c 0
 143.145507812 -8.9013671875 275.6328125 5.3837890625 365.244140625 5.3837890625 c 0
EndSplineSet
EndChar

StartChar: M
Encoding: 77 77 45
Width: 500
Flags: HW
LayerCount: 2
Fore
SplineSet
443.93359375 30.49609375 m 0
 443.922423362 38.1644207564 443.916988488 45.894797144 443.916988488 53.6784573302 c 0
 443.916988488 335.098980673 451.021484375 686.172367456 451.021484375 692.616210938 c 0
 451.021484375 714.692382812 433.098632812 732.616210938 411.021484375 732.616210938 c 0
 394.436523438 732.616210938 380.1953125 722.5 374.13671875 708.106445312 c 0
 341.014648438 629.418945312 314.46875 539.41015625 248.254882812 314.903320312 c 1
 226.077148438 412.551757812 211.676757812 511.8125 186.391601562 603.484375 c 0
 174.02734375 648.310546875 159.326171875 690.38671875 139.38671875 727.209960938 c 0
 131.636544609 741.522798747 118.124245955 748.052300419 104.670554812 748.052300419 c 0
 85.4418009459 748.052300419 66.3327687181 734.714033274 64.337890625 711.698242188 c 0
 47.3701171875 515.934570312 58.0439453125 204.975585938 49.0341796875 31.212890625 c 0
 48.9973941946 30.503645801 48.9792221998 29.7980330384 48.9792221998 29.096505107 c 0
 48.9792221998 7.09561397174 66.852047632 -10.8876953125 88.9794921875 -10.8876953125 c 0
 110.3515625 -10.8876953125 127.831054688 5.9091796875 128.924804688 27.0107421875 c 0
 133.6338378 117.822378728 134.617695216 468.013262747 134.6796875 472.467773438 c 1
 185.43181863 222.706439699 185.43181863 222.706439699 210.493164062 160.319335938 c 0
 217.219691795 143.575319453 232.389994488 135.366092511 247.545309531 135.366092511 c 0
 263.708500484 135.366092511 279.85464405 144.703504726 285.72265625 162.983398438 c 0
 285.821870443 163.292491904 285.821870443 163.292491904 366.823242188 433.91015625 c 1
 366.77603116 430.00863693 363.923325676 190.688427879 363.923325676 45.0051920182 c 0
 363.923325676 40.0151717761 363.926672573 35.1350098211 363.93359375 30.3779296875 c 0
 363.965820312 8.328125 381.876953125 -9.5625 403.93359375 -9.5625 c 0
 426.010742188 -9.5625 443.93359375 8.3603515625 443.93359375 30.49609375 c 0
EndSplineSet
EndChar

StartChar: N
Encoding: 78 78 46
Width: 500
Flags: HW
LayerCount: 2
Fore
SplineSet
62.767578125 235.129882812 m 0
 62.767578125 100.293945312 56.482421875 36.93359375 56.482421875 28.498046875 c 0
 56.482421875 6.4208984375 74.40625 -11.501953125 96.482421875 -11.501953125 c 0
 117.634765625 -11.501953125 134.974609375 4.9521484375 136.389648438 25.748046875 c 0
 141.373046875 99.0126953125 142.767578125 168.565429688 142.767578125 235.129882812 c 0
 142.767578125 298.69400734 140.528017494 401.720414803 140.528017494 484.886343455 c 0
 140.528017494 506.223307752 140.675430975 526.253005666 141.045898438 543.973632812 c 1
 214.193359375 379.948242188 308.391601562 151.080078125 356.848632812 15.9716796875 c 0
 362.388671875 0.5234375 377.168945312 -10.5380859375 394.512695312 -10.5380859375 c 0
 415.364257812 -10.5380859375 432.510742188 5.4501953125 434.349609375 25.826171875 c 0
 441.536132812 105.446289062 443.134765625 212.557617188 443.134765625 320.959960938 c 0
 443.134765625 420.6796875 441.715820312 521.428710938 441.715820312 600.916992188 c 0
 441.715820312 686.729492188 443.517578125 705.508789062 443.517578125 710.665039062 c 0
 443.517578125 732.741210938 425.594726562 750.665039062 403.517578125 750.665039062 c 0
 382.11328125 750.665039062 364.612304688 733.815429688 363.567382812 712.66796875 c 0
 362.137695312 683.741210938 361.715820312 645.530273438 361.715820312 600.916992188 c 0
 361.715820312 598.019452069 362.970823323 434.13445978 362.970823323 314.541590216 c 0
 362.970823323 278.873541398 362.859190245 247.145296664 362.569335938 224.802734375 c 1
 290.459960938 405.274414062 198.481445312 618.294921875 146.735351562 720.693359375 c 0
 140.142578125 733.73828125 126.614257812 742.692382812 111.010742188 742.692382812 c 0
 90.5029296875 742.692382812 73.580078125 727.225585938 71.27734375 707.331054688 c 0
 62.5888671875 632.2421875 60.4375 557.254882812 60.4375 480.8203125 c 0
 60.4375 478.36328125 62.767578125 243.59765625 62.767578125 235.129882812 c 0
EndSplineSet
EndChar

StartChar: O
Encoding: 79 79 47
Width: 500
Flags: HW
LayerCount: 2
Fore
SplineSet
254.145507812 -9.970703125 m 0
 417.732617075 -9.970703125 477.772460938 219.782080774 477.772460938 346.956054688 c 0
 477.772460938 437.153320312 464.088867188 580.000976562 406.783203125 668.202148438 c 0
 378.87890625 711.149414062 335.923828125 745.7421875 278.619140625 745.7421875 c 0
 118.846679688 745.7421875 22.2275390625 501.870117188 22.2275390625 275.33984375 c 0
 22.2275390625 71.451171875 156.51953125 -9.970703125 254.145507812 -9.970703125 c 0
397.772460938 346.956054688 m 0
 397.772460938 258.674186114 356.083585123 70.029296875 254.145507812 70.029296875 c 0
 215.509765625 70.029296875 102.227539062 100.982421875 102.227539062 275.33984375 c 0
 102.227539062 473.278320312 184.4296875 665.7421875 278.619140625 665.7421875 c 0
 359.945422211 665.7421875 397.772460938 491.386950605 397.772460938 346.956054688 c 0
EndSplineSet
EndChar

StartChar: P
Encoding: 80 80 48
Width: 500
Flags: HW
LayerCount: 2
Fore
SplineSet
67.15234375 520.575195312 m 0
 67.15234375 513.52734375 69.640625 323.624023438 69.640625 321.634765625 c 0
 69.640625 237.083007812 65.5595703125 149.569335938 46.4619140625 36.3935546875 c 0
 46.0789440093 34.1239579905 45.8943199974 31.8729570255 45.8943199974 29.6566954949 c 0
 45.8943199974 8.0240386445 63.4843220563 -10.298828125 85.9033203125 -10.298828125 c 0
 105.69921875 -10.298828125 122.15625 4.11328125 125.344726562 23.0087890625 c 0
 143.969315744 133.382045914 149.639591369 224.465167184 149.639591369 322.321143586 c 0
 149.639591369 325.571215218 149.633336541 328.828757923 149.62109375 332.094726562 c 1
 276.9921875 358.396484375 364.083984375 399.538085938 411.905273438 455.569335938 c 0
 440.603021219 489.193057847 454.643599735 530.961420832 454.643599735 572.112465132 c 0
 454.643599735 630.941369459 425.948694135 688.508651885 370.360351562 719.21484375 c 0
 339.630239926 736.190457318 294.774888615 750.209580877 220.892364167 750.209580877 c 0
 189.206738389 750.209580877 152.182285362 747.631111437 108.643554688 741.6015625 c 0
 90.240234375 739.053710938 75.8212890625 723.965820312 74.302734375 705.254882812 c 0
 68.716796875 636.41015625 67.15234375 576.20703125 67.15234375 520.575195312 c 0
148.515625 413.708984375 m 1
 147.736073654 454.862380372 147.170531445 490.230909142 147.170531445 523.656427191 c 0
 147.170531445 571.422541662 148.325442558 615.22077427 151.661132812 666.262695312 c 1
 177.537473393 668.969368404 200.405240271 670.201004191 220.614028935 670.201004191 c 0
 370.125522526 670.201004191 374.096679688 602.786880214 374.096679688 566.524414062 c 0
 374.053710938 481.10546875 248.493164062 436.048828125 148.515625 413.708984375 c 1
EndSplineSet
EndChar

StartChar: Q
Encoding: 81 81 49
Width: 500
Flags: HW
LayerCount: 2
Fore
SplineSet
278.619140625 665.7421875 m 0
 359.945422211 665.7421875 397.772460938 491.386950605 397.772460938 346.956054688 c 0
 397.772460938 255.718513833 356.790163907 90.4600332244 272.027954971 71.9109907849 c 1
 272.018371303 73.2047736264 272.013671875 74.4912336441 272.013671875 75.76953125 c 0
 272.013671875 136.646484375 281.083984375 190.594726562 281.083984375 197.854492188 c 0
 281.083984375 219.930664062 263.16015625 237.854492188 241.083984375 237.854492188 c 0
 220.8125 237.854492188 204.04296875 222.743164062 201.436523438 203.1796875 c 0
 197.162420301 171.11107789 192.726824263 130.101843875 192.058069046 87.3680402482 c 1
 148.552455212 110.986794224 102.227539062 163.841896599 102.227539062 275.33984375 c 0
 102.227539062 473.278320312 184.4296875 665.7421875 278.619140625 665.7421875 c 0
401.973632812 -43.0166015625 m 0
 375.428475656 -43.0166015625 363.609124067 -72.2451171875 330.177734375 -72.2451171875 c 0
 303.310196798 -72.2451171875 288.063563113 -44.0754867094 279.983721052 -7.97093472882 c 1
 428.194803493 16.3799111437 477.772460938 233.91354023 477.772460938 346.956054688 c 0
 477.772460938 437.153320312 464.088867188 580.000976562 406.783203125 668.202148438 c 0
 378.87890625 711.149414062 335.923828125 745.7421875 278.619140625 745.7421875 c 0
 118.846679688 745.7421875 22.2275390625 501.870117188 22.2275390625 275.33984375 c 0
 22.2275390625 109.110189986 111.492480279 24.2851773028 197.374445928 -1.37882333487 c 1
 214.483382995 -112.421519746 272.011347661 -152.333166316 329.702475308 -152.333166316 c 0
 365.995079068 -152.333166316 402.352254173 -136.538231292 428.751953125 -112.720703125 c 0
 437.876827689 -104.48827218 441.948511223 -93.9043190814 441.948511223 -83.483324378 c 0
 441.948511223 -62.9331074974 426.114589829 -43.0166015625 401.973632812 -43.0166015625 c 0
EndSplineSet
EndChar

StartChar: R
Encoding: 82 82 50
Width: 500
Flags: HW
LayerCount: 2
Fore
SplineSet
414.509765625 554.374023438 m 0
 414.509765625 652.03366655 317.958159596 744.48992308 213.480435397 744.48992308 c 0
 179.055672396 744.48992308 143.770401117 734.452301576 110.794921875 711.255859375 c 0
 101.036132812 704.391601562 94.4794921875 693.27734375 93.82421875 680.61328125 c 0
 81.90234375 450.052734375 91.390625 160.491210938 81.8408203125 31.5615234375 c 0
 81.7658029903 30.5490019817 81.7289286364 29.5432229418 81.7289286364 28.5455155335 c 0
 81.7289286364 6.6064464693 99.5590548393 -11.4296875 121.73046875 -11.4296875 c 0
 142.80078125 -11.4296875 160.087890625 4.8974609375 161.620117188 25.5791015625 c 0
 166.287109375 88.5859375 166.520507812 168.165039062 166.979492188 324.946289062 c 1
 199.26097501 336.762695312 199.26097501 336.762695312 206.109375 336.762695312 c 0
 288.177734375 336.762695312 338.26953125 227.280273438 338.26953125 36.169921875 c 0
 338.26953125 31.98828125 338.24609375 29.166015625 338.24609375 28.7841796875 c 0
 338.24609375 6.7080078125 356.169921875 -11.2158203125 378.24609375 -11.2158203125 c 0
 400.23828125 -11.2158203125 418.108398438 6.5703125 418.245117188 28.529296875 c 0
 418.262464856 31.3064229919 418.272611875 34.1841760693 418.272611875 37.1559179296 c 0
 418.272611875 129.037613342 408.572553974 310.768022141 302.087890625 386.145507812 c 1
 337.166015625 407.494140625 414.509765625 459.9921875 414.509765625 554.374023438 c 0
172.686523438 655.1640625 m 1
 186.157488234 661.602328067 200.009807115 664.460464795 213.67191714 664.460464795 c 0
 276.07500432 664.460464795 334.509765625 604.83118078 334.509765625 554.374023438 c 0
 334.509765625 461.45714939 169.511826227 412.990884473 167.37109375 412.518554688 c 1
 167.926757812 494.41796875 169.200195312 578.192382812 172.686523438 655.1640625 c 1
EndSplineSet
EndChar

StartChar: S
Encoding: 83 83 51
Width: 500
Flags: HW
LayerCount: 2
Fore
SplineSet
71.3466796875 559.853515625 m 0
 71.3466796875 350.710332149 388.116210938 390.207810498 388.116210938 211.461914062 c 0
 388.116210938 147.091521564 311.152138527 72.4126188228 234.013132273 72.4126188228 c 0
 186.486012962 72.4126188228 138.892487434 100.761298223 109.192382812 177.3359375 c 0
 103.395507812 192.283203125 88.8681640625 202.892578125 71.8837890625 202.892578125 c 0
 48.9107140479 202.892578125 31.8553393578 183.966347554 31.8553393578 162.850936147 c 0
 31.8553393578 158.09765754 32.7196079103 153.233443807 34.5751953125 148.44921875 c 0
 55.1459783703 95.4090937228 110.850198598 -7.31640625 233.74609375 -7.31640625 c 0
 353.045898438 -7.31640625 468.116210938 99.015625 468.116210938 211.461914062 c 0
 468.116210938 446.743407256 151.346679688 423.764900242 151.346679688 559.853515625 c 0
 151.346679688 608.259070888 221.999826894 664.198694997 285.926747814 664.198694997 c 0
 297.981455955 664.198694997 309.79698826 662.209554909 320.854492188 657.805664062 c 0
 333.989257812 652.57421875 347.666015625 643.16796875 365.716796875 624.310546875 c 0
 373.879730962 615.782969875 384.11137826 611.974822616 394.172633975 611.974822616 c 0
 414.748285256 611.974822616 434.611328125 627.901183101 434.611328125 651.959960938 c 0
 434.611328125 662.681640625 430.383789062 672.424804688 423.505859375 679.609375 c 0
 381.080078125 723.9296875 340.579101562 744.112304688 282.655273438 744.112304688 c 0
 183.1875 744.112304688 71.3466796875 658.606445312 71.3466796875 559.853515625 c 0
EndSplineSet
EndChar

StartChar: T
Encoding: 84 84 52
Width: 500
Flags: HW
LayerCount: 2
Fore
SplineSet
214.456054688 646.838867188 m 0
 214.456054688 541.313476562 204.498046875 370.90234375 204.498046875 229.49609375 c 0
 204.498046875 152.32421875 207.060546875 83.8037109375 217.188476562 34.1123046875 c 0
 220.905273438 15.873046875 237.051757812 2.130859375 256.3828125 2.130859375 c 0
 278.899646498 2.130859375 296.395451165 20.5642697599 296.395451165 42.0897710769 c 0
 296.395451165 44.7390150722 296.130435656 47.4350961274 295.577148438 50.1494140625 c 0
 287.297224894 90.7738047052 284.581240444 155.358582402 284.581240444 229.083933646 c 0
 284.581240444 369.701979005 294.461666952 543.57233741 294.461666952 647.86606909 c 0
 294.461666952 653.435400343 294.433491857 658.806326393 294.374132544 663.963188752 c 1
 313.594601485 664.745819699 332.453937089 665.284179688 350.443359375 665.284179688 c 0
 388.9375 665.284179688 415.7890625 662.141601562 416.450195312 662.141601562 c 0
 438.526367188 662.141601562 456.450195312 680.065429688 456.450195312 702.141601562 c 0
 456.450195312 722.686523438 440.927734375 739.633789062 420.981445312 741.887695312 c 0
 399.035004605 744.366514863 375.117465706 745.280856676 350.290083014 745.280856676 c 0
 280.45633517 745.280856676 203.42419255 738.046875 142.810546875 738.046875 c 0
 109.770507812 738.046875 98.599609375 740.206054688 93.337890625 740.206054688 c 0
 71.26171875 740.206054688 53.337890625 722.282226562 53.337890625 700.206054688 c 0
 53.337890625 679.551757812 69.025390625 662.533203125 89.125 660.42578125 c 0
 105.368608522 658.722351985 123.50148637 658.0677785 142.841517184 658.0677785 c 0
 165.411123809 658.0677785 189.624708282 658.959218393 214.398196548 660.115473119 c 1
 214.434932415 656.068288502 214.456054687 651.652578877 214.456054688 646.838867188 c 0
EndSplineSet
EndChar

StartChar: U
Encoding: 85 85 53
Width: 500
Flags: HW
LayerCount: 2
Fore
SplineSet
395.020507812 442.662109375 m 0
 395.020507812 145.169563743 336.621780463 65.4013340629 259.212344521 65.4013340629 c 0
 258.691897528 65.4013340629 258.170591197 65.4049398091 257.6484375 65.412109375 c 0
 170.524664703 66.6080574019 107.94140625 143.724551262 107.94140625 442.313476562 c 0
 107.94140625 505.278320312 108.268554688 515.1875 116.325195312 703.23828125 c 0
 116.325195312 734.508789062 91.3466796875 744.9765625 76.3623046875 744.9765625 c 0
 54.8681640625 744.9765625 37.310546875 727.986328125 36.3994140625 706.71484375 c 0
 28.5693359375 523.954101562 27.94140625 509.2890625 27.94140625 442.313476562 c 0
 27.94140625 255.71875 49.1748046875 93.251953125 145.465820312 21.43359375 c 0
 176.172160191 -1.46821386993 216.843844303 -14.7758799379 258.064801427 -14.7758799379 c 0
 296.600142934 -14.7758799379 335.615516831 -3.14576048051 367.41796875 23.1484375 c 0
 456.823681005 97.067670416 474.992892168 262.918587993 474.992892168 441.086665819 c 0
 474.992892168 499.305254324 473.052901563 558.838989367 471.024414062 616.91015625 c 0
 469.91796875 648.580078125 468.875 678.512695312 468.325195312 705.67578125 c 0
 467.885742188 727.372070312 450.134765625 744.8515625 428.333007812 744.8515625 c 0
 406.24779502 744.8515625 388.332452185 726.917406243 388.332452185 704.853846782 c 0
 388.332452185 704.57897777 388.335232702 704.303467862 388.340820312 704.02734375 c 0
 390.059570312 619.134765625 395.020507812 538.9375 395.020507812 442.662109375 c 0
EndSplineSet
EndChar

StartChar: V
Encoding: 86 86 54
Width: 500
Flags: HW
LayerCount: 2
Fore
SplineSet
80.48046875 743.21875 m 0
 57.8633091391 743.21875 40.4637648089 724.673279131 40.4637648089 703.248635833 c 0
 40.4637648089 700.158868617 40.8256428212 697.009219995 41.5859375 693.846679688 c 0
 99.1474609375 454.454101562 139.138671875 207.1484375 197.858398438 8.1845703125 c 0
 203.445892168 -10.7473705543 219.852889457 -20.2836039539 236.262800508 -20.2836039539 c 0
 252.325138721 -20.2836039539 268.390268572 -11.147059945 274.314453125 7.2578125 c 0
 341.565429688 216.173828125 383.876953125 484.72265625 457.27734375 693.998046875 c 0
 458.822555449 698.403664461 459.545819606 702.853675611 459.545819606 707.204976846 c 0
 459.545819606 728.384588132 442.410405144 747.225585938 419.51953125 747.225585938 c 0
 402.077148438 747.225585938 387.227539062 736.038085938 381.76171875 720.453125 c 0
 340.526367188 602.883789062 309.650390625 471.169921875 279.422851562 342.646484375 c 0
 265.657226562 284.116210938 252.03125 226.25 237.755859375 170.828125 c 1
 236.469907458 176.222419417 128.507301098 674.609851091 119.375 712.590820312 c 0
 115.15234375 730.15234375 99.330078125 743.21875 80.48046875 743.21875 c 0
EndSplineSet
EndChar

StartChar: W
Encoding: 87 87 55
Width: 500
Flags: HW
LayerCount: 2
Fore
SplineSet
331.181640625 -11.052734375 m 0
 349.422851562 -11.052734375 364.828125 1.18359375 369.630859375 17.888671875 c 0
 420.201171875 193.79296875 461.545898438 457.750976562 470.419921875 701.786132812 c 0
 470.437968443 702.282765821 470.446915216 702.777513761 470.446915216 703.270221559 c 0
 470.446915216 725.307014403 452.549746989 743.262695312 430.446289062 743.262695312 c 0
 408.864257812 743.262695312 391.250976562 726.1328125 390.47265625 704.739257812 c 0
 384.732421875 546.848632812 364.58203125 378.4375 337.551757812 234.166992188 c 1
 327.352539062 299.951171875 293.421875 529.452148438 292.973632812 532.434570312 c 0
 290.081054688 551.67578125 273.4609375 566.448242188 253.418945312 566.448242188 c 0
 234.268554688 566.448242188 218.244140625 552.961914062 214.33203125 534.977539062 c 0
 204.614044253 490.303807793 204.614044253 490.303807793 153.334960938 230.689453125 c 1
 128.7109375 374.953125 110.326171875 531.3984375 109.553710938 706.92578125 c 0
 109.45703125 728.919921875 91.5703125 746.74609375 69.5537109375 746.74609375 c 0
 47.4769093783 746.74609375 29.5533145876 728.823005701 29.5533145876 706.74624897 c 0
 29.5533145876 706.686331901 29.5534466125 706.626384236 29.5537109375 706.56640625 c 0
 30.72265625 441.206054688 71.0263671875 218.475585938 112.338867188 19.935546875 c 0
 116.118164062 1.775390625 132.2265625 -11.88671875 151.500976562 -11.88671875 c 0
 170.534179688 -11.88671875 186.48046875 1.435546875 190.515625 19.2568359375 c 0
 214.549804688 125.416015625 231.017578125 210.427734375 247.365234375 294.87890625 c 1
 261.142578125 203.127929688 275.159179688 113.895507812 291.821289062 21.7919921875 c 0
 295.198242188 3.1240234375 311.546875 -11.052734375 331.181640625 -11.052734375 c 0
EndSplineSet
EndChar

StartChar: X
Encoding: 88 88 56
Width: 500
Flags: HW
LayerCount: 2
Fore
SplineSet
87.3564453125 743.506835938 m 0
 64.5130433992 743.506835938 47.33176372 724.716146918 47.33176372 703.498035467 c 0
 47.33176372 699.372308533 47.9813592318 695.154804807 49.365234375 690.965820312 c 0
 102.578015513 529.887530064 153.160958172 442.971003394 201.040732493 367.663706204 c 1
 151.565895958 292.902081063 100.7563453 206.864367684 51.6435546875 40.3896484375 c 0
 50.5227693711 36.5904698659 49.9939275201 32.7843795094 49.9939275201 29.0577289838 c 0
 49.9939275201 7.7654385844 67.2576021636 -10.93359375 90.015625 -10.93359375 c 0
 108.16015625 -10.93359375 123.499023438 1.173828125 128.387695312 17.7431640625 c 0
 169.100330694 155.745525826 207.621345613 229.674113393 248.201370452 293.605379064 c 1
 288.436684912 228.488946668 327.92286388 154.241770002 371.7890625 21.607421875 c 0
 377.059570312 5.6728515625 392.083984375 -5.837890625 409.776367188 -5.837890625 c 0
 432.620951841 -5.837890625 449.801153607 12.9542025399 449.801153607 34.1722365269 c 0
 449.801153607 38.3020784527 449.150297722 42.5238248791 447.763671875 46.716796875 c 0
 395.095880437 205.962564241 344.666151272 291.439367145 296.656104786 366.721879901 c 1
 345.553260109 440.127682956 398.409401267 526.257436373 452.359375 690.604492188 c 0
 453.727182472 694.771195079 454.369427746 698.964910177 454.369427746 703.06753736 c 0
 454.369427746 724.290079391 437.183554055 743.075195312 414.344726562 743.075195312 c 0
 396.622070312 743.075195312 381.575195312 731.5234375 376.330078125 715.545898438 c 0
 331.52971597 579.071590109 290.628749522 504.457221359 249.607412456 440.720843463 c 1
 209.488380173 506.032652632 169.724187962 581.718314157 125.34765625 716.047851562 c 0
 120.081054688 731.989257812 105.053710938 743.506835938 87.3564453125 743.506835938 c 0
EndSplineSet
EndChar

StartChar: Y
Encoding: 89 89 57
Width: 500
Flags: HW
LayerCount: 2
Fore
SplineSet
219.177734375 100.40625 m 1
 219.177734375 51.0810546875 217.712890625 27.0888671875 217.712890625 26.3486328125 c 0
 217.712890625 4.2724609375 235.63671875 -13.6513671875 257.712890625 -13.6513671875 c 0
 279.08984375 -13.6513671875 296.572265625 3.1533203125 297.659179688 24.26171875 c 0
 298.516136764 40.9025997363 298.847350677 67.0392318678 298.847350677 97.5353041521 c 0
 298.847350677 201.229231217 295.01798007 355.325364598 295.006627378 357.903604068 c 1
 344.630411766 447.783761957 383.70599199 545.910347252 413.185546875 619.690429688 c 0
 424.274414062 647.4453125 433.993164062 671.737304688 442.0859375 690.299804688 c 0
 444.371671051 695.542799965 445.430039909 700.925572699 445.430039909 706.182737417 c 0
 445.430039909 727.224972116 428.474266505 746.254882812 405.399414062 746.254882812 c 0
 388.993164062 746.254882812 374.880859375 736.356445312 368.712890625 722.209960938 c 0
 344.052734375 665.646484375 304.491210938 556.327148438 255.7734375 456.185546875 c 1
 182.935656463 598.68273305 151.668594356 659.852476371 135.760742188 712.989257812 c 0
 130.823242188 729.481445312 115.522460938 741.514648438 97.43359375 741.514648438 c 0
 74.6649969794 741.514648438 57.4112133396 722.804153306 57.4112133396 701.521704908 c 0
 57.4112133396 697.745405994 57.9544310201 693.88813177 59.1064453125 690.040039062 c 0
 78.796875 624.266601562 123.66015625 538.239257812 166.668945312 454.586914062 c 0
 183.685398391 421.488476214 200.391738511 388.984011334 215.005079142 359.041387005 c 1
 215.300439445 296.513300502 219.177734375 186.481364561 219.177734375 100.40625 c 1
EndSplineSet
EndChar

StartChar: Z
Encoding: 90 90 58
Width: 500
Flags: HW
LayerCount: 2
Fore
SplineSet
80.45703125 -6.392578125 m 0
 150.625936844 -6.392578125 227.762092177 3.52432416556 308.415251085 3.52432416556 c 0
 342.960590931 3.52432416556 378.151152506 1.70499111373 413.715820312 -3.4921875 c 0
 415.691976771 -3.78094897283 417.651199758 -3.92076633869 419.583057492 -3.92076633869 c 0
 441.28886069 -3.92076633869 459.540039062 13.7299589515 459.540039062 36.0859375 c 0
 459.540039062 56.1845703125 444.684570312 72.8408203125 425.364257812 75.6640625 c 0
 386.866578697 81.2897633605 360.156959029 83.7958074168 323.627329238 83.7958074168 c 0
 284.864380419 83.7958074168 235.043980963 80.9739713799 148.34765625 76.0634765625 c 1
 234.176757812 238.7421875 313.297851562 398.780273438 381.686523438 537.099609375 c 0
 407.764648438 589.84375 432.278320312 639.422851562 454.986328125 684.75 c 0
 457.895804876 690.557645864 459.232753149 696.607904016 459.232753149 702.513666909 c 0
 459.232753149 723.481698786 442.379725734 742.628282077 419.217146105 742.628282077 c 0
 419.042257679 742.628282077 418.867009548 742.627190537 418.69140625 742.625 c 0
 318.768554688 741.375976562 181.037109375 735.27734375 94.9169921875 734.723632812 c 0
 72.9599609375 734.583007812 55.1787109375 716.713867188 55.1787109375 694.724609375 c 0
 55.1787109375 672.645942087 73.1039801297 654.72474359 95.1782429878 654.72474359 c 0
 95.2655738996 654.72474359 95.3529697505 654.725024088 95.4404296875 654.725585938 c 0
 152.0078125 655.088867188 351.327148438 661.255859375 353.912109375 661.321289062 c 1
 141.842803428 234.205493966 131.682964004 213.7431839 45.1826171875 52.47265625 c 0
 41.9198330834 46.3896859405 40.4250363552 39.9917412446 40.4250363552 33.7453086396 c 0
 40.4250363552 12.8267619453 57.1891670948 -6.392578125 80.45703125 -6.392578125 c 0
EndSplineSet
EndChar

StartChar: bracketleft
Encoding: 91 91 59
Width: 500
Flags: HW
LayerCount: 2
Fore
SplineSet
369.887695312 57.3359375 m 0
 356.605472809 57.3359375 354.675978278 55.1859339202 312.600525581 55.1859339202 c 0
 296.251065223 55.1859339202 273.839951769 55.5105637571 242.345703125 56.412109375 c 0
 222.974609375 56.966796875 203.924804688 57.5185546875 185.34765625 57.5400390625 c 1
 183.546864916 216.321489388 170.205998509 364.952345404 170.205998509 511.789028755 c 0
 170.205998509 565.458147087 171.988228814 618.88757867 176.767578125 672.485351562 c 1
 232.65279499 676.574042753 291.438586334 678.257096336 334.722984557 678.257096336 c 0
 346.158954509 678.257096336 356.512857908 678.13961167 365.4453125 677.91796875 c 0
 392.258789062 677.91796875 406.455078125 699.125 406.455078125 717.905273438 c 0
 406.455078125 739.64453125 389.075195312 757.356445312 367.46484375 757.892578125 c 0
 366.709678114 757.911417352 354.663090762 758.20766118 334.572353732 758.20766118 c 0
 293.218332669 758.20766118 217.782404076 756.952518606 136.583984375 749.439453125 c 0
 117.744140625 747.697265625 102.674804688 732.866210938 100.5625 714.135742188 c 0
 92.7341807262 644.728751703 89.9792866741 578.935503771 89.9792866741 513.683397851 c 0
 89.9792866741 358.617431224 105.537109375 206.6074774 105.537109375 16.41796875 c 0
 105.537109375 -5.658203125 123.4609375 -23.58203125 145.537109375 -23.58203125 c 0
 145.923828125 -23.58203125 162.177734375 -22.458984375 184.220703125 -22.458984375 c 0
 221.333390413 -22.458984375 262.9220525 -24.8126578325 306.815969848 -24.8126578325 c 0
 328.386297259 -24.8126578325 350.513327993 -24.244261848 372.939453125 -22.548828125 c 0
 393.592773438 -20.98828125 409.887695312 -3.7138671875 409.887695312 17.3359375 c 0
 409.887695312 39.412109375 391.963867188 57.3359375 369.887695312 57.3359375 c 0
EndSplineSet
EndChar

StartChar: backslash
Encoding: 92 92 60
Width: 500
Flags: HW
LayerCount: 2
Fore
SplineSet
139.264648438 726.509765625 m 0
 116.167368775 726.509765625 99.2338927389 707.457107906 99.2338927389 686.430416734 c 0
 99.2338927389 681.056854157 100.339825865 675.554366545 102.731445312 670.208007812 c 0
 206.912109375 437.319335938 247.606445312 214.154296875 323.599609375 24.892578125 c 0
 329.508789062 10.17578125 343.916992188 -0.2265625 360.735351562 -0.2265625 c 0
 383.737326929 -0.2265625 400.764391744 18.7297898741 400.764391744 39.8233862841 c 0
 400.764391744 44.7219759248 399.846100076 49.7358299057 397.87109375 54.654296875 c 0
 324.321289062 237.833007812 282.440429688 464.419921875 175.797851562 702.811523438 c 0
 169.552734375 716.772460938 155.537109375 726.509765625 139.264648438 726.509765625 c 0
EndSplineSet
EndChar

StartChar: bracketright
Encoding: 93 93 61
Width: 500
Flags: HW
LayerCount: 2
Fore
SplineSet
182.299804688 754.193359375 m 0
 152.213867188 754.193359375 122.6484375 757.8046875 122.044921875 757.8046875 c 0
 99.96875 757.8046875 82.044921875 739.880859375 82.044921875 717.8046875 c 0
 82.044921875 697.404296875 97.349609375 680.55078125 117.092773438 678.108398438 c 0
 140.617356501 675.198356488 161.907785666 674.189682463 182.145182493 674.189682463 c 0
 227.878521832 674.189682463 268.234140498 679.340870093 316.84309114 679.340870093 c 0
 323.007930767 679.340870093 329.305522186 679.258015146 335.763671875 679.071289062 c 1
 335.195744879 656.396540465 334.955274559 633.913427939 334.955274559 611.572387956 c 0
 334.955274559 488.050556655 342.30620229 368.871735346 342.30620229 245.659026183 c 0
 342.30620229 182.429170804 340.37033529 118.136990958 334.51171875 51.650390625 c 0
 332.342773438 51.71875 138.741210938 59.306640625 117.576171875 59.306640625 c 0
 95.5 59.306640625 77.576171875 41.3828125 77.576171875 19.306640625 c 0
 77.576171875 -2.4970703125 95.0595703125 -20.25 116.760742188 -20.685546875 c 0
 194.831054688 -22.25 332.736328125 -29.2255859375 370.678710938 -29.2255859375 c 0
 391.275390625 -29.2255859375 408.256835938 -13.625 410.44140625 6.39453125 c 0
 419.520507812 89.603515625 422.309570312 168.78515625 422.309570312 245.608398438 c 0
 422.309570312 370.412109375 414.954101562 489.577148438 414.954101562 611.502929688 c 0
 414.954101562 673.119140625 417.049804688 715.65234375 417.049804688 716.704101562 c 0
 417.049804688 737.586914062 401.012695312 754.752929688 380.59375 756.548828125 c 0
 356.977516989 758.626117109 335.952991736 759.378279973 316.604642074 759.378279973 c 0
 265.80518876 759.378279973 226.560197604 754.193359375 182.299804688 754.193359375 c 0
EndSplineSet
EndChar

StartChar: asciicircum
Encoding: 94 94 62
Width: 500
Flags: HW
LayerCount: 2
Fore
SplineSet
112.385742188 559.220703125 m 0
 109.911697735 553.796340517 108.768784656 548.202604264 108.768784656 542.740249193 c 0
 108.768784656 521.725478461 125.684978794 502.655273438 148.799804688 502.655273438 c 0
 164.969726562 502.655273438 178.911132812 512.270507812 185.213867188 526.08984375 c 0
 200.690429688 560.0234375 224.91015625 599.651367188 250.26953125 638.877929688 c 1
 285.3515625 572.561523438 298.365234375 547.961914062 317.515625 518.133789062 c 0
 325.643777901 505.473160811 338.171760671 499.812153836 350.605721903 499.812153836 c 0
 371.029800669 499.812153836 391.200195312 515.086394369 391.200195312 539.702148438 c 0
 391.200195312 547.642578125 388.881835938 555.045898438 384.884765625 561.270507812 c 0
 356.254882812 605.864257812 316.315429688 687.530273438 288.154296875 736.506835938 c 0
 280.50206212 749.815376936 266.974880907 756.567844628 253.420077717 756.567844628 c 0
 240.698669427 756.567844628 227.952931327 750.620180089 220.016601562 738.5625 c 0
 163.213867188 652.267578125 135.892578125 610.758789062 112.385742188 559.220703125 c 0
EndSplineSet
EndChar

StartChar: underscore
Encoding: 95 95 63
Width: 500
Flags: HW
LayerCount: 2
Fore
SplineSet
248.474609375 -34.0302734375 m 0
 359.776367188 -34.0302734375 421.247070312 -39.5107421875 422.993164062 -39.5107421875 c 0
 445.069335938 -39.5107421875 462.993164062 -21.5869140625 462.993164062 0.4892578125 c 0
 462.993164062 21.5537109375 446.674804688 38.837890625 426.000976562 40.3779296875 c 0
 369.995332947 44.5498593066 315.342728325 45.973636513 255.926201236 45.973636513 c 0
 201.559899615 45.973636513 143.205096693 44.7816067772 76.17578125 43.412109375 c 0
 54.482421875 42.9697265625 37.0068359375 25.2197265625 37.0068359375 3.4208984375 c 0
 37.0068359375 -18.6552734375 54.9306640625 -36.5791015625 77.0068359375 -36.5791015625 c 0
 78.7216796875 -36.5791015625 178.426757812 -34.0302734375 248.474609375 -34.0302734375 c 0
EndSplineSet
EndChar

StartChar: grave
Encoding: 96 96 64
Width: 500
Flags: HW
LayerCount: 2
Fore
SplineSet
308.912109375 545.668945312 m 0
 313.458084748 544.013014184 318.060404969 543.239348464 322.559494125 543.239348464 c 0
 343.714927302 543.239348464 362.587890625 560.345330048 362.587890625 583.266601562 c 0
 362.587890625 600.541015625 351.614257812 615.272460938 336.263671875 620.864257812 c 0
 302.315429688 633.23046875 264.40625 656.340820312 209.762695312 731.345703125 c 0
 201.4973237 742.69113886 189.670872393 747.75366948 177.968065618 747.75366948 c 0
 157.500994142 747.75366948 137.412109375 732.269104586 137.412109375 707.828125 c 0
 137.412109375 699.041992188 140.250976562 690.913085938 145.061523438 684.310546875 c 0
 205.583984375 601.235351562 258.622070312 563.98828125 308.912109375 545.668945312 c 0
EndSplineSet
EndChar

StartChar: a
Encoding: 97 97 65
Width: 500
Flags: HW
LayerCount: 2
Fore
SplineSet
68.8974609375 112.522460938 m 0
 68.8974609375 49.2119140625 110.068359375 -19.4072265625 222.137695312 -19.4072265625 c 0
 299.239935485 -19.4072265625 349.561602782 4.55437395148 401.650390625 29.357421875 c 0
 415.91796875 34.484375 426.439453125 47.49609375 427.950195312 63.1259765625 c 0
 429.470319026 78.8582435804 430.776974452 102.109293795 430.776974452 129.326094151 c 0
 430.776974452 187.34720471 424.838717095 263.39115777 402.37109375 323.03515625 c 0
 378.401455884 386.668823928 328.526175608 433.902212928 265.321849178 433.902212928 c 0
 222.037628571 433.902212928 172.50218973 411.750123487 120.754882812 357.54296875 c 0
 113.109197482 349.533731776 109.688682897 339.841631541 109.688682897 330.327956141 c 0
 109.688682897 309.711844262 125.751004316 289.93359375 149.6875 289.93359375 c 0
 161.061523438 289.93359375 171.333984375 294.69140625 178.620117188 302.32421875 c 0
 217.94140625 343.514648438 247.522460938 353.65234375 265.086914062 353.65234375 c 0
 289.292026741 353.65234375 325.584299621 335.62156139 342.169921875 236.454101562 c 1
 311.474828947 254.491203005 276.388570575 263.027092344 241.820730791 263.027092344 c 0
 153.673621153 263.027092344 68.8974609375 207.52358242 68.8974609375 112.522460938 c 0
148.897460938 112.522460938 m 0
 148.897460938 157.280695944 194.079375282 183.324199989 241.426851358 183.324199989 c 0
 290.284348262 183.324199989 341.447739105 155.593031078 347.65234375 92.078125 c 1
 318.596679688 78.2568359375 275.641601562 60.5927734375 222.137695312 60.5927734375 c 0
 186.353515625 60.5927734375 148.897460938 69.3388671875 148.897460938 112.522460938 c 0
EndSplineSet
EndChar

StartChar: b
Encoding: 98 98 66
Width: 500
Flags: HW
LayerCount: 2
Fore
SplineSet
140.110351562 377.702148438 m 1
 139.687443972 417.733229687 135.880238293 559.370914305 135.880238293 660.806805519 c 0
 135.880238293 678.126534335 135.991233753 694.274218102 136.249023438 708.543945312 c 0
 136.249023438 733.940429688 116.094726562 749.279296875 96.255859375 749.279296875 c 0
 74.4248046875 749.279296875 56.6552734375 731.752929688 56.2626953125 710.014648438 c 0
 55.8917496422 689.48762758 55.7349856716 669.459537306 55.7349856716 649.738777545 c 0
 55.7349856716 542.05410729 60.4091796875 443.533037798 60.4091796875 322.98046875 c 0
 60.4091796875 162.499023438 50.869140625 36.56640625 50.869140625 33.671875 c 0
 50.869140625 13.6826171875 65.5634765625 -2.9013671875 84.7294921875 -5.859375 c 0
 102.961694779 -8.67249645974 135.196354463 -13.2912341164 173.283513479 -13.2912341164 c 0
 250.450667033 -13.2912341164 351.642033944 5.66845005094 409.075195312 97.0185546875 c 0
 440.60546875 147.16796875 449.130859375 203.293945312 449.130859375 249.849609375 c 0
 449.130859375 362.924804688 388.0234375 443.620117188 289.869140625 443.620117188 c 0
 232.059570312 443.620117188 180.400390625 427.599609375 140.110351562 377.702148438 c 1
134.124023438 68.6435546875 m 1
 161.024639637 343.159617013 220.845426773 363.620117188 289.869140625 363.620117188 c 0
 347.025666448 363.620117188 369.378871976 308.947171882 369.378871976 250.305125472 c 0
 369.378871976 209.651893988 358.636214653 167.091164584 341.298828125 139.515625 c 0
 325.412016401 114.246381431 286.488454744 66.7610415385 174.532968848 66.7610415385 c 0
 162.00167502 66.7610415385 148.555396535 67.3559643465 134.124023438 68.6435546875 c 1
EndSplineSet
EndChar

StartChar: c
Encoding: 99 99 67
Width: 500
Flags: HW
LayerCount: 2
Fore
SplineSet
135.237304688 162.071289062 m 0
 135.237304688 264.19140625 201.236328125 355.608398438 275.045898438 355.608398438 c 0
 321.134765625 355.608398438 350.375 335.955078125 373.05859375 306.513671875 c 0
 381.348705458 295.753571874 392.856173597 290.954271953 404.227995819 290.954271953 c 0
 424.715483049 290.954271953 444.762695312 306.531678677 444.762695312 330.89453125 c 0
 444.762695312 340.068359375 441.66796875 348.524414062 436.466796875 355.275390625 c 0
 402.411132812 399.477539062 351.260742188 435.608398438 275.045898438 435.608398438 c 0
 156.59375 435.608398438 55.2373046875 311.71484375 55.2373046875 162.071289062 c 0
 55.2373046875 37.147327256 158.45256503 -13.7403100017 254.814033035 -13.7403100017 c 0
 290.847603541 -13.7403100017 325.922791885 -6.62457006657 354.284179688 6.396484375 c 0
 390.72265625 23.125 417.888671875 50.56640625 436.244140625 82.8330078125 c 0
 439.840063112 89.1541383307 441.482592074 95.8614843716 441.482592074 102.410435134 c 0
 441.482592074 123.295325524 424.778072635 142.569335938 401.451171875 142.569335938 c 0
 386.549804688 142.569335938 373.540039062 134.403320312 366.658203125 122.305664062 c 0
 351.823242188 96.2275390625 325.654296875 66.724609375 253.360351562 66.724609375 c 0
 211.501953125 66.724609375 135.237304688 78.228515625 135.237304688 162.071289062 c 0
EndSplineSet
EndChar

StartChar: d
Encoding: 100 100 68
Width: 500
Flags: HW
LayerCount: 2
Fore
SplineSet
268.270507812 458.147460938 m 0
 148.166992188 458.147460938 42.2158203125 354.877929688 42.2158203125 198.385742188 c 0
 42.2158203125 36.6983929353 141.338007508 -7.51974576495 224.155948903 -7.51974576495 c 0
 252.558639357 -7.51974576495 279.043673326 -2.31894092862 298.955078125 5.1279296875 c 0
 380.188330849 35.5109834834 457.784179688 125.933728251 457.784179688 360.5 c 0
 457.784179688 489.297851562 454.640625 598.403320312 433.403320312 711.151367188 c 0
 429.913085938 729.6796875 413.629882812 743.713867188 394.094726562 743.713867188 c 0
 371.620235824 743.713867188 354.083449857 725.328293964 354.083449857 703.756992124 c 0
 354.083449857 701.297358189 354.31145164 698.7963055 354.786132812 696.276367188 c 0
 371.166992188 609.3125 376.19921875 523.333984375 377.436523438 423.615234375 c 1
 347.504882812 444.698242188 311.2421875 458.147460938 268.270507812 458.147460938 c 0
226.944335938 72.546875 m 0
 180.477475653 72.546875 122.215820312 85.6889468193 122.215820312 198.385742188 c 0
 122.215820312 306.700195312 188.9375 378.147460938 268.270507812 378.147460938 c 0
 315.502929688 378.147460938 349.627929688 352.294921875 376.283203125 308.438476562 c 1
 369.166015625 190.424804688 335.009765625 72.546875 226.944335938 72.546875 c 0
EndSplineSet
EndChar

StartChar: e
Encoding: 101 101 69
Width: 500
Flags: HW
LayerCount: 2
Fore
SplineSet
61.5263671875 192.0625 m 0
 61.5263671875 34.2763671875 174.0078125 -14.7001953125 254.27734375 -14.7001953125 c 0
 326.331054688 -14.7001953125 397.538085938 25.7294921875 437.75 92.400390625 c 0
 441.70291409 98.9541795867 443.503268911 105.976883711 443.503268911 112.834949521 c 0
 443.503268911 133.686777705 426.859829294 153.016601562 403.47265625 153.016601562 c 0
 388.935546875 153.016601562 376.19921875 145.245117188 369.1953125 133.6328125 c 0
 343.229492188 90.5830078125 296.354492188 65.2998046875 254.27734375 65.2998046875 c 0
 226.439222403 65.2998046875 147.673251459 74.5797581339 141.880859375 178.923828125 c 1
 165.862415712 169.281245928 189.904358926 164.936783042 213.135616841 164.936783042 c 0
 313.420063095 164.936783042 398.59765625 245.894415697 398.59765625 331.095703125 c 0
 398.59765625 392.35546875 352.072265625 437.637695312 289.168945312 437.637695312 c 0
 148.046875 437.637695312 61.5263671875 297.013671875 61.5263671875 192.0625 c 0
157.657226562 259.770507812 m 1
 167.461914062 281.8125 207.150390625 357.637695312 289.168945312 357.637695312 c 0
 300.088867188 357.637695312 318.59765625 354.225585938 318.59765625 331.095703125 c 0
 318.59765625 292.927094252 271.392474875 244.929727583 212.926614318 244.929727583 c 0
 195.204437068 244.929727583 176.447608431 249.339811665 157.657226562 259.770507812 c 1
EndSplineSet
EndChar

StartChar: f
Encoding: 102 102 70
Width: 500
Flags: HW
LayerCount: 2
Fore
SplineSet
197.679879081 398.094686548 m 1
 198.348879033 506.868387542 207.752202166 668.958007812 257.858398438 668.958007812 c 0
 275.875793689 668.958007812 323.708961437 655.544429803 357.26953125 523.2890625 c 0
 361.6640625 505.971679688 377.368164062 493.14453125 396.043945312 493.14453125 c 0
 418.69638016 493.14453125 436.061590986 511.728943346 436.061590986 533.118420968 c 0
 436.061590986 536.366025811 435.661272114 539.678295615 434.818359375 543 c 0
 393.849275709 704.452856616 320.006334549 748.888798506 261.578201519 748.888798506 c 0
 232.439626102 748.888798506 207.134862004 737.837151575 191.653320312 724.736328125 c 0
 134.843295305 676.663375308 118.255856553 566.027842408 117.481902749 396.90108735 c 1
 109.860200595 397.195262155 105.183265394 397.572265625 104.998046875 397.572265625 c 0
 82.921875 397.572265625 64.998046875 379.6484375 64.998046875 357.572265625 c 0
 64.998046875 318.420207343 104.292186879 317.217512397 118.092803325 316.795110186 c 1
 119.451693271 237.945213392 122.502929688 158.461478257 122.502929688 89.888671875 c 0
 122.502929688 49.3095703125 121.412109375 29.8984375 121.412109375 27.0693359375 c 0
 121.412109375 4.9931640625 139.3359375 -12.9306640625 161.412109375 -12.9306640625 c 0
 182.94921875 -12.9306640625 200.534179688 4.1279296875 201.379882812 25.4599609375 c 0
 202.125882685 44.2688056014 202.42441301 64.771885439 202.42441301 86.5305014111 c 0
 202.42441301 155.703553084 199.407242935 237.565989142 198.158389148 318.022205637 c 1
 229.983218266 319.176838067 262.44389146 320.590820312 287.711914062 320.590820312 c 0
 299.748046875 320.590820312 309.034179688 320.094726562 309.25 320.094726562 c 0
 331.326171875 320.094726562 349.25 338.018554688 349.25 360.094726562 c 0
 349.25 381.3984375 332.559570312 398.834960938 311.551757812 400.029296875 c 0
 304.921927739 400.406325855 297.01394003 400.563657296 288.208652202 400.563657296 c 0
 262.51773938 400.563657296 229.18829842 399.224327663 197.679879081 398.094686548 c 1
EndSplineSet
EndChar

StartChar: g
Encoding: 103 103 71
Width: 500
Flags: HW
LayerCount: 2
Fore
SplineSet
268.354492188 439.672851562 m 0
 169.622858289 439.672851562 63.9462890625 323.357655548 63.9462890625 200.879882812 c 0
 63.9462890625 110.248046875 124.118164062 29.59375 223.69140625 29.59375 c 0
 254.94921875 29.59375 312.984375 42.2333984375 360.732421875 124.17578125 c 1
 361.376283946 106.614222776 361.936325286 88.3132449663 361.936325286 70.0690392875 c 0
 361.936325286 -15.9728136073 349.480007615 -100.751953125 274.614257812 -100.751953125 c 0
 201.1015625 -100.751953125 139.80078125 -56.162109375 137.268554688 -21.3818359375 c 0
 135.760742188 -0.67578125 118.462890625 15.677734375 97.375 15.677734375 c 0
 75.2065483786 15.677734375 57.3733872255 -2.35510541994 57.3733872255 -24.29851254 c 0
 57.3733872255 -25.2791831647 57.4090049808 -26.267664274 57.4814453125 -27.2626953125 c 0
 63.3798828125 -108.266601562 159.360351562 -180.751953125 274.614257812 -180.751953125 c 0
 336.561523438 -180.751953125 442.088867188 -149.583984375 442.088867188 62.8017578125 c 0
 442.088867188 134.297851562 435.08203125 284.486328125 422.328125 352.958984375 c 0
 417.897391547 376.741597761 356.995734846 439.672851562 268.354492188 439.672851562 c 0
143.946289062 200.879882812 m 0
 143.946289062 283.035450094 219.496826265 359.672851562 268.354492188 359.672851562 c 0
 298.932617188 359.672851562 322.514648438 348.21484375 341.09375 331.383789062 c 1
 335.282226562 286.005859375 316.8203125 181.174804688 266.412109375 130.823242188 c 0
 250.3671875 114.796875 236.291992188 109.59375 223.69140625 109.59375 c 0
 160.078125 109.59375 143.946289062 167.447265625 143.946289062 200.879882812 c 0
EndSplineSet
EndChar

StartChar: h
Encoding: 104 104 72
Width: 500
Flags: HW
LayerCount: 2
Fore
SplineSet
294 365.805664062 m 0
 343.941899345 365.805664062 363.3203125 246.425671976 363.3203125 114.751953125 c 0
 363.3203125 86.693359375 361.868164062 29.2412109375 361.868164062 28.376953125 c 0
 361.868164062 6.30078125 379.791992188 -11.623046875 401.868164062 -11.623046875 c 0
 423.787109375 -11.623046875 441.612304688 6.0458984375 441.865234375 27.90625 c 0
 441.875 28.7744140625 443.3203125 84.9775390625 443.3203125 114.751953125 c 0
 443.3203125 200.332852733 441.392033262 445.805664062 294 445.805664062 c 0
 248.821289062 445.805664062 188.459960938 430.353515625 140.436523438 362.80859375 c 1
 139.758789062 507.62890625 138.150390625 652.927734375 136.59765625 706.994140625 c 0
 135.978515625 728.53125 118.299804688 745.826171875 96.6142578125 745.826171875 c 0
 74.5380859375 745.826171875 56.6142578125 727.90234375 56.6142578125 705.826171875 c 0
 56.6142578125 701.064453125 60.7705078125 527.298828125 60.7705078125 229.684570312 c 0
 60.7705078125 64.912109375 58.8515625 29.4794921875 58.8515625 27.45703125 c 0
 58.8515625 5.380859375 76.775390625 -12.54296875 98.8515625 -12.54296875 c 0
 120.41796875 -12.54296875 138.021484375 4.5625 138.823242188 25.9345703125 c 0
 141.865232818 107.048681439 154.426970962 365.805664062 294 365.805664062 c 0
EndSplineSet
EndChar

StartChar: i
Encoding: 105 105 73
Width: 500
Flags: HW
LayerCount: 2
Fore
SplineSet
278.25390625 618.666992188 m 0
 265.929924839 632.108783197 250.197407235 638.107825015 234.712558506 638.107825015 c 0
 203.876939958 638.107825015 174.0234375 614.318983978 174.0234375 578.141601562 c 0
 174.0234375 562.05078125 180.092773438 543.450195312 200.93359375 527.013671875 c 0
 212.207022941 518.122665755 225.036957079 514.121116273 237.593144604 514.121116273 c 0
 268.656253637 514.121116273 298.043945312 538.611886702 298.043945312 574.149414062 c 0
 298.043945312 591.801757812 290.404296875 607.68359375 278.25390625 618.666992188 c 0
432.149414062 112.65234375 m 0
 432.681889051 115.316822918 432.937118604 117.962814524 432.937118604 120.563375123 c 0
 432.937118604 142.100973676 415.430931777 160.522460937 392.924804688 160.522460938 c 0
 373.541992188 160.522460938 357.360351562 146.706054688 353.700195312 128.392578125 c 0
 348.146484375 100.6015625 316.897460938 62.603515625 272.698242188 62.603515625 c 0
 249.057617188 62.603515625 237.216796875 73.01953125 228.0234375 91.31640625 c 0
 218.29187967 110.685862251 210.085657792 144.036791177 210.085657792 200.411412941 c 0
 210.085657792 247.489956109 215.808634831 310.625104551 231.145507812 395.083007812 c 0
 231.587562947 397.517215487 231.80015855 399.932495894 231.80015855 402.308677594 c 0
 231.80015855 423.900902203 214.24560605 442.264648438 191.790039062 442.264648438 c 0
 172.165039062 442.264648438 155.821289062 428.100585938 152.434570312 409.446289062 c 0
 138.439657066 332.379191568 130.006405856 261.797952496 130.006405856 201.111657991 c 0
 130.006405856 100.664197514 153.110647561 27.3255216837 212.340820312 -3.4453125 c 0
 231.005512283 -13.1420867026 251.389393517 -17.6290962178 272.000810821 -17.6290962178 c 0
 343.030427933 -17.6290962178 416.762220143 35.6577755172 432.149414062 112.65234375 c 0
EndSplineSet
EndChar

StartChar: j
Encoding: 106 106 74
Width: 500
Flags: HW
LayerCount: 2
Fore
SplineSet
233.356445312 565.854492188 m 0
 233.356445312 532.25390625 262.852539062 502.22265625 296.911132812 502.22265625 c 0
 333.042503094 502.22265625 356.156307276 531.332291182 356.156307276 562.192069095 c 0
 356.156307276 577.456155399 350.501374287 593.148424843 337.969726562 605.958007812 c 0
 325.061436876 619.152914379 308.97411544 625.103021595 293.315869821 625.103021595 c 0
 262.505520952 625.103021595 233.356445313 602.065708708 233.356445312 565.854492188 c 0
60.349609375 70.97265625 m 0
 37.9090264281 70.97265625 20.3394621194 52.6250464512 20.3394621194 31.0164593813 c 0
 20.3394621194 28.7052120209 20.5404644567 26.3566578701 20.9580078125 23.9892578125 c 0
 48.1158996557 -129.974498684 131.570952318 -176.806962009 204.161028222 -176.806962009 c 0
 242.270952472 -176.806962009 277.386196381 -163.898673259 299.788085938 -146.807617188 c 0
 353.991788622 -105.452691026 389.452672064 -21.0457537191 389.452672064 134.580963269 c 0
 389.452672064 205.738290605 382.039219816 291.784824992 365.614257812 395.413085938 c 0
 362.588867188 414.5 346.041015625 429.112304688 326.108398438 429.112304688 c 0
 303.717382722 429.112304688 286.100207341 410.82206176 286.100207341 389.156058048 c 0
 286.100207341 387.068114729 286.263819683 384.948820406 286.602539062 382.811523438 c 0
 295.912722659 324.071818662 309.079081384 224.524086434 309.079081384 131.309723639 c 0
 309.079081384 12.1600823676 287.566848461 -96.6416015625 208.991210938 -96.6416015625 c 0
 185.108398438 -96.6416015625 123.0859375 -94.396484375 99.7412109375 37.9560546875 c 0
 96.43359375 56.7080078125 80.0439453125 70.97265625 60.349609375 70.97265625 c 0
EndSplineSet
EndChar

StartChar: k
Encoding: 107 107 75
Width: 500
Flags: HW
LayerCount: 2
Fore
SplineSet
403.692382812 388.4375 m 0
 411.026202775 396.377004067 414.309928847 405.87175099 414.309928847 415.186113674 c 0
 414.309928847 435.817292165 398.199440512 455.563476562 374.306640625 455.563476562 c 0
 355.522289189 455.563476562 352.304815355 451.867275411 311.868164062 405.4140625 c 0
 270.213165223 357.562055942 220.125014644 300.206672735 149.448414457 249.095651485 c 1
 152.090699137 356.658747133 159.429863422 464.216836786 159.429863422 574.237976671 c 0
 159.429863422 618.811647725 158.225240462 663.789594626 155.015625 709.3359375 c 0
 153.552734375 730.0859375 136.234375 746.48828125 115.115234375 746.48828125 c 0
 93.0390625 746.48828125 75.115234375 728.564453125 75.115234375 706.48828125 c 0
 75.115234375 700.889648438 79.43359375 656.163085938 79.43359375 574.216796875 c 0
 79.43359375 441.942848853 68.5065749058 312.041221124 68.5065749058 178.2571536 c 0
 68.5065749058 130.665777639 69.8893432311 82.5830952345 73.638671875 33.7275390625 c 0
 75.22265625 13.095703125 92.486328125 -3.1748046875 113.520507812 -3.1748046875 c 0
 135.596679688 -3.1748046875 153.520507812 14.7490234375 153.520507812 36.8251953125 c 0
 153.520507812 42.1877843556 149.661178503 79.2742711304 148.719846716 147.838075174 c 1
 175.519118649 157.097177873 195.058874317 160.759765625 208.741210938 160.759765625 c 0
 242.048828125 160.759765625 260.618164062 141.673828125 315.12109375 72.8173828125 c 0
 330.516601562 53.3671875 348.225585938 30.986328125 369.333007812 6.22265625 c 0
 377.607481544 -3.48571467151 388.527030814 -7.81586165043 399.292370009 -7.81586165043 c 0
 419.819091129 -7.81586165043 439.78515625 7.92709739006 439.78515625 32.1474609375 c 0
 439.78515625 42.0341796875 436.190429688 51.087890625 430.237304688 58.072265625 c 0
 410.240234375 81.53515625 393.26953125 102.966796875 377.879882812 122.41015625 c 0
 339.697265625 170.6484375 306.498046875 215.219726562 256.734375 232.8203125 c 1
 304.895507812 275.485351562 342.025390625 318.236328125 372.225585938 352.928710938 c 0
 383.720703125 366.133789062 394.1875 378.146484375 403.692382812 388.4375 c 0
EndSplineSet
EndChar

StartChar: l
Encoding: 108 108 76
Width: 500
Flags: HW
LayerCount: 2
Fore
SplineSet
234.0859375 62.5771484375 m 0
 205.54302447 62.5771484375 197.66796875 141.783219439 197.66796875 229.112304688 c 0
 197.66796875 355.201171875 245.939453125 564.224609375 245.939453125 716.5859375 c 0
 245.939453125 738.662109375 228.015625 756.5859375 205.939453125 756.5859375 c 0
 183.86328125 756.5859375 165.939453125 738.662109375 165.939453125 716.5859375 c 0
 165.939453125 572.33203125 117.66796875 364.49609375 117.66796875 229.112304688 c 0
 117.66796875 116.1328125 128.193359375 42.1337890625 172.491210938 4.5908203125 c 0
 190.459589385 -10.6375531827 213.159002959 -17.3801463222 237.877706138 -17.3801463222 c 0
 327.036661688 -17.3801463222 442.466652616 70.3412495592 456.915039062 163.982421875 c 0
 457.236305408 166.064955127 457.3916132 168.129801088 457.3916132 170.164662397 c 0
 457.3916132 191.844724845 439.761923305 210.12109375 417.383789062 210.12109375 c 0
 397.39453125 210.12109375 380.809570312 195.426757812 377.852539062 176.259765625 c 0
 370.7265625 130.072265625 296.993164062 62.5771484375 234.0859375 62.5771484375 c 0
EndSplineSet
EndChar

StartChar: m
Encoding: 109 109 77
Width: 500
Flags: HW
LayerCount: 2
Fore
SplineSet
270.84765625 387.491210938 m 1
 254.978307826 428.610315466 227.844818466 445.223335763 200.383004729 445.223335763 c 0
 175.023490133 445.223335763 149.383995821 431.056526904 132.076171875 408.938476562 c 1
 131.140625 437.729492188 108.3671875 449.180664062 92.046875 449.180664062 c 0
 69.970703125 449.180664062 52.046875 431.256835938 52.046875 409.180664062 c 0
 52.046875 405.32421875 54.2353515625 352.74609375 54.2353515625 278.434570312 c 0
 54.2353515625 187.036132812 50.171875 66.1376953125 50.171875 30.95703125 c 0
 50.171875 8.880859375 68.095703125 -9.04296875 90.171875 -9.04296875 c 0
 109.481445312 -9.04296875 125.614257812 4.669921875 129.354492188 22.8798828125 c 0
 149.008789062 118.57421875 156.034179688 311.678710938 195.645507812 359.97265625 c 1
 212.092773438 318.9921875 213.52734375 223.034179688 213.52734375 161.875976562 c 0
 213.52734375 155.334960938 213.124023438 75.8857421875 213.124023438 75.017578125 c 0
 213.124023438 58.2490234375 213.283203125 43.28125 213.901367188 30.435546875 c 0
 214.919921875 9.263671875 232.431640625 -7.61328125 253.854492188 -7.61328125 c 0
 275.930664062 -7.61328125 293.854492188 10.310546875 293.854492188 32.38671875 c 0
 293.854492188 33.580078125 293.69140625 38.56640625 293.69140625 47.98046875 c 0
 293.69140625 51.1300476069 296.958020608 292.132228051 346.9921875 358.395507812 c 1
 357.377929688 335.438476562 369.784179688 277.29296875 369.784179688 151.986328125 c 0
 369.784179688 88.826171875 366.649414062 33.9130859375 366.649414062 30.248046875 c 0
 366.649414062 8.171875 384.573242188 -9.751953125 406.649414062 -9.751953125 c 0
 428.08203125 -9.751953125 445.599609375 7.140625 446.603515625 28.326171875 c 0
 448.833046697 75.352945168 449.84244952 116.778828315 449.84244952 153.307152635 c 0
 449.84244952 359.000754388 417.835330818 409.397835083 391.447265625 430.08203125 c 0
 380.085853838 438.987704456 365.59560724 444.308549095 350.062238844 444.308549095 c 0
 323.177567017 444.308549095 293.168160022 428.369633422 270.84765625 387.491210938 c 1
EndSplineSet
EndChar

StartChar: n
Encoding: 110 110 78
Width: 500
Flags: HW
LayerCount: 2
Fore
SplineSet
283.262695312 361.977539062 m 0
 340.693390297 361.977539062 346.680664062 184.83127806 346.680664062 110.822265625 c 0
 346.680664062 69.6943359375 345.067382812 30.359375 345.067382812 29.546875 c 0
 345.067382812 7.470703125 362.991210938 -10.453125 385.067382812 -10.453125 c 0
 406.638671875 -10.453125 424.245117188 6.66015625 425.0390625 28.0390625 c 0
 426.079251632 56.0476845592 426.789747947 84.8270886306 426.789747947 113.536446669 c 0
 426.789747947 278.919209461 403.212378292 441.977539062 283.262695312 441.977539062 c 0
 247.80859375 441.977539062 197.571289062 429.91796875 156.041992188 373.668945312 c 1
 155.776367188 384.208007812 155.461914062 395.025390625 155.094726562 406.15625 c 0
 154.387695312 427.61328125 136.745117188 444.81640625 115.1171875 444.81640625 c 0
 93.041015625 444.81640625 75.1171875 426.892578125 75.1171875 404.81640625 c 0
 75.1171875 400.978515625 77.291015625 348.9296875 77.291015625 275.337890625 c 0
 77.291015625 184.834960938 73.2548828125 65.11328125 73.2548828125 30.2490234375 c 0
 73.2548828125 8.1728515625 91.1787109375 -9.7509765625 113.254882812 -9.7509765625 c 0
 134.78515625 -9.7509765625 152.365234375 7.2958984375 153.22265625 28.6181640625 c 0
 157.762102284 141.582447229 179.867892222 361.977539062 283.262695312 361.977539062 c 0
EndSplineSet
EndChar

StartChar: o
Encoding: 111 111 79
Width: 500
Flags: HW
LayerCount: 2
Fore
SplineSet
241.528320312 -13.6748046875 m 0
 353.415839533 -13.6748046875 457.890625 97.051354713 457.890625 198.499023438 c 0
 457.890625 364.32421875 360.510742188 442.46875 257.119140625 442.46875 c 0
 139.84765625 442.46875 42.109375 361.619140625 42.109375 194.342773438 c 0
 42.109375 64.3271484375 130.447265625 -13.6748046875 241.528320312 -13.6748046875 c 0
241.528320312 66.3251953125 m 0
 219.174388852 66.3251953125 122.109375 73.2945223562 122.109375 194.342773438 c 0
 122.109375 252.345703125 137.819335938 362.46875 257.119140625 362.46875 c 0
 335.390625 362.46875 377.890625 295.924804688 377.890625 198.499023438 c 0
 377.890625 141.233703156 307.638372787 66.3251953125 241.528320312 66.3251953125 c 0
EndSplineSet
EndChar

StartChar: p
Encoding: 112 112 80
Width: 500
Flags: HW
LayerCount: 2
Fore
SplineSet
277.8359375 352.34375 m 0
 337.900390625 352.34375 371.58203125 286.611328125 371.58203125 208.232421875 c 0
 371.58203125 138.58203125 297.569335938 63.00390625 137.99609375 52.0341796875 c 1
 150.831054688 345.891601562 238.665039062 352.34375 277.8359375 352.34375 c 0
451.58203125 208.232421875 m 0
 451.58203125 345.34765625 374.999023438 432.34375 277.8359375 432.34375 c 0
 207.16294257 432.34375 158.900166325 399.546495462 125.9962464 348.858898197 c 1
 120.390191586 364.181954528 105.672778886 375.130859375 88.41796875 375.130859375 c 1
 66.341796875 375.130859375 48.41796875 357.20703125 48.41796875 335.130859375 c 0
 48.41796875 320.20703125 63.806640625 290.665039062 63.806640625 209.700195312 c 0
 63.806640625 139.573506067 52.5083451887 63.897193358 52.5083451887 -37.0596162565 c 0
 52.5083451887 -71.9402060286 53.8570264714 -109.838537121 57.486328125 -151.568359375 c 0
 59.2646484375 -172.005859375 76.439453125 -188.063476562 97.3349609375 -188.063476562 c 0
 119.411132812 -188.063476562 137.334960938 -170.139648438 137.334960938 -148.063476562 c 0
 137.334960938 -146.953125 132.513671875 -96.294921875 132.513671875 -37.1064453125 c 0
 132.513671875 -34.1960944595 132.523637741 -31.3067388003 132.542977367 -28.437742068 c 0
 354.774108869 -17.049688253 451.58203125 102.693997078 451.58203125 208.232421875 c 0
EndSplineSet
EndChar

StartChar: q
Encoding: 113 113 81
Width: 500
Flags: HW
LayerCount: 2
Fore
SplineSet
435.14453125 346.549804688 m 0
 435.14453125 378.930865988 372.81569342 441.458984375 289.446289062 441.458984375 c 0
 162.056640625 441.458984375 64.85546875 291.541015625 64.85546875 174.1328125 c 0
 64.85546875 116.461914062 74.4912109375 73.5673828125 93.6162109375 41.5732421875 c 0
 105.631835938 21.4716796875 135.85546875 -16.5107421875 192.682617188 -16.5107421875 c 0
 224.2578125 -16.5107421875 287.278320312 -5.208984375 346.706054688 72.6708984375 c 1
 342.782226562 -93.341796875 335.15234375 -158.852539062 335.15234375 -161.194335938 c 0
 335.15234375 -183.270507812 353.076171875 -201.194335938 375.15234375 -201.194335938 c 0
 396.017578125 -201.194335938 413.172851562 -185.184570312 414.993164062 -164.7890625 c 0
 423.763671875 -66.505859375 425.668945312 22.4521484375 427.747070312 118.401367188 c 0
 431.72265625 302.018554688 435.14453125 342.2578125 435.14453125 346.549804688 c 0
192.682617188 63.4892578125 m 0
 177.331263479 63.4892578125 144.85546875 75.1846767475 144.85546875 174.1328125 c 0
 144.85546875 252.55859375 213.225585938 361.458984375 289.446289062 361.458984375 c 0
 309.82421875 361.458984375 335.62890625 353.533203125 354.146484375 333.88671875 c 1
 339.926757812 163.850585938 257.797851562 63.4892578125 192.682617188 63.4892578125 c 0
EndSplineSet
EndChar

StartChar: r
Encoding: 114 114 82
Width: 500
Flags: HW
LayerCount: 2
Fore
SplineSet
285.04296875 450.336914062 m 0
 248.62109375 450.336914062 197.33203125 438.025390625 155.384765625 380.905273438 c 1
 155.107421875 391.845703125 154.78125 403.076171875 154.3984375 414.630859375 c 0
 153.689453125 436.0859375 136.047851562 453.287109375 114.420898438 453.287109375 c 0
 92.3447265625 453.287109375 74.4208984375 435.36328125 74.4208984375 413.287109375 c 0
 74.4208984375 409.3515625 76.6865234375 355.209960938 76.6865234375 278.73046875 c 0
 76.6865234375 184.668945312 72.48046875 60.25390625 72.48046875 24.0478515625 c 0
 72.48046875 1.9716796875 90.404296875 -15.9521484375 112.48046875 -15.9521484375 c 0
 134.008789062 -15.9521484375 151.587890625 1.0927734375 152.447265625 22.412109375 c 0
 159.635529512 200.722141414 191.150523134 370.336914062 285.04296875 370.336914062 c 0
 305.346679688 370.336914062 335.263671875 353.212890625 349.365234375 291.103515625 c 0
 353.408203125 273.293945312 369.348632812 259.983398438 388.374023438 259.983398438 c 0
 410.955047381 259.983398438 428.389049089 278.488636872 428.389049089 299.947979201 c 0
 428.389049089 302.877872015 428.064060784 305.862832463 427.3828125 308.86328125 c 0
 409.05078125 389.611328125 357.049804688 450.336914062 285.04296875 450.336914062 c 0
EndSplineSet
EndChar

StartChar: s
Encoding: 115 115 83
Width: 500
Flags: HW
LayerCount: 2
Fore
SplineSet
166.54296875 305.740234375 m 0
 165.603314828 307.114716422 165.150758129 308.79398104 165.150758129 310.702700831 c 0
 165.150758129 327.747166304 201.23814353 363.088647873 248.817591689 363.088647873 c 0
 276.19201204 363.088647873 307.37050722 351.389996089 337.668945312 317.77734375 c 0
 345.902109962 308.64318879 356.491407442 304.567389348 366.9178996 304.567389348 c 0
 387.467538949 304.567389348 407.384765625 320.399717118 407.384765625 344.541992188 c 0
 407.384765625 354.830078125 403.4921875 364.216796875 397.100585938 371.306640625 c 0
 350.862212212 422.602983551 297.578074922 442.899253273 248.28417815 442.899253273 c 0
 160.413719279 442.899253273 85.22265625 378.405788093 85.22265625 310.048828125 c 0
 85.22265625 295.859375 88.5556640625 216.734375 219.470703125 206.790039062 c 0
 310.653369309 199.862468513 343.933623698 168.131868215 343.933623698 136.052282988 c 0
 343.933623698 98.8492009126 299.173942036 61.1767578125 248.05859375 61.1767578125 c 0
 218.375976562 61.1767578125 182.208007812 72.7158203125 143.307617188 108.5625 c 0
 135.373453066 115.874043571 125.892817495 119.148018301 116.592635861 119.148018301 c 0
 95.9601529125 119.148018301 76.2158203125 103.034311695 76.2158203125 79.14453125 c 0
 76.2158203125 67.5146484375 81.189453125 57.0380859375 89.1240234375 49.7265625 c 0
 142.033533343 0.970163237326 197.603460132 -18.7844893868 247.940614323 -18.7844893868 c 0
 345.994892523 -18.7844893868 424.193359375 56.1747503683 424.193359375 137.743164062 c 0
 424.193359375 165.504679116 411.984972178 272.40190048 225.603515625 286.557617188 c 0
 221.474609375 286.87109375 176.899414062 290.591796875 166.54296875 305.740234375 c 0
EndSplineSet
EndChar

StartChar: t
Encoding: 116 116 84
Width: 500
Flags: HW
LayerCount: 2
Fore
SplineSet
240.043945312 342.346679688 m 0
 240.916992188 342.346679688 296.024414062 342.836914062 327.390625 342.836914062 c 0
 349.466796875 342.836914062 367.390625 360.760742188 367.390625 382.836914062 c 0
 367.390625 404.758789062 349.717773438 422.584960938 327.854492188 422.833984375 c 0
 326.769408219 422.846349739 325.102992798 422.851943805 322.975013508 422.851943805 c 0
 302.751210334 422.851943805 240.838292574 422.346679688 240.043945312 422.346679688 c 0
 220.698186351 422.346679688 201.220180615 422.692623236 183.653829264 423.63111926 c 1
 191.386335081 483.833606108 199.255537933 537.709614813 199.255537933 574.52607337 c 0
 199.255537933 582.513861176 198.885113386 589.698610066 198.0625 595.970703125 c 0
 195.491210938 615.573242188 178.703125 630.727539062 158.403320312 630.727539062 c 0
 136.327148438 630.727539062 118.403320312 612.803710938 118.403320312 590.727539062 c 0
 118.403320312 585.547851562 119.396484375 583.93359375 119.396484375 572.91015625 c 0
 119.396484375 514.04370345 88.9431386911 373.877041511 88.9431386911 242.106919309 c 0
 88.9431386911 199.172666292 92.176162758 157.129816647 100.749023438 119.081054688 c 0
 106.818359375 92.1416015625 122.528320312 32.6513671875 169.815429688 3.2041015625 c 0
 187.656044988 -7.90560645193 207.815460683 -12.9440408932 228.691573014 -12.9440408932 c 0
 313.964864188 -12.9440408932 411.196254974 71.1223518121 411.196254974 168.863205362 c 0
 411.196254974 184.779986826 408.617769137 201.059402243 402.989257812 217.397460938 c 0
 397.583007812 233.090820312 382.678710938 244.37890625 365.159179688 244.37890625 c 0
 343.083007812 244.37890625 325.159179688 226.455078125 325.159179688 204.37890625 c 0
 325.159179688 191.48828125 331.217773438 186.696289062 331.217773438 168.622070312 c 0
 331.217773438 115.045797937 267.722523821 66.8885333573 229.007569691 66.8885333573 c 0
 222.506940763 66.8885333573 216.704961951 68.2462685162 212.01953125 71.1640625 c 0
 203.433469211 76.5099169836 168.97995313 106.347660887 168.97995313 240.875399431 c 0
 168.97995313 270.034645987 170.598638578 304.112408566 174.450282842 343.925377618 c 1
 195.775890147 342.620640665 218.137363485 342.346679688 240.043945312 342.346679688 c 0
EndSplineSet
EndChar

StartChar: u
Encoding: 117 117 85
Width: 500
Flags: HW
LayerCount: 2
Fore
SplineSet
264.200195312 70.5400390625 m 0
 196.05600075 70.5400390625 146.752929688 131.958287571 146.752929688 309.682617188 c 0
 146.752929688 357.391601562 150.577148438 398.2421875 150.577148438 403.659179688 c 0
 150.577148438 425.735351562 132.653320312 443.659179688 110.577148438 443.659179688 c 0
 89.4365234375 443.659179688 72.1044921875 427.223632812 70.6728515625 406.444335938 c 0
 68.8333777265 379.749614167 66.7467393855 345.712477759 66.7467393855 308.618431467 c 0
 66.7467393855 204.711001288 83.1198792587 76.8170411279 167.163085938 19.1318359375 c 0
 193.610234914 0.979497052067 228.204942668 -9.6101795933 262.953195094 -9.6101795933 c 0
 296.888280549 -9.6101795933 330.969808361 0.489664224512 357.751953125 23.5087890625 c 0
 430.856445312 86.33984375 431.860351562 216.524414062 432.004882812 331.842773438 c 0
 432.0859375 396.958007812 433.4453125 406.286132812 433.4453125 407.038085938 c 0
 433.4453125 429.114257812 415.521484375 447.038085938 393.4453125 447.038085938 c 0
 372.245117188 447.038085938 354.875 430.509765625 353.529296875 409.646484375 c 0
 349.411132812 345.8046875 356.736328125 242.489257812 342.206054688 165.80078125 c 0
 336.761548324 137.064059515 324.157798461 70.5400390625 264.200195312 70.5400390625 c 0
EndSplineSet
EndChar

StartChar: v
Encoding: 118 118 86
Width: 500
Flags: HW
LayerCount: 2
Fore
SplineSet
137.591796875 428.377929688 m 0
 129.351308168 440.07104885 117.337421967 445.290807675 105.439838612 445.290807675 c 0
 84.9845514033 445.290807675 64.873046875 429.861583527 64.873046875 405.374023438 c 0
 64.873046875 396.813476562 67.5673828125 388.877929688 72.154296875 382.370117188 c 0
 131.366210938 298.348632812 131.017578125 156.329101562 210.23828125 4.8876953125 c 0
 217.733503729 -9.4401541825 231.71156472 -16.5295644517 245.674549123 -16.5295644517 c 0
 260.213845313 -16.5295644517 274.73679468 -8.84285665387 281.907226562 6.3623046875 c 0
 351.698242188 154.361328125 398.525390625 269.576171875 434.91015625 389.212890625 c 0
 436.096606709 393.114080402 436.655666566 397.027094009 436.655666566 400.857488323 c 0
 436.655666566 422.129542933 419.413564183 440.853515625 396.6328125 440.853515625 c 0
 378.604492188 440.853515625 363.345703125 428.900390625 358.35546875 412.494140625 c 0
 330.096679688 319.573242188 295.293945312 229.247070312 246.595703125 120.856445312 c 1
 203.692382812 238.67578125 197.384765625 343.532226562 137.591796875 428.377929688 c 0
EndSplineSet
EndChar

StartChar: w
Encoding: 119 119 87
Width: 500
Flags: HW
LayerCount: 2
Fore
SplineSet
83.130859375 452.240234375 m 0
 60.5706038458 452.240234375 43.1167449774 433.758019041 43.1167449774 412.277875211 c 0
 43.1167449774 409.437964604 43.4218338933 406.545650985 44.060546875 403.63671875 c 0
 66.6103515625 300.928710938 49.81640625 165.96484375 124.409179688 5.3115234375 c 0
 131.581467244 -10.1346057016 146.132505371 -17.7660554229 160.669473664 -17.7660554229 c 0
 175.838152259 -17.7660554229 190.99151163 -9.45693870504 197.73046875 6.953125 c 0
 219.912109375 60.9736328125 233.704101562 101.181640625 245.802734375 144.143554688 c 1
 259.844726562 105.020507812 276.94921875 65.216796875 302.819335938 10.2333984375 c 0
 310.079853095 -5.19776797132 324.498980081 -12.6349116278 338.884551081 -12.6349116278 c 0
 355.277510036 -12.6349116278 371.626894684 -2.97736833368 377.290039062 15.513671875 c 0
 423.8203125 167.456054688 440.5703125 277.211914062 456.821289062 395.018554688 c 0
 457.079151957 396.887549191 457.204210497 398.740486286 457.204210497 400.568605052 c 0
 457.204210497 422.30060887 439.531462525 440.525390625 417.198242188 440.525390625 c 0
 396.990234375 440.525390625 380.26171875 425.506835938 377.575195312 406.032226562 c 0
 365.602539062 319.247070312 353.927734375 240.32421875 330.44921875 145.66015625 c 1
 311.138671875 194.592773438 299.668945312 235.638671875 281.200195312 307.265625 c 0
 276.75390625 324.5078125 261.0859375 337.262695312 242.462890625 337.262695312 c 0
 223.561523438 337.262695312 207.705078125 324.125 203.534179688 306.490234375 c 0
 178.619140625 201.142578125 173.40234375 179.086914062 161.243164062 139.80859375 c 1
 135.103515625 243.204101562 141.075195312 334.87890625 122.201171875 420.84375 c 0
 118.260742188 438.791015625 102.25390625 452.240234375 83.130859375 452.240234375 c 0
EndSplineSet
EndChar

StartChar: x
Encoding: 120 120 88
Width: 500
Flags: HW
LayerCount: 2
Fore
SplineSet
104.51953125 -11.005859375 m 0
 152.654936262 -11.005859375 126.16797929 32.7325285196 244.999900793 168.315218722 c 1
 284.553787098 126.990618395 325.770955836 81.1194350512 366.231445312 14.236328125 c 0
 374.258332972 0.967307005398 387.10535888 -4.97429386862 399.873103132 -4.97429386862 c 0
 420.278526684 -4.97429386862 440.481445312 10.2020218465 440.481445312 34.8974609375 c 0
 440.481445312 42.455078125 438.380859375 49.5263671875 434.731445312 55.55859375 c 0
 388.113641078 132.620732505 340.958063648 183.933969541 298.903454244 227.50822166 c 1
 341.655785045 274.156814562 383.012697281 322.206955789 415.666015625 389.767578125 c 0
 418.401152102 395.426719715 419.660927795 401.299680404 419.660927795 407.033919026 c 0
 419.660927795 428.013792959 402.79743816 447.13671875 379.62890625 447.13671875 c 0
 363.774414062 447.13671875 350.0625 437.893554688 343.591796875 424.505859375 c 0
 317.048393907 369.586566326 281.765407368 327.45844854 243.61290473 285.461765217 c 1
 137.179533471 403.026413912 165.680189205 454.440429688 114.81640625 454.440429688 c 0
 91.8030655016 454.440429688 74.7873301381 435.473314933 74.7873301381 414.387413383 c 0
 74.7873301381 409.438124181 75.7247886073 404.372103344 77.7421875 399.407226562 c 0
 109.206904491 321.971050212 147.652048749 272.03298637 189.6527791 226.290527231 c 1
 146.878490484 178.098138061 103.909636664 123.240543842 68.171875 45.703125 c 0
 65.6519184091 40.2362174824 64.488428917 34.5924289832 64.488428917 29.0813755863 c 0
 64.488428917 8.07335934274 81.3953029363 -11.005859375 104.51953125 -11.005859375 c 0
EndSplineSet
EndChar

StartChar: y
Encoding: 121 121 89
Width: 500
Flags: HW
LayerCount: 2
Fore
SplineSet
240.739257812 106.05859375 m 0
 185.271917376 106.05859375 137.172851562 143.689157706 137.172851562 274.209960938 c 0
 137.172851562 338.094726562 149.220703125 391.830078125 149.220703125 400.763671875 c 0
 149.220703125 422.83984375 131.296875 440.763671875 109.220703125 440.763671875 c 0
 89.4814453125 440.763671875 73.0625 426.434570312 69.8076171875 407.620117188 c 0
 61.9850461891 362.412573176 57.1330291677 317.030105208 57.1330291677 273.996952521 c 0
 57.1330291677 212.642521236 66.996002447 156.063677865 92.1748046875 111.576171875 c 0
 106.333984375 86.55859375 147.420898438 26.05859375 240.739257812 26.05859375 c 0
 274.94921875 26.05859375 324.329101562 36.34375 366.33203125 85.0576171875 c 1
 355.921418709 -106.772555937 304.795667962 -108.010742188 252.986328125 -108.010742188 c 0
 202.340820312 -108.010742188 150.640625 -78.548828125 124.338867188 -41.998046875 c 0
 116.081962 -30.5233456927 104.18582569 -25.4024460353 92.410601937 -25.4024460353 c 0
 71.948026353 -25.4024460353 51.8505859375 -40.8666839482 51.8505859375 -65.3251953125 c 0
 51.8505859375 -100.229097295 139.130445143 -188.010742188 252.986328125 -188.010742188 c 0
 389.268422135 -188.010742188 448.1324942 -105.459784007 448.1324942 152.814321458 c 0
 448.1324942 220.571485498 444.081151225 300.422864454 436.313476562 394.05078125 c 0
 434.612304688 414.564453125 417.40234375 430.705078125 396.452148438 430.705078125 c 0
 374.375976562 430.705078125 356.452148438 412.78125 356.452148438 390.705078125 c 0
 356.452148438 387.4453125 357.940429688 368.747070312 357.940429688 341.916992188 c 0
 357.940429688 295.97176323 351.256311683 106.05859375 240.739257812 106.05859375 c 0
EndSplineSet
EndChar

StartChar: z
Encoding: 122 122 90
Width: 500
Flags: HW
LayerCount: 2
Fore
SplineSet
368.600585938 70.8759765625 m 0
 325.090882569 70.8759765625 273.098251973 74.6331031144 216.618943124 74.6331031144 c 0
 212.629531626 74.6331031144 208.61773478 74.6143577129 204.584960938 74.57421875 c 1
 206.98619293 77.3024085359 379.461615617 276.517168161 420.559570312 366.8828125 c 0
 423.009008116 372.269065006 424.148382238 377.854134091 424.148382238 383.323746662 c 0
 424.148382238 402.107559411 410.710812796 419.529699204 390.749023438 422.861328125 c 0
 310.169921875 436.310546875 212.317382812 434.087890625 126.541992188 439.758789062 c 0
 125.638218843 439.818532596 124.740009785 439.847951288 123.848306599 439.847951288 c 0
 101.885310148 439.847951288 83.869140625 422.000922777 83.869140625 399.846679688 c 0
 83.869140625 378.66796875 100.36328125 361.3125 121.196289062 359.934570312 c 0
 183.622070312 355.807617188 265.336914062 355.059570312 318.032226562 350.94921875 c 1
 307.96875 335.747070312 214.790039062 196.499023438 79.2236328125 56.5615234375 c 0
 71.436766999 48.5232381116 67.954305833 38.7429662429 67.954305833 29.1401333787 c 0
 67.954305833 8.53055048504 83.995102982 -11.26171875 107.951171875 -11.26171875 c 0
 115.390625 -11.26171875 148.857421875 -5.365234375 216.836914062 -5.365234375 c 0
 272.278605445 -5.365234375 321.760092448 -9.12809933258 368.435584907 -9.12809933258 c 0
 376.872275744 -9.12809933258 385.217291084 -9.00516163241 393.489257812 -8.71484375 c 0
 414.907226562 -7.9638671875 432.064453125 9.66015625 432.064453125 31.259765625 c 0
 432.064453125 53.3359375 414.140625 71.259765625 392.064453125 71.259765625 c 0
 390.151367188 71.259765625 382.916992188 70.8759765625 368.600585938 70.8759765625 c 0
EndSplineSet
EndChar

StartChar: braceleft
Encoding: 123 123 91
Width: 500
Flags: HW
LayerCount: 2
Fore
SplineSet
409.1328125 713.095703125 m 0
 409.1328125 747.789873128 372.225367108 759.10546875 324.076171875 759.10546875 c 0
 245.979492188 759.10546875 188.37890625 706.590820312 188.37890625 597.642578125 c 0
 188.37890625 559.563476562 197.095703125 530.31640625 197.095703125 498.866210938 c 0
 197.095703125 429.538085938 163.668945312 415.911132812 129.133789062 413.532226562 c 0
 108.353515625 412.100585938 91.91796875 394.768554688 91.91796875 373.627929688 c 0
 91.91796875 354.024414062 106.05078125 337.6953125 124.674804688 334.283203125 c 0
 187.5859375 322.7578125 192.001953125 294.567382812 192.001953125 268.78515625 c 0
 192.001953125 222.176757812 175.349609375 185.9453125 175.349609375 136.270507812 c 0
 175.349609375 32.0481336088 226.627069373 -32.7538973891 310.454530599 -32.7538973891 c 0
 330.964751373 -32.7538973891 353.42355579 -28.8745679602 377.556640625 -20.744140625 c 0
 393.383789062 -15.4130859375 404.793945312 -0.4423828125 404.793945312 17.1728515625 c 0
 404.793945312 39.2490234375 386.870117188 57.1728515625 364.793945312 57.1728515625 c 0
 354.15772055 57.1728515625 331.740367011 47.054236356 309.912626662 47.054236356 c 0
 301.720819832 47.054236356 293.61205715 48.4793940711 286.240234375 52.3994140625 c 0
 277.708578336 56.935291037 255.349609375 74.6947269622 255.349609375 136.270507812 c 0
 255.349609375 173.975585938 272.001953125 212.868164062 272.001953125 268.78515625 c 0
 272.001953125 309.586914062 258.3515625 346.28515625 230.27734375 372.123046875 c 1
 257.3984375 397.624023438 277.095703125 437.321289062 277.095703125 498.866210938 c 0
 277.095703125 537.667920639 268.37934938 567.204915129 268.37934938 597.700100701 c 0
 268.37934938 598.516762419 268.385600484 599.334111322 268.3984375 600.15234375 c 0
 268.810546875 626.477539062 273.927734375 662.703125 297.635742188 674.060546875 c 0
 305.519323089 677.837240198 314.464387628 679.128313025 323.36000678 679.128313025 c 0
 342.588862115 679.128313025 361.586681119 673.095703125 369.1328125 673.095703125 c 0
 391.208984375 673.095703125 409.1328125 691.01953125 409.1328125 713.095703125 c 0
EndSplineSet
EndChar

StartChar: bar
Encoding: 124 124 92
Width: 500
Flags: HW
LayerCount: 2
Fore
SplineSet
283.33984375 111.836914062 m 0
 283.33984375 251.029296875 296.215820312 398.22265625 296.215820312 527.004882812 c 0
 296.215820312 591.216796875 293.120117188 651.375976562 283.021484375 705.119140625 c 0
 279.538085938 723.655273438 263.250976562 737.698242188 243.708984375 737.698242188 c 0
 221.235874754 737.698242188 203.69822193 719.313685303 203.69822193 697.740297809 c 0
 203.69822193 695.286448783 203.92511982 692.791343442 204.397460938 690.27734375 c 0
 213.200698377 643.428234189 216.171654063 587.965734326 216.171654063 527.24926393 c 0
 216.171654063 401.163708673 203.359746082 252.42100396 203.359746082 111.105506434 c 0
 203.359746082 83.8711406156 203.835594643 56.9126295614 204.970703125 30.4453125 c 0
 205.8828125 9.1748046875 223.439453125 -7.814453125 244.932617188 -7.814453125 c 0
 267.009765625 -7.814453125 284.932617188 10.109375 284.932617188 32.185546875 c 0
 284.932617188 32.982421875 283.33984375 65.5908203125 283.33984375 111.836914062 c 0
EndSplineSet
EndChar

StartChar: braceright
Encoding: 125 125 93
Width: 500
Flags: HW
LayerCount: 2
Fore
SplineSet
326.154296875 610.268554688 m 0
 326.154296875 696.430470337 283.250688733 761.223925786 196.41803893 761.223925786 c 0
 176.702073725 761.223925786 154.721351019 757.883505448 130.463867188 750.694335938 c 0
 113.91796875 745.791015625 101.833984375 730.462890625 101.833984375 712.3359375 c 0
 101.833984375 690.259765625 119.7578125 672.3359375 141.833984375 672.3359375 c 0
 151.157611129 672.3359375 174.880529012 681.382495184 197.087862252 681.382495184 c 0
 205.625728909 681.382495184 213.939575918 680.045317029 221.125 676.342773438 c 0
 243.760742188 664.6796875 246.154296875 626.07421875 246.154296875 610.268554688 c 0
 246.154296875 580.29296875 237.879882812 545.75390625 237.879882812 507.243164062 c 0
 237.879882812 476.337890625 245.498046875 416.084960938 299.2890625 375.881835938 c 1
 290.227539062 366.0078125 243.6015625 315.122070312 243.6015625 229.3203125 c 0
 243.6015625 183.950195312 258.759765625 153.192382812 258.759765625 126.091796875 c 0
 258.759765625 94.74609375 237.379882812 36.2509765625 196.357421875 36.2509765625 c 0
 176.275390625 36.2509765625 168.245117188 46.5732421875 152.001953125 46.5732421875 c 0
 129.92578125 46.5732421875 112.001953125 28.6494140625 112.001953125 6.5732421875 c 0
 112.001953125 -9.708984375 121.751953125 -23.732421875 135.7265625 -29.9716796875 c 0
 157.222087359 -39.5685762935 177.524959254 -43.8475172974 196.373882387 -43.8475172974 c 0
 282.878602096 -43.8475172974 338.759765625 46.2769723664 338.759765625 126.091796875 c 0
 338.759765625 167.110351562 323.6015625 194.809570312 323.6015625 229.3203125 c 0
 323.6015625 295.615234375 366.555664062 338.70703125 394.5703125 346.025390625 c 0
 411.751953125 350.513671875 424.446289062 366.151367188 424.446289062 384.73046875 c 0
 424.446289062 405.341796875 408.823242188 422.333007812 388.784179688 424.497070312 c 0
 339.490234375 429.823242188 317.879882812 464.517578125 317.879882812 507.243164062 c 0
 317.879882812 539.07421875 326.154296875 573.151367188 326.154296875 610.268554688 c 0
EndSplineSet
EndChar

StartChar: asciitilde
Encoding: 126 126 94
Width: 500
Flags: HW
LayerCount: 2
Fore
SplineSet
335.590820312 390.217773438 m 0
 335.590820312 361.305664062 319.197265625 343.08984375 309.305664062 343.08984375 c 0
 307.899414062 343.08984375 297.016601562 343.08984375 284.924804688 371.249023438 c 0
 267.368164062 412.137695312 233.162109375 441.0625 191.862304688 441.0625 c 0
 134.491210938 441.0625 94.2001953125 389.6640625 84.8564453125 327.58984375 c 0
 84.5502643796 325.555933409 84.4021416774 323.53939165 84.4021416774 321.551634511 c 0
 84.4021416774 299.859711637 102.041837263 281.595703125 124.409179688 281.595703125 c 0
 144.44921875 281.595703125 161.06640625 296.364257812 163.961914062 315.6015625 c 0
 170.056640625 356.086914062 189.462890625 361.0625 191.862304688 361.0625 c 0
 193.517578125 361.0625 202.305664062 360.87109375 211.377929688 339.743164062 c 0
 230.9765625 294.099609375 266.370117188 263.08984375 309.305664062 263.08984375 c 0
 375.599536457 263.08984375 415.794020251 332.898037988 415.794020251 382.994748577 c 0
 415.794020251 411.029706599 403.206277617 432.891601562 375.560546875 432.891601562 c 0
 353.484375 432.891601562 335.560546875 414.967773438 335.560546875 392.891601562 c 0
 335.560546875 392.005859375 335.590820312 391.57421875 335.590820312 390.217773438 c 0
EndSplineSet
EndChar

StartChar: lessequal.ligature
Encoding: 256 -1 95
Width: 1000
VWidth: 0
GlyphClass: 3
Flags: HW
LayerCount: 2
Fore
SplineSet
238.875 270.220703125 m 0
 235.216502552 271.254803545 231.556912613 271.743670325 227.972337238 271.743670325 c 0
 206.652528734 271.743670325 187.986328125 254.450218368 187.986328125 231.72265625 c 0
 187.986328125 213.419921875 200.305664062 197.971679688 217.09765625 193.224609375 c 0
 255.928710938 182.249023438 303.951171875 169.185546875 355.5078125 155.161132812 c 0
 503.157226562 114.994140625 682.55078125 65.7421875 746.161132812 39.4677734375 c 0
 751.19015744 37.3905676133 756.328520985 36.4261183399 761.348084069 36.4261183399 c 0
 782.423864247 36.4261183399 801.405273438 53.4287003111 801.405273438 76.4560546875 c 0
 801.405273438 93.1357421875 791.173828125 107.4453125 776.649414062 113.444335938 c 0
 702.017578125 144.270507812 525.39453125 191.868164062 376.529296875 232.365234375 c 0
 324.985351562 246.38671875 277.100585938 259.415039062 238.875 270.220703125 c 0
746.095703125 175.002929688 m 0
 751.159986777 172.892212795 756.338362923 171.912647764 761.39683609 171.912647764 c 0
 782.466553542 171.912647764 801.456054688 188.907280949 801.456054688 211.942382812 c 0
 801.456054688 228.578125 791.279296875 242.854492188 776.81640625 248.881835938 c 0
 709.888671875 276.775390625 473.434570312 322.999023438 333.391601562 371.842773438 c 1
 486.252929688 420.235351562 724.924804688 465.651367188 783.834960938 497.815429688 c 0
 796.267578125 504.602539062 804.708984375 517.797851562 804.708984375 532.948242188 c 0
 804.708984375 556.233687652 785.4735153 572.980016828 764.565409441 572.980016828 c 0
 758.22860302 572.980016828 751.73815347 571.441751951 745.583007812 568.081054688 c 0
 688.128545621 536.717380511 287.279819602 462.897497503 211.401367188 406.276367188 c 0
 200.717087498 398.303531992 195.302290567 386.255774509 195.302290567 374.177993023 c 0
 195.302290567 363.031272318 199.91442627 351.858978211 209.252929688 343.840820312 c 0
 287.984097135 276.241181035 670.377154141 206.558014259 746.095703125 175.002929688 c 0
EndSplineSet
Ligature2: "ligatures-1" less equal
EndChar

StartChar: greaterequal.ligature
Encoding: 257 -1 96
Width: 1000
VWidth: 0
GlyphClass: 3
Flags: HW
LayerCount: 2
Fore
SplineSet
204.546875 58.3134765625 m 0
 204.546875 35.23185796 223.583442426 18.2829838182 244.620811946 18.2829838182 c 0
 249.914447194 18.2829838182 255.334768637 19.3561476091 260.610351562 21.6748046875 c 0
 426.303710938 94.4990234375 648.25 126.611328125 783.634765625 198.907226562 c 0
 796.245117188 205.640625 804.833984375 218.93359375 804.833984375 234.215820312 c 0
 804.833984375 257.479234936 785.619317617 274.247657146 764.698179537 274.247657146 c 0
 758.473880302 274.247657146 752.098535039 272.76342267 746.033203125 269.524414062 c 0
 624.428710938 204.587890625 398.578125 169.7109375 228.483398438 94.9521484375 c 0
 214.395507812 88.7607421875 204.546875 74.677734375 204.546875 58.3134765625 c 0
196.543945312 194.87109375 m 0
 196.543945312 171.53990906 215.82212422 154.839536368 236.704629828 154.839536368 c 0
 243.274018204 154.839536368 250.00217988 156.492300294 256.338867188 160.111328125 c 0
 309.44999655 190.448771501 692.024052431 271.347471683 785.1171875 326.72265625 c 0
 798.068906068 334.426810168 804.676118666 347.775981135 804.676118666 361.165575087 c 0
 804.676118666 373.388985211 799.169712607 385.646083575 787.95703125 393.672851562 c 0
 715.925353168 445.234644551 317.818083164 516.531276826 256.022460938 554.083984375 c 0
 249.439050081 558.084922786 242.3751012 559.906476366 235.476541729 559.906476366 c 0
 214.629056066 559.906476366 195.291992188 543.271105295 195.291992188 519.875976562 c 0
 195.291992188 505.38671875 203.012695312 492.686523438 214.561523438 485.66796875 c 0
 274.473632812 449.2578125 502.912109375 404.344726562 654.51953125 360.301757812 c 1
 503.93359375 311.619140625 273.275390625 261.915039062 216.749023438 229.630859375 c 0
 204.68359375 222.739257812 196.543945312 209.748046875 196.543945312 194.87109375 c 0
EndSplineSet
Ligature2: "ligatures-1" greater equal
EndChar

StartChar: notequal.ligature
Encoding: 258 -1 97
Width: 1000
VWidth: 0
GlyphClass: 3
Flags: HW
LayerCount: 2
Fore
SplineSet
657.197265625 561.68359375 m 0
 660.092930461 567.478567654 661.424361798 573.516491368 661.424361798 579.411471912 c 0
 661.424361798 600.37149276 644.59229512 619.524414062 621.392578125 619.524414062 c 0
 605.725585938 619.524414062 592.149414062 610.497070312 585.587890625 597.365234375 c 0
 568.526429109 563.221169507 545.803254164 522.278789069 521.22964583 479.300401986 c 1
 477.33270678 479.050473956 436.98046875 478.791992188 436.98046875 478.791992188 c 1
 425.368164062 478.791992188 311.344726562 479.373046875 310.075195312 479.373046875 c 0
 275.911132812 479.373046875 241.1328125 478.923828125 198.551757812 477.254882812 c 0
 177.2109375 476.41796875 160.142578125 458.830078125 160.142578125 437.286132812 c 0
 160.142578125 415.209960938 178.06640625 397.286132812 200.142578125 397.286132812 c 0
 205.522460938 397.286132812 241.186523438 399.373046875 310.075195312 399.373046875 c 0
 311.344726562 399.373046875 424.579101562 398.791992188 436.98046875 398.791992188 c 0
 437.87928198 398.791992188 451.130558078 398.917378695 474.837414787 399.076488621 c 1
 461.383199155 375.945998879 449.608697427 355.654347436 438.760091356 336.801645594 c 0
 437.702968062 336.795341268 437.093125172 336.791992188 436.98046875 336.791992188 c 0
 425.368164062 336.791992188 311.344726562 337.373046875 310.075195312 337.373046875 c 0
 275.911132812 337.373046875 241.1328125 336.923828125 198.551757812 335.254882812 c 0
 177.2109375 334.41796875 160.142578125 316.830078125 160.142578125 295.286132812 c 0
 160.142578125 273.209960938 178.06640625 255.286132812 200.142578125 255.286132812 c 0
 205.522460938 255.286132812 241.186523438 257.373046875 310.075195312 257.373046875 c 0
 310.88429227 257.373046875 357.17083069 257.137036359 393.849125275 256.965843512 c 1
 362.289795276 198.722298874 346.751953125 162.578291397 346.751953125 140.411132812 c 0
 346.751953125 118.334960938 364.67578125 100.411132812 386.751953125 100.411132812 c 0
 407.895507812 100.411132812 425.23046875 116.852539062 426.657226562 137.63671875 c 0
 431.45563156 158.132691472 454.681486012 202.534449122 485.475320302 257.145494021 c 1
 527.924811055 257.411515403 596.290954245 257.73046875 682.877929688 257.73046875 c 1
 722.116210938 257.73046875 757.493164062 257.891601562 800.860351562 258.961914062 c 0
 822.474609375 259.495117188 839.857421875 277.208007812 839.857421875 298.94921875 c 0
 839.857421875 321.025390625 821.93359375 338.94921875 799.857421875 338.94921875 c 0
 798.145507812 338.94921875 809.712890625 337.760742188 628.657226562 337.760742188 c 0
 609.14110022 337.760742188 569.643207859 337.57040859 531.545051182 337.358473343 c 1
 543.415620001 357.81551851 555.576627022 378.713350542 567.62034466 399.537723338 c 1
 600.842490261 399.650722855 639.58239004 399.73046875 682.877929688 399.73046875 c 1
 722.116210938 399.73046875 757.493164062 399.891601562 800.860351562 400.961914062 c 0
 822.474609375 401.495117188 839.857421875 419.208007812 839.857421875 440.94921875 c 0
 839.857421875 463.025390625 821.93359375 480.94921875 799.857421875 480.94921875 c 0
 798.145507812 480.94921875 809.712890625 479.760742188 628.657226562 479.760742188 c 0
 624.427881913 479.760742188 619.26012693 479.751803487 613.371570471 479.735643346 c 1
 629.893253126 509.297729933 644.957448587 537.188376904 657.197265625 561.68359375 c 0
EndSplineSet
Ligature2: "ligatures-1" exclam equal
EndChar

StartChar: plusplus.ligature
Encoding: 259 -1 98
Width: 1000
VWidth: 0
GlyphClass: 3
Flags: HW
LayerCount: 2
Fore
SplineSet
374.010845799 339.618819247 m 1
 440.350505708 339.636313582 615.429648908 342.249416575 617.868326909 342.263420491 c 1
 617.995928994 309.098293242 618.133273984 273.76968819 618.944335938 232.491210938 c 0
 619.37109375 210.782226562 637.126953125 193.290039062 658.936523438 193.290039062 c 0
 681.022056725 193.290039062 698.936590333 211.224860999 698.936590333 233.286916091 c 0
 698.936590333 233.553638024 698.933971963 233.820963189 698.928710938 234.088867188 c 0
 698.131190392 274.693958306 697.992064018 309.543139158 697.864446843 342.566412551 c 1
 726.085600705 342.705578295 754.12735593 342.987619232 786.717773438 343.791992188 c 0
 808.33203125 344.325195312 825.71484375 362.038085938 825.71484375 383.779296875 c 0
 825.71484375 405.868530192 807.776698124 423.779050171 785.719950721 423.779050171 c 0
 785.384872864 423.779050171 785.048844494 423.774916683 784.711914062 423.766601562 c 0
 754.313468302 423.01712143 726.308295651 422.741206044 697.212032259 422.588192024 c 1
 696.648719791 456.248899657 695.532748764 491.404191374 693.157226562 532.348632812 c 0
 691.940429688 553.333984375 674.513671875 570 653.225585938 570 c 0
 631.087636297 570 613.22512491 552.003281951 613.22512491 530.01887778 c 0
 613.22512491 529.234570874 613.247859399 528.445188644 613.293945312 527.651367188 c 0
 615.566746258 488.471329334 616.651959986 454.747222511 617.20739906 422.241272004 c 1
 516.093547038 421.632802388 497.043902203 419.65036638 373.356873953 419.618674668 c 1
 372.791944239 453.370538822 371.673806081 488.715904901 369.298828125 529.645507812 c 0
 368.081054688 550.630859375 350.655273438 567.296875 329.3671875 567.296875 c 0
 307.229237859 567.296875 289.366726472 549.300156951 289.366726472 527.31575278 c 0
 289.366726472 526.531445874 289.389460961 525.742063644 289.435546875 524.948242188 c 0
 291.709314369 485.757042055 292.794750409 452.024721078 293.350202979 419.510127097 c 1
 265.213757506 419.306993193 235.528331118 418.752805237 200.551757812 417.381835938 c 0
 179.2109375 416.544921875 162.142578125 398.95703125 162.142578125 377.413085938 c 0
 162.142578125 355.336914062 180.06640625 337.413085938 202.142578125 337.413085938 c 0
 203.202266256 337.413085938 235.203813184 339.02837188 294.011099887 339.492124127 c 1
 294.138647097 306.346548105 294.27626154 271.038740609 295.0859375 229.788085938 c 0
 295.51171875 208.079101562 313.268554688 190.586914062 335.078125 190.586914062 c 0
 357.163658287 190.586914062 375.078191895 208.520782628 375.078191895 230.583756927 c 0
 375.078191895 230.850489972 375.075573525 231.117826523 375.0703125 231.385742188 c 0
 374.276735039 271.829052754 374.138192096 306.529700822 374.010845799 339.618819247 c 1
EndSplineSet
Ligature2: "ligatures-1" plus plus
EndChar

StartChar: rightequal
Encoding: 260 -1 99
Width: 500
VWidth: 0
Flags: HW
LayerCount: 2
Fore
SplineSet
0.142578125 295.286132812 m 0
 0.142578125 273.178456462 18.1040384819 255.285996857 40.1333244073 255.285996857 c 0
 40.6643833023 255.285996857 41.197806194 255.296394971 41.7333984375 255.317382812 c 0
 122.222655546 258.472998603 331.15977581 257.736799842 380.860351562 258.961914062 c 0
 402.474609375 259.495117188 419.857421875 277.208007812 419.857421875 298.94921875 c 0
 419.857421875 321.039027662 401.918341383 338.949905457 379.860804593 338.949905457 c 0
 379.52629823 338.949905457 379.190844694 338.945786269 378.854492188 338.9375 c 0
 375.452300227 338.853592829 96.6231726698 337.53235185 38.5517578125 335.255859375 c 0
 17.2109375 334.418945312 0.142578125 316.830078125 0.142578125 295.286132812 c 0
0.142578125 437.286132812 m 0
 0.142578125 415.178456462 18.1040384819 397.285996857 40.1333244073 397.285996857 c 0
 40.6643833023 397.285996857 41.197806194 397.296394971 41.7333984375 397.317382812 c 0
 122.222655546 400.472998603 331.15977581 399.736799842 380.860351562 400.961914062 c 0
 402.474609375 401.495117188 419.857421875 419.208007812 419.857421875 440.94921875 c 0
 419.857421875 463.039027662 401.918341383 480.949905457 379.860804593 480.949905457 c 0
 379.52629823 480.949905457 379.190844694 480.945786269 378.854492188 480.9375 c 0
 375.452300227 480.853592829 96.6231726698 479.53235185 38.5517578125 477.255859375 c 0
 17.2109375 476.418945312 0.142578125 458.830078125 0.142578125 437.286132812 c 0
EndSplineSet
Substitution2: "longequal-1" longequal
EndChar

StartChar: lefthyphen
Encoding: 261 -1 100
Width: 500
VWidth: 0
Flags: HW
LayerCount: 2
Fore
SplineSet
80.142578125 358.326171875 m 0
 80.142578125 336.218103327 98.1031263464 318.325968545 120.131646327 318.325968545 c 0
 120.663259599 318.325968545 121.197242056 318.336388915 121.733398438 318.357421875 c 0
 201.222153483 321.473812554 412.927824934 320.819279561 460.860351562 322.001953125 c 0
 482.474609375 322.53515625 499.857421875 340.248046875 499.857421875 361.989257812 c 0
 499.857421875 384.07849113 481.919276249 401.989011109 459.862528846 401.989011109 c 0
 459.527450989 401.989011109 459.191422619 401.98487762 458.854492188 401.9765625 c 0
 455.452300227 401.892655329 176.664544517 400.573036192 118.551757812 398.294921875 c 0
 97.2109375 397.458007812 80.142578125 379.870117188 80.142578125 358.326171875 c 0
EndSplineSet
Substitution2: "longhyphen-1" longhyphen
EndChar

StartChar: leftequal
Encoding: 262 -1 101
Width: 500
VWidth: 0
Flags: HW
LayerCount: 2
Fore
SplineSet
80.142578125 295.286132812 m 0
 80.142578125 273.178456462 98.1040384819 255.285996857 120.133324407 255.285996857 c 0
 120.664383302 255.285996857 121.197806194 255.296394971 121.733398438 255.317382812 c 0
 202.222655546 258.472998603 411.15977581 257.736799842 460.860351562 258.961914062 c 0
 482.474609375 259.495117188 499.857421875 277.208007812 499.857421875 298.94921875 c 0
 499.857421875 321.039027662 481.918341383 338.949905457 459.860804593 338.949905457 c 0
 459.52629823 338.949905457 459.190844694 338.945786269 458.854492188 338.9375 c 0
 455.452300227 338.853592829 176.62317267 337.53235185 118.551757812 335.255859375 c 0
 97.2109375 334.418945312 80.142578125 316.830078125 80.142578125 295.286132812 c 0
80.142578125 437.286132812 m 0
 80.142578125 415.178456462 98.1040384819 397.285996857 120.133324407 397.285996857 c 0
 120.664383302 397.285996857 121.197806194 397.296394971 121.733398438 397.317382812 c 0
 202.222655546 400.472998603 411.15977581 399.736799842 460.860351562 400.961914062 c 0
 482.474609375 401.495117188 499.857421875 419.208007812 499.857421875 440.94921875 c 0
 499.857421875 463.039027662 481.918341383 480.949905457 459.860804593 480.949905457 c 0
 459.52629823 480.949905457 459.190844694 480.945786269 458.854492188 480.9375 c 0
 455.452300227 480.853592829 176.62317267 479.53235185 118.551757812 477.255859375 c 0
 97.2109375 476.418945312 80.142578125 458.830078125 80.142578125 437.286132812 c 0
EndSplineSet
Substitution2: "longequal-1" longequal
EndChar

StartChar: leftarrowhead
Encoding: 263 -1 102
Width: 500
VWidth: 0
Flags: HW
LayerCount: 2
Fore
SplineSet
346.095703125 175.002929688 m 0
 351.159986777 172.892212795 356.338362923 171.912647764 361.39683609 171.912647764 c 0
 382.466553542 171.912647764 401.456054688 188.907280949 401.456054688 211.942382812 c 0
 401.456054688 228.578125 391.279296875 242.854492188 376.81640625 248.881835938 c 0
 340.280285021 264.108897293 300.111074134 290.684339461 252.384200922 328.366772439 c 1
 281.771003778 327.643626519 313.2931566 327.295493668 347.379297942 327.295493668 c 0
 383.753544843 327.295493668 423.047560227 327.691933557 465.782226562 328.452148438 c 0
 487.525390625 328.838867188 505.05859375 346.610351562 505.05859375 368.4453125 c 0
 505.05859375 390.521484375 487.134765625 408.4453125 465.05859375 408.4453125 c 0
 462.291015625 408.4453125 408.07421875 407.28125 348.120117188 407.28125 c 0
 310.056900736 407.28125 277.130194825 407.79117185 249.314119263 408.534113108 c 1
 298.299840544 443.881847853 348.947749125 478.767880599 383.834960938 497.815429688 c 0
 396.267578125 504.602539062 404.708984375 517.797851562 404.708984375 532.948242188 c 0
 404.708984375 556.233687652 385.4735153 572.980016828 364.565409441 572.980016828 c 0
 358.22860302 572.980016828 351.73815347 571.441751951 345.583007812 568.081054688 c 0
 286.876953125 536.029296875 211.99609375 481.341796875 111.401367188 406.276367188 c 0
 106.84302645 402.87483704 95.2890625 392.452000529 95.2890625 374.198242188 c 1
 95.2890625 368.225426223 96.7903248235 354.541373151 109.252929688 343.840820312 c 0
 190.631835938 273.96875 267.978515625 207.55859375 346.095703125 175.002929688 c 0
EndSplineSet
EndChar

StartChar: rightarrowhead
Encoding: 264 -1 103
Width: 500
VWidth: 0
Flags: HW
LayerCount: 2
Fore
SplineSet
96.5439453125 194.87109375 m 0
 96.5439453125 171.53990906 115.82212422 154.839536368 136.704629828 154.839536368 c 0
 143.274018204 154.839536368 150.00217988 156.492300294 156.338867188 160.111328125 c 0
 223.1015625 198.2421875 300.051757812 276.124023438 385.1171875 326.72265625 c 0
 389.484227285 329.320330566 404.710937208 339.899688955 404.7109375 361.125976562 c 0
 404.7109375 381.557061309 401.366293846 383.966655388 355.515625 416.999023438 c 0
 294.9140625 460.66015625 215.91796875 517.684570312 156.022460938 554.083984375 c 0
 149.439050081 558.084922786 142.3751012 559.906476366 135.476541729 559.906476366 c 0
 114.629056066 559.906476366 95.2919921875 543.271105295 95.2919921875 519.875976562 c 0
 95.2919921875 505.38671875 103.012695312 492.686523438 114.561523438 485.66796875 c 0
 150.368097198 463.906816748 196.026163856 432.479253748 240.156344536 401.218013202 c 1
 182.339793109 398.804652508 134.564560404 394.071289063 90.58984375 394.071289062 c 0
 61.0947265625 394.071289062 35.69140625 397.373046875 35.1357421875 397.373046875 c 0
 13.0595703125 397.373046875 -4.8642578125 379.44921875 -4.8642578125 357.373046875 c 0
 -4.8642578125 337.1171875 10.224609375 320.357421875 29.765625 317.731445312 c 0
 49.4628087329 315.083737955 69.5824095271 314.096686507 90.4910995149 314.096686507 c 0
 135.135271862 314.096686507 183.376954137 318.596719469 238.785517928 321.039579599 c 1
 192.348018137 284.53111794 149.481316473 248.325780094 116.749023438 229.630859375 c 0
 104.68359375 222.739257812 96.5439453125 209.748046875 96.5439453125 194.87109375 c 0
EndSplineSet
EndChar

StartChar: righthyphen
Encoding: 265 -1 104
Width: 500
VWidth: 0
Flags: HW
LayerCount: 2
Fore
SplineSet
0.142578125 358.326171875 m 0
 0.142578125 336.218103327 18.1031263464 318.325968545 40.1316463266 318.325968545 c 0
 40.663259599 318.325968545 41.1972420561 318.336388915 41.7333984375 318.357421875 c 0
 121.222153483 321.473812554 332.927824934 320.819279561 380.860351562 322.001953125 c 0
 402.474609375 322.53515625 419.857421875 340.248046875 419.857421875 361.989257812 c 0
 419.857421875 384.07849113 401.919276249 401.989011109 379.862528846 401.989011109 c 0
 379.527450989 401.989011109 379.191422619 401.98487762 378.854492188 401.9765625 c 0
 375.452300227 401.892655329 96.6645445167 400.573036192 38.5517578125 398.294921875 c 0
 17.2109375 397.458007812 0.142578125 379.870117188 0.142578125 358.326171875 c 0
EndSplineSet
Substitution2: "longhyphen-1" longhyphen
EndChar

StartChar: longequal
Encoding: 266 -1 105
Width: 500
VWidth: 0
Flags: HW
LayerCount: 2
Fore
SplineSet
0.142578125 295.286132812 m 0
 0.142578125 273.178456462 18.1040384819 255.285996857 40.1333244073 255.285996857 c 0
 40.6643833023 255.285996857 41.197806194 255.296394971 41.7333984375 255.317382812 c 0
 95.6490206801 257.43126583 456.670198225 258.858552777 460.860351562 258.961914062 c 0
 482.474609375 259.495117188 499.857421875 277.208007812 499.857421875 298.94921875 c 0
 499.857421875 321.039027662 481.918341383 338.949905457 459.860804593 338.949905457 c 0
 459.52629823 338.949905457 459.190844694 338.945786269 458.854492188 338.9375 c 0
 454.652581773 338.833850724 96.0018934868 337.507691316 38.5517578125 335.255859375 c 0
 17.2109375 334.418945312 0.142578125 316.830078125 0.142578125 295.286132812 c 0
0.142578125 437.286132812 m 0
 0.142578125 415.178456462 18.1040384819 397.285996857 40.1333244073 397.285996857 c 0
 40.6643833023 397.285996857 41.197806194 397.296394971 41.7333984375 397.317382812 c 0
 95.6490206801 399.43126583 456.670198225 400.858552777 460.860351562 400.961914062 c 0
 482.474609375 401.495117188 499.857421875 419.208007812 499.857421875 440.94921875 c 0
 499.857421875 463.039027662 481.918341383 480.949905457 459.860804593 480.949905457 c 0
 459.52629823 480.949905457 459.190844694 480.945786269 458.854492188 480.9375 c 0
 454.652581773 480.833850724 96.0018934868 479.507691316 38.5517578125 477.255859375 c 0
 17.2109375 476.418945312 0.142578125 458.830078125 0.142578125 437.286132812 c 0
EndSplineSet
EndChar

StartChar: longhyphen
Encoding: 267 -1 106
Width: 500
VWidth: 0
Flags: HW
LayerCount: 2
Fore
SplineSet
0.142578125 358.326171875 m 0
 0.142578125 336.218103327 18.1031263464 318.325968545 40.1316463266 318.325968545 c 0
 40.663259599 318.325968545 41.1972420561 318.336388915 41.7333984375 318.357421875 c 0
 95.6028301771 320.46949389 456.670198225 321.898591839 460.860351562 322.001953125 c 0
 482.474609375 322.53515625 499.857421875 340.248046875 499.857421875 361.989257812 c 0
 499.857421875 384.07849113 481.919276249 401.989011109 459.862528846 401.989011109 c 0
 459.527450989 401.989011109 459.191422619 401.98487762 458.854492188 401.9765625 c 0
 454.652581773 401.872913224 96.0300934499 400.54785915 38.5517578125 398.294921875 c 0
 17.2109375 397.458007812 0.142578125 379.870117188 0.142578125 358.326171875 c 0
EndSplineSet
EndChar
